<?xml version="1.0" encoding="UTF-8"?>
<svg width="32px" height="32px" viewBox="0 0 32 32" version="1.1" xmlns="http://www.w3.org/2000/svg" xmlns:xlink="http://www.w3.org/1999/xlink">
    <title>instagram</title>
    <g id="Homepage" stroke="none" stroke-width="1" fill="none" fill-rule="evenodd">
        <g transform="translate(-1108.000000, -98.000000)" fill="#058E54" fill-rule="nonzero" id="instagram">
            <g transform="translate(1108.000000, 98.000000)">
                <path d="M24.544,5.536 L24.544,5.536 C23.7674325,5.536 23.0673308,6.00379298 22.7701513,6.72124781 C22.4729718,7.43870264 22.6372388,8.26452887 23.186355,8.81364502 C23.7354711,9.36276117 24.5612974,9.52702822 25.2787522,9.2298487 C25.996207,8.93266918 26.464,8.23256751 26.464,7.456 C26.464,6.39561328 25.6043867,5.536 24.544,5.536 Z M31.904,9.408 C31.8728836,8.08047717 31.6242503,6.7670448 31.168,5.52 C30.761171,4.45301216 30.1279771,3.48684555 29.312,2.688 C28.5197158,1.86788143 27.5512964,1.23868238 26.48,0.848 C25.2362509,0.377857288 23.9213562,0.123536084 22.592,0.096 C20.896,0 20.352,0 16,0 C11.648,0 11.104,0 9.408,0.096 C8.07864385,0.123536084 6.76374911,0.377857288 5.52,0.848 C4.45068251,1.24263771 3.48309415,1.87129681 2.688,2.688 C1.86788143,3.48028418 1.23868238,4.4487036 0.848,5.52 C0.377857288,6.76374911 0.123536084,8.07864385 0.096,9.408 C0,11.104 0,11.648 0,16 C0,20.352 0,20.896 0.096,22.592 C0.123536084,23.9213562 0.377857288,25.2362509 0.848,26.48 C1.23868238,27.5512964 1.86788143,28.5197158 2.688,29.312 C3.48309415,30.1287032 4.45068251,30.7573623 5.52,31.152 C6.76374911,31.6221427 8.07864385,31.8764639 9.408,31.904 C11.104,32 11.648,32 16,32 C20.352,32 20.896,32 22.592,31.904 C23.9213562,31.8764639 25.2362509,31.6221427 26.48,31.152 C27.5512964,30.7613176 28.5197158,30.1321186 29.312,29.312 C30.1315873,28.5161286 30.7653389,27.5491112 31.168,26.48 C31.6242503,25.2329552 31.8728836,23.9195228 31.904,22.592 C31.904,20.896 32,20.352 32,16 C32,11.648 32,11.104 31.904,9.408 Z M29.024,22.4 C29.0123509,23.4156338 28.8284054,24.4219238 28.48,25.376 C28.2245342,26.0723098 27.8142071,26.701478 27.28,27.216 C26.7610357,27.7448102 26.1331621,28.154293 25.44,28.416 C24.4859238,28.7644054 23.4796338,28.9483509 22.464,28.96 C20.864,29.04 20.272,29.056 16.064,29.056 C11.856,29.056 11.264,29.056 9.664,28.96 C8.60942519,28.9797457 7.55935179,28.8173632 6.56,28.48 C5.89725079,28.2049241 5.29816948,27.7964595 4.8,27.28 C4.26894171,26.7659975 3.8637489,26.136306 3.616,25.44 C3.2253699,24.4722438 3.00870969,23.4431078 2.976,22.4 C2.976,20.8 2.88,20.208 2.88,16 C2.88,11.792 2.88,11.2 2.976,9.6 C2.98317185,8.56168876 3.17272013,7.53271239 3.536,6.56 C3.81767528,5.88465785 4.25002393,5.2826534 4.8,4.8 C5.28610146,4.24986917 5.88686049,3.81295351 6.56,3.52 C7.53528174,3.16806996 8.56319569,2.98412747 9.6,2.976 C11.2,2.976 11.792,2.88 16,2.88 C20.208,2.88 20.8,2.88 22.4,2.976 C23.4156338,2.98764908 24.4219238,3.17159455 25.376,3.52 C26.1030875,3.78984397 26.7556697,4.22855472 27.28,4.8 C27.8043231,5.2914854 28.2140188,5.89237236 28.48,6.56 C28.8356049,7.53429391 29.0196619,8.56284784 29.024,9.6 C29.104,11.2 29.12,11.792 29.12,16 C29.12,20.208 29.104,20.8 29.024,22.4 Z M16,7.79193735 C11.4689401,7.80083249 7.80212146,11.4795812 7.80799985,16.0106459 C7.81389238,20.5417106 11.4902554,24.2109211 16.0213229,24.2079844 C20.5523905,24.2050443 24.2240158,20.5310685 24.2240158,16 C24.2282764,13.8190194 23.3626815,11.7263679 21.8189914,10.1856811 C20.2753014,8.64499433 18.1809682,7.78347634 16,7.79193735 Z M16,21.328 C13.0574269,21.328 10.672,18.9425731 10.672,16 C10.672,13.0574269 13.0574269,10.672 16,10.672 C18.9425731,10.672 21.328,13.0574269 21.328,16 C21.328,17.4130735 20.7666588,18.7682711 19.7674649,19.7674649 C18.7682711,20.7666588 17.4130735,21.328 16,21.328 Z" id="Shape"></path>
            </g>
        </g>
    </g>
</svg>