<?xml version="1.0" encoding="UTF-8"?>
<svg width="33px" height="32px" viewBox="0 0 33 32" version="1.1" xmlns="http://www.w3.org/2000/svg" xmlns:xlink="http://www.w3.org/1999/xlink">
    <title>linkedin</title>
    <g id="Homepage" stroke="none" stroke-width="1" fill="none" fill-rule="evenodd">
        <g transform="translate(-1046.000000, -98.000000)" fill="#058E54" fill-rule="nonzero" id="linkedin">
            <g transform="translate(1046.232558, 98.000000)">
                <path d="M29.4012447,0.000212596279 L2.13363904,0.000212596279 C1.51460545,-0.0081088794 0.917516672,0.228153952 0.47375568,0.657237991 C0.0299946879,1.08632203 -0.22407862,1.67306995 -0.23255814,2.28837416 L-0.23255814,29.7116258 C-0.22407862,30.3269301 0.0299946879,30.913678 0.47375568,31.342762 C0.917516672,31.771846 1.51460545,32.0081089 2.13363904,31.9997874 L29.4012447,31.9997874 C30.0202783,32.0081089 30.617367,31.771846 31.061128,31.342762 C31.504889,30.913678 31.7589623,30.3269301 31.7674419,29.7116258 L31.7674419,2.28837416 C31.7589623,1.67306995 31.504889,1.08632203 31.061128,0.657237991 C30.617367,0.228153952 30.0202783,-0.0081088794 29.4012447,0.000212596279 Z M9.47367929,26.7837057 L4.64470544,26.7837057 L4.64470544,12.3840987 L9.47367929,12.3840987 L9.47367929,26.7837057 Z M7.05919236,10.3681537 L7.05919236,10.3681537 C5.67236869,10.3681537 4.54812597,9.25068691 4.54812597,7.87222179 C4.54812597,6.49375667 5.67236869,5.3762899 7.05919236,5.3762899 C8.02419929,5.26750903 8.96654922,5.7180267 9.48345418,6.53527845 C10.0003591,7.3525302 10.0003591,8.39191338 9.48345418,9.20916513 C8.96654922,10.0264169 8.02419929,10.4769346 7.05919236,10.3681537 L7.05919236,10.3681537 Z M26.8901783,26.7837057 L22.0612044,26.7837057 L22.0612044,19.0559166 C22.0612044,17.1199694 21.3690515,15.8560039 19.6145244,15.8560039 C18.5023805,15.8640967 17.5130863,16.5600911 17.1356511,17.5999563 C17.0096864,17.9760105 16.9551051,18.3720528 16.9746853,18.7679245 L16.9746853,26.7677062 L12.1457115,26.7677062 C12.1457115,26.7677062 12.1457115,13.6800633 12.1457115,12.3680991 L16.9746853,12.3680991 L16.9746853,14.4000437 C17.8686906,12.8581133 19.5476275,11.9344134 21.3368584,12.0001091 C24.5561743,12.0001091 26.8901783,14.0640528 26.8901783,18.4959319 L26.8901783,26.7837057 Z" id="Shape"></path>
            </g>
        </g>
    </g>
</svg>