<?xml version="1.0" encoding="UTF-8"?>
<svg width="200px" height="200px" viewBox="0 0 200 200" version="1.1" xmlns="http://www.w3.org/2000/svg" xmlns:xlink="http://www.w3.org/1999/xlink">
    <title>Group 29 Copy 3</title>
    <defs>
        <filter x="-13.9%" y="-13.9%" width="127.7%" height="127.7%" filterUnits="objectBoundingBox" id="filter-1">
            <feOffset dx="0" dy="6" in="SourceAlpha" result="shadowOffsetOuter1"></feOffset>
            <feGaussianBlur stdDeviation="3" in="shadowOffsetOuter1" result="shadowBlurOuter1"></feGaussianBlur>
            <feColorMatrix values="0 0 0 0 0   0 0 0 0 0   0 0 0 0 0  0 0 0 0.5 0" type="matrix" in="shadowBlurOuter1" result="shadowMatrixOuter1"></feColorMatrix>
            <feMerge>
                <feMergeNode in="shadowMatrixOuter1"></feMergeNode>
                <feMergeNode in="SourceGraphic"></feMergeNode>
            </feMerge>
        </filter>
        <circle id="path-2" cx="83" cy="83" r="83"></circle>
        <polygon id="path-4" points="0 0 66.8071722 0 66.8071722 45.9237098 0 45.9237098"></polygon>
    </defs>
    <g id="Homepage" stroke="none" stroke-width="1" fill="none" fill-rule="evenodd">
        <g transform="translate(-598.000000, -4435.000000)" id="Group-29-Copy-3">
            <g filter="url(#filter-1)" transform="translate(615.000000, 4452.000000)">
                <mask id="mask-3" fill="white">
                    <use xlink:href="#path-2"></use>
                </mask>
                <use id="Mask" fill="#FFFFFF" xlink:href="#path-2"></use>
                <g id="Group-29-Copy" mask="url(#mask-3)">
                    <g transform="translate(43.000000, 23.000000)">
                        <path d="M54.7596778,3 C48.1392825,7.50227932 122.672058,100.853735 34.8559583,106.856988 C-10.5291621,109.956602 -2.2963625,61.774439 8.34473241,49.3387156 C23.6464619,31.4606765 54.7596778,3 54.7596778,3" id="Fill-4" fill="#B9E2F9"></path>
                        <g id="Group-15" stroke-width="1" fill="none" transform="translate(5.000000, 0.000000)">
                            <path d="M69.2112648,70.5216652 C68.6632351,65.6714677 67.2124914,61.1604222 65.5834258,56.8890442 C63.5225989,51.0045944 61.0189066,45.0826764 58.6249509,39.7460379 C56.1898439,34.3783912 53.9448164,29.7504191 51.6527589,26.1689733 C53.8448778,31.3021205 56.1617566,36.1187258 58.5844529,41.2027768 C60.9816746,46.2558195 63.4598923,51.3986568 65.5834258,56.8890442 C63.6970017,51.6292802 63.3357855,50.9580821 64.2136781,53.2798202 C65.0203726,55.6235225 67.2778108,60.9356128 68.8186953,68.4925668 C68.9872193,68.8155688 69.0708281,69.5888355 69.2112648,70.5216652 M70.394199,74.9713403 C70.1610088,76.2342779 69.85858,77.4842956 69.4758083,78.6664827 C68.9715426,79.8215378 68.5946497,80.9914509 67.9532133,82.0664014 C67.6292291,82.8609863 67.3241876,83.6523411 66.972116,84.4281918 C66.436497,85.3397034 66.025638,86.3778317 65.5964896,87.4676403 C63.0457674,91.2370732 59.8046191,94.3320781 56.2394867,96.8321133 C60.2063334,94.8211031 64.2757315,91.846901 67.0968761,86.6394633 C63.7028805,93.4851669 57.9769825,98.0394946 52.0361838,100.798577 C49.0373705,102.168752 45.9549483,103.157138 42.8254963,103.659083 C39.7273975,104.265681 36.5861879,104.321237 33.5344659,104.167488 C29.8445734,104.268911 26.1893002,103.603527 22.5647271,102.602866 C21.9206779,102.433613 21.2792415,102.26759 20.6469498,102.098337 L18.7788152,101.476236 C17.5116189,101.128039 16.3378295,100.573768 15.120276,100.117689 C22.079404,104.450438 30.6140359,106.658479 39.3230704,105.540892 C48.0007517,104.453668 56.6503457,100.385781 63.2325808,93.6298718 C66.5024696,90.2422272 69.2765842,86.1284742 70.8553539,81.2750466 C71.1884828,80.0431171 71.6463718,78.8299217 71.7796233,77.5178878 C71.9919113,76.2220039 72.1787248,74.9009258 72.1630482,73.6567223 L72.2035462,71.7439046 L72.0853181,69.8872893 C72.0258774,68.6275817 71.8638853,67.4240763 71.6711931,66.222509 C70.0924234,56.6274126 66.6579298,48.2145034 63.5036563,39.9618032 C65.0576046,45.510977 66.8258006,50.9981344 68.3111636,56.7262512 C69.7808499,62.4072098 71.0108141,68.5448932 70.394199,74.9713403 M5.09374926,79.8092637 C4.33735069,82.3558112 6.41450737,86.4702102 9.97310787,89.395316 C12.644671,91.7945746 15.5840437,94.0452523 18.8878985,95.9050977 C22.1819555,97.7468549 25.912346,99.2094078 29.9817441,99.573108 C34.0237081,99.9852585 37.9121716,99.3605727 41.7699349,97.9652042 C45.8053669,96.9309519 49.928327,94.8462972 53.4621061,91.846901 C57.0056832,88.8778669 59.9979645,84.9243228 61.3239482,80.5728403 C61.4238869,80.348031 61.6041684,80.015339 61.7446051,79.6400107 C61.8438905,79.2582223 61.9438292,78.8363818 61.9967379,78.4416734 C62.1273767,77.6503186 61.9595059,77.0068986 61.2684267,77.065685 C62.118232,73.2006435 61.5950237,68.187653 60.2311547,63.3561896 C58.8986391,58.4717538 56.9181552,53.6066982 54.5522868,48.8701974 C52.683499,44.8391329 51.8552491,40.1065081 50.0622317,35.9552868 C46.5369441,28.260088 46.7146129,24.4996991 45.2233712,19.7916224 C45.1639305,19.7360661 45.0953451,19.6895538 45.0143491,19.6436875 L44.8869763,19.5881312 C44.8249229,19.6372275 44.7217182,19.8252147 44.6407222,19.9363273 C44.4761173,20.1856848 44.3075933,20.4408564 44.1488671,20.6811699 C43.8412128,21.1372486 43.5949587,21.4822147 43.4643199,21.5500451 C42.5302526,21.9344175 41.3936952,22.8181509 40.3538105,23.822687 C39.8332149,24.3304461 39.3322152,24.8692133 38.8717134,25.4079806 L38.1675704,26.2613518 L37.0375449,27.5791998 C34.0759637,31.1296374 31.3985218,34.83447 28.6021986,38.4281899 C26.323205,41.1808126 24.6947925,43.4075882 22.4282096,45.9082694 C22.6679318,46.5174511 22.0513167,47.0594484 21.590815,47.9160496 C20.7717098,48.8947456 17.8075158,51.8540896 15.0425459,54.7430192 C12.2932527,57.6345328 9.85814574,60.4859941 9.17947725,60.8277302 C9.01095322,60.9110647 9.82091368,59.5098822 11.1161972,57.347707 C11.8320978,56.2856765 12.6760243,55.038243 13.5820043,53.6926168 C14.5565696,52.3715387 15.5997203,50.9613121 16.642871,49.5446255 C20.9337019,43.9276213 25.7287985,38.5509306 25.2957309,38.5050643 C24.9312487,38.621991 21.6933664,42.1142883 18.5730591,45.8339789 C15.4468729,49.5478555 12.5107663,53.5078596 12.0032346,54.1209174 C16.3345635,46.8410991 20.6097177,41.1562645 24.0252687,36.6174408 C27.4937285,32.0967053 30.2031769,28.7032467 32.2052163,26.2368037 C36.0721243,21.4234284 37.6848601,19.5422649 36.6515073,20.4750946 C36.212561,20.865927 35.0570609,22.0610343 33.9113588,23.329786 C32.7127479,24.6353599 31.2430616,26.3505004 29.6081172,28.262672 C26.3578242,32.1089794 22.6084911,36.8945765 19.566567,41.2273249 C17.2901862,43.6078494 14.9798393,47.7739287 11.2592467,52.8302015 C13.0248299,49.5413955 16.3593849,42.2622232 17.5553829,40.8513506 C22.4961418,33.9475066 21.014698,34.3202509 27.8458,27.4558131 C28.9980341,26.3046341 30.2959304,24.9615919 31.6382439,23.4744909 C32.3234444,22.7199583 33.0360789,21.9376475 33.7650433,21.1372486 C34.7082554,20.1301285 35.67041,19.1049203 36.6358306,18.066792 C38.6065167,15.9485451 40.7117607,13.7708658 42.8196175,11.6093367 C43.9000003,10.509838 44.9555616,9.43811744 45.9765037,8.40063512 C46.5029781,7.8709119 47.0229204,7.35087874 47.5271861,6.84247364 C48.0288391,6.36830676 48.6082221,5.65382641 48.9132636,5.75847904 C49.6481068,7.87737194 50.2895432,9.73398724 50.831041,11.2953787 C50.2359813,10.2824446 49.4142634,8.87480201 48.483462,7.29209238 C48.1660098,7.18743974 47.496486,8.20037391 46.9700117,8.76691935 C46.4343927,9.40452523 45.886363,10.0544052 45.3324545,10.7100992 C44.2951826,11.9232946 43.2494191,13.151994 42.2343558,14.3438713 C40.2695484,16.6197431 38.556874,18.5041366 37.0153363,19.8562228 C39.628112,17.8051604 41.4093718,16.1210281 43.1122484,14.2669968 C43.9587877,13.3490252 44.7752801,12.4039215 45.6094088,11.4123055 L46.8798709,9.89096619 C47.3064066,9.38902114 47.8139383,8.6590367 48.0471285,8.84702384 C48.7793589,10.023397 49.5795214,11.4368536 50.4913801,13.5990288 C50.9649457,14.6823774 51.4600667,15.9543591 51.9741304,17.4446902 C52.4685982,18.9414813 53.0009512,20.5519691 53.5992768,22.3717621 C53.838999,23.0584643 54.1283639,23.7852188 54.4556141,24.5552554 C54.7639216,25.2697358 55.1839253,26.29236 55.4863541,26.7665269 C55.8064191,28.0042704 56.1088479,29.1741835 56.4883536,30.6399665 C59.8111511,39.4934503 64.2319675,46.6563419 67.3646856,55.8451019 C67.0315567,55.0815252 67.4770349,54.3360367 67.2373128,53.5265938 C65.2287415,45.350768 61.0561387,39.6601194 58.2323813,31.6935989 C57.7777584,30.1289774 56.09905,28.3705547 55.4863541,26.7665269 L55.2492447,26.1353811 L54.9690245,25.2820099 C54.7978877,24.7090044 54.6234849,24.1398749 54.4556141,23.5726835 C54.1250979,22.4363625 53.8298543,21.2909976 53.5365702,20.1236685 L51.821283,12.2282084 C52.7115863,14.4394799 53.5927449,17.1617404 54.5209335,19.6650057 C54.9847012,20.9059792 55.4517348,22.1592269 55.9220344,23.4253946 L56.6222583,25.3556543 L56.9057445,26.0979128 L57.1552646,26.7167846 C58.4655716,30.0243247 59.7863297,33.4022793 61.2213967,36.6083968 C61.8563012,37.9139707 63.1548507,39.2841451 63.9301919,40.1956566 C62.7257023,37.2053044 61.5172936,34.2059082 60.306272,31.1916538 C59.649159,29.7226409 58.9580798,28.1857975 58.248058,26.5998579 L57.6934964,25.4202547 C57.4322188,24.7710208 57.1676752,24.1120967 56.9031317,23.4531727 C56.3733914,22.1411387 55.8345064,20.8168307 55.2962747,19.4867086 C54.7541237,18.2515491 54.249858,16.7276258 53.7423263,15.3264433 C53.2439393,13.9375348 52.7462056,12.5453963 52.2510846,11.168762 C51.3353067,8.54534001 50.4358587,5.95551024 49.5605788,3.45224501 C49.4018527,3.53493351 49.2555372,3.57498576 49.0876664,3.68609843 L48.5082834,4.24036981 L47.3749919,5.3243644 C46.6368828,6.02334066 45.9111844,6.71004284 45.1985498,7.38447094 C43.7817722,8.71782305 42.4335799,9.94652253 41.1382964,11.1015776 C38.5444633,13.3987675 36.1844736,15.3910437 33.9080928,17.0196196 C33.652694,17.3342235 33.3940292,17.6449514 32.8740868,18.2735132 C32.6905393,18.3536177 32.4599619,18.5073666 32.2235057,18.7011678 C31.8498788,19.064868 31.4579624,19.4401963 31.0529822,19.8316747 C30.725732,20.1333585 30.3834584,20.4350424 30.0287741,20.7309122 C29.3122204,21.3187757 28.5617005,21.8975953 27.7739487,22.3782222 L31.1215675,19.2799873 C31.2430616,19.0861862 31.71924,18.5532329 32.0184028,18.1901787 L33.0739642,16.9827974 L35.3059278,14.5376725 C36.8383208,12.8722743 38.4575885,11.2307783 40.1291117,9.59832641 C41.8012882,7.94197233 43.5139627,6.34052859 45.2638692,4.70549264 L47.907345,2.2668278 L49.2496585,1.04394235 L49.925061,0.428300607 C50.1399618,0.249357518 50.3300412,0.144704881 50.5318782,0 C51.4411241,3.10727891 52.356902,6.23910597 53.2785586,9.37674706 L54.6920703,14.1991664 C55.1623699,15.8006102 55.6326695,17.4944325 56.1304033,18.8458727 L57.6157663,23.1417988 L58.3506094,25.2264535 L58.8457304,26.4461089 C59.5152542,28.0753309 60.1939227,29.6858187 60.9601192,31.2685283 C62.2364601,33.6761849 62.9869799,38.3015731 64.3665255,40.756388 C68.1093267,48.0452504 71.6208972,56.2113861 73.0161194,65.5235328 C73.6608218,69.7057622 73.9906847,74.1367032 73.0376748,78.8887081 C72.0663754,83.4643539 70.0362487,87.4954185 67.5358224,90.9567075 C62.4951249,97.8825157 55.5484075,102.744987 48.0445157,105.473062 C44.3141252,106.880058 40.3812446,107.644281 36.4986599,107.831622 C34.5652059,108.007335 32.621954,107.813534 30.725732,107.714696 C28.8268973,107.394924 26.9554967,107.175928 25.1552942,106.602923 C23.3309236,106.184312 21.6091044,105.423966 19.8996959,104.7799 C18.2431961,103.958183 16.5866963,103.219154 15.0706332,102.215264 C11.9940899,100.336685 9.19776668,98.091821 6.92465182,95.5019912 C6.41450737,95.1202029 5.89717778,94.7416446 5.4647634,94.2920258 C5.57384679,94.5782056 5.66725352,94.8734294 5.78221565,95.1479811 C5.42753135,94.646036 5.10354716,94.1253568 4.77629701,93.6234118 C2.30395801,91.2092951 0.407736047,88.2034388 7.09559603e-05,85.0845318 C-0.00900167618,83.7660378 0.853214303,87.1226742 1.86827766,87.6989097 C1.51032739,87.080038 1.41692066,86.3959198 1.38230138,86.4081939 C1.38230138,86.4081939 1.69060891,86.3933358 2.00544838,86.3778317 C1.67819823,85.9805393 1.86827766,85.5612827 1.91530762,85.1704503 C4.43728936,90.9134253 10.4871715,95.8682754 17.0694067,98.7785231 C16.8512399,98.2455699 16.2444227,97.8114553 15.5931884,97.4232069 C14.9706946,96.9800482 14.2887601,96.6073039 13.8811671,96.3120801 C11.741957,95.3172341 9.75559429,94.0084301 8.31987405,92.4593127 C6.11861052,90.5626451 4.46798948,88.0897421 3.61818418,85.6814394 C2.71220421,83.2518187 2.79646623,81.0715554 3.19164855,79.4520235 C3.26611266,79.1380656 3.49995608,78.86416 3.72073563,78.6115724 L4.31252932,77.8970921 C4.54637275,77.5831342 4.70836484,77.5488959 4.80438435,77.7091049 C4.85468028,77.7892094 4.88864636,77.9184102 4.90432302,78.0876632 C4.95396576,78.1865018 5.01601918,78.2788804 5.0565172,78.3893471 C5.28709466,78.8363818 5.13424728,79.3195927 5.09374926,79.8092637" id="Fill-6" fill="#035D9C"></path>
                            <g id="Group-10" transform="translate(8.192828, 64.076290)">
                                <mask id="mask-5" fill="white">
                                    <use xlink:href="#path-4"></use>
                                </mask>
                                <g id="Clip-9"></g>
                                <path d="M12.2271371,41.7971004 C7.51630248,39.4663182 3.23135034,36.4359137 0,32.7375412 C0.968033395,34.4804598 1.86486865,36.1678221 3.5586005,37.8403263 C8.26029036,42.2900014 15.4526087,44.4980428 22.4182687,45.5600733 C32.5591043,47.0413603 43.7842419,43.9560455 52.5651278,37.0547855 C56.9552442,33.5967265 60.8378289,29.1838736 63.5440113,23.7425825 C64.9418463,21.0539141 65.8693817,18.0118816 66.4644413,14.8458163 C66.8975089,11.5511963 66.931475,8.36122888 66.5016734,5.45098117 C66.4859967,4.23455577 66.0535823,1.76165272 65.3997352,0 C66.0411717,3.51361538 66.476852,7.19066976 66.3024492,11.0582953 C66.028761,15.1358721 64.9229037,18.9233932 63.3663425,22.3168518 C61.7438088,25.6825323 59.642484,28.6231422 57.3256051,31.2627143 C54.9002961,33.7905276 52.3593717,36.1342299 49.4820525,37.957253 C43.8841806,41.7880563 37.3979649,44.0238759 30.9182812,44.7900366 C24.3987526,45.5419852 17.8563623,44.3132857 12.2271371,41.7971004" id="Fill-8" fill="#035D9C" mask="url(#mask-5)"></path>
                            </g>
                            <path d="M63.3213499,32.7520763 C62.577362,31.1629067 61.7863442,29.571153 61.1135544,27.9884433 C60.7836915,27.1873985 60.4505626,26.3992737 60.1265784,25.6137329 L59.8933882,25.0226393 C59.8091262,24.80429 59.7620962,24.7086814 59.6157808,24.2558326 C59.3636479,23.50453 59.118047,22.7564575 58.8717929,22.014199 C59.1461343,23.1873421 59.4322333,24.4128116 59.7248641,25.6789793 C59.9306202,26.5258904 60.1762211,27.3999338 60.4407647,28.2778531 C60.967239,30.0388598 61.6491734,31.8095566 62.2311692,33.3864522 C64.1273912,37.7592528 66.1300838,42.1501415 68.0165078,46.665063 C66.6219388,41.9472963 65.0960778,37.3464563 63.3213499,32.7520763" id="Fill-11" fill="#035D9C"></path>
                            <path d="M73.5926937,64.0755796 C73.3529715,62.9857709 73.1165153,61.8953163 72.8735272,60.7900036 C71.6716504,55.8106053 69.8903905,51.172943 68.015724,46.6644816 C69.4795316,51.6471099 70.8401345,56.749895 71.9048406,62.2525565 C72.509045,62.0677993 73.0910408,62.8933924 73.5926937,64.0755796" id="Fill-13" fill="#035D9C"></path>
                        </g>
                    </g>
                </g>
            </g>
        </g>
    </g>
</svg>