<?xml version="1.0" encoding="UTF-8"?>
<svg width="200px" height="200px" viewBox="0 0 200 200" version="1.1" xmlns="http://www.w3.org/2000/svg" xmlns:xlink="http://www.w3.org/1999/xlink">
    <title>Group 29 Copy 2</title>
    <defs>
        <filter x="-13.9%" y="-13.9%" width="127.7%" height="127.7%" filterUnits="objectBoundingBox" id="filter-1">
            <feOffset dx="0" dy="6" in="SourceAlpha" result="shadowOffsetOuter1"></feOffset>
            <feGaussianBlur stdDeviation="3" in="shadowOffsetOuter1" result="shadowBlurOuter1"></feGaussianBlur>
            <feColorMatrix values="0 0 0 0 0   0 0 0 0 0   0 0 0 0 0  0 0 0 0.5 0" type="matrix" in="shadowBlurOuter1" result="shadowMatrixOuter1"></feColorMatrix>
            <feMerge>
                <feMergeNode in="shadowMatrixOuter1"></feMergeNode>
                <feMergeNode in="SourceGraphic"></feMergeNode>
            </feMerge>
        </filter>
        <circle id="path-2" cx="83" cy="83" r="83"></circle>
        <polygon id="path-4" points="0 0 107 0 107 95 0 95"></polygon>
    </defs>
    <g id="Homepage" stroke="none" stroke-width="1" fill="none" fill-rule="evenodd">
        <g transform="translate(-214.000000, -4430.000000)" id="Group-29-Copy-2">
            <g filter="url(#filter-1)" transform="translate(231.000000, 4447.000000)">
                <mask id="mask-3" fill="white">
                    <use xlink:href="#path-2"></use>
                </mask>
                <use id="Mask" fill="#FFFFFF" xlink:href="#path-2"></use>
                <g id="Group-29" mask="url(#mask-3)">
                    <g transform="translate(27.000000, 34.000000)">
                        <g id="Group-3" transform="translate(0.000000, 1.000000)">
                            <mask id="mask-5" fill="white">
                                <use xlink:href="#path-4"></use>
                            </mask>
                            <g id="Clip-2"></g>
                            <path d="M20.3151766,69.5453926 C-20.2719256,33.8723055 8.4211521,-1.40684419 33.1643781,4.46300739 C55.7505367,9.822517 56.3109722,15.1611963 56.3109722,15.1611963 C56.3109722,15.1611963 64.7436985,-3.72574495 89.838415,0.660867853 C111.132526,4.38458749 126.418404,39.8181263 47.965357,95" id="Fill-1" fill="#EDEFB8" mask="url(#mask-5)"></path>
                        </g>
                        <g id="Group-28" transform="translate(2.000000, 0.000000)">
                            <path d="M98.4288442,42.0531943 C99.2982769,38.8671023 99.8955603,35.6151993 100.070169,32.3916735 C99.7630983,35.537313 98.9827764,38.6539716 97.8977918,41.6673856 C96.8561584,44.6922711 95.5128729,47.6422893 93.9486165,50.4570631 L91.4228061,54.581413 C90.5184516,55.9169513 89.4539385,57.1486413 88.4749235,58.441312 C87.51638,59.7563221 86.4085156,60.9421255 85.2777714,62.1194762 C84.1385978,63.2847515 83.0909434,64.5454224 81.8740989,65.6394529 C83.719536,64.1251988 85.4012019,62.3839273 87.1635493,60.7006177 C88.796445,58.8989693 90.3637119,57.0019253 91.8617372,55.0595985 L93.8306049,51.9423362 C94.4965277,50.9092865 95.1395707,49.8647651 95.6363034,48.7477914 C96.7297174,46.5663719 97.6798315,44.3269905 98.4288442,42.0531943 M31.410876,81.6785917 C27.5767019,76.7053417 21.587009,71.5364703 17.4162608,66.7932565 C16.3830569,65.5990003 15.3239626,64.4331212 14.2648683,63.2817327 C13.7109361,62.6803782 13.2376854,62.1997776 12.6259516,61.4975936 L10.8154362,59.3934566 C9.56065939,58.0295411 8.56779614,56.4150612 7.44849185,54.9098637 C6.4610475,53.3008178 5.43386454,51.7032435 4.59574105,49.9734436 C2.82436223,46.5748247 1.57078959,42.8278307 0.70918419,38.9389508 C-0.0596977794,35.013241 -0.246348845,30.857495 0.362374468,26.6727681 C0.956045276,22.5025316 2.48598191,18.2483712 5.10331153,14.6046218 C6.41829839,12.8059922 7.91030271,11.1021545 9.65278072,9.70623921 C10.4764538,8.93824431 11.409107,8.34232374 12.3477813,7.75485594 L13.7512769,6.87697497 C14.2076688,6.62399552 14.6496104,6.44286464 15.0999813,6.22369629 C15.0632532,6.1578854 15.0656616,6.07154635 15.1349031,5.95622637 C15.4907444,5.41524882 16.756359,4.61827298 17.9328628,4.18899281 C19.6669114,3.6395625 21.460568,3.22235772 23.2054544,2.81058687 C25.0454726,2.61496552 26.8072178,2.23519446 28.6472361,2.27262817 C30.3319125,2.16576096 32.0081594,2.0419882 33.6928358,2.22070399 C35.3805227,2.26055278 37.0248584,2.58055066 38.6667857,2.89088822 C41.8988596,3.64258135 45.0442311,4.71004596 47.8710916,6.2671677 C43.3306539,3.83216499 38.1562047,2.24606231 32.8203926,1.95564915 C31.2278376,1.80591429 29.9562019,1.73406571 30.0964913,1.27640837 C30.2199218,0.896637308 31.7095177,0.404565102 33.4550063,0.571205506 C37.2777405,0.694978269 41.1522553,1.6072741 44.7401705,3.01224591 C46.5567068,3.68544899 48.2618546,4.56876388 49.9092008,5.51607834 C50.7160151,6.01660332 51.5481176,6.47727951 52.3025491,7.03878522 C52.8053028,7.38957534 52.7589411,7.38112257 52.914283,7.49885764 C53.034703,7.58821553 53.1436831,7.69749783 53.2586843,7.80134619 C53.7036363,8.19258888 54.1196876,8.64722737 54.5273094,9.16224282 C54.6218392,9.39831673 54.77116,9.15379005 54.8976011,9.14231843 L55.293783,8.9581687 C55.5544924,8.83439594 55.8272438,8.71364203 56.1258855,8.61583135 C56.513638,8.56692602 60.3134925,6.91742753 62.9284137,6.31063911 C69.833901,3.36001718 77.5775118,1.54448206 85.7371739,2.71821012 C89.7838894,3.29964023 93.9311556,4.75049852 97.5648304,7.32014184 C101.195495,9.85054014 104.272227,13.4797991 106.074915,17.5522249 C107.937813,21.6101602 108.724156,25.9271127 108.849995,30.0255006 C108.976436,34.1383789 108.500174,38.0991074 107.650611,41.8086676 C106.820917,45.5387561 105.696194,49.1100531 104.349898,52.4808987 C104.005496,53.3267799 103.703844,54.1732648 103.322113,55.0245799 L102.036629,57.5918082 L100.722244,60.170508 L100.053311,61.4601598 L99.3157378,62.62302 C99.0231171,63.1265639 98.5691335,63.647617 98.2765128,63.794333 C97.9321115,64.0219542 97.8779225,63.825729 98.127192,63.3710905 C98.6064638,62.5451338 99.1031964,61.7511768 99.5656094,60.8962391 L100.848083,58.1762571 C101.660316,56.3631371 102.630902,54.5530359 103.190253,52.7538025 C104.533538,49.2084676 105.601062,45.4004929 106.390415,41.4663303 C107.165318,37.52613 107.58438,33.3558936 107.24901,29.0359222 C106.927489,24.7358753 105.735932,20.2432259 103.373893,16.2831012 C101.075075,12.2764863 97.4010591,9.11937518 93.4175641,7.15652029 C89.379278,5.24800465 85.0537901,4.49389645 80.8776231,4.49389645 C76.6930266,4.54038671 72.6318607,5.32589093 68.7748067,6.57509018 C66.8432692,7.19093515 64.9629103,7.93960943 63.1379445,8.78850945 C62.2366005,9.23167632 61.3009368,9.61990016 60.4339125,10.123444 L59.1110983,10.8431373 L58.5541556,11.1486447 L58.0977637,11.4275863 L56.9868888,12.1237326 C56.1517758,12.6133897 55.3853022,13.2093103 54.5845089,13.7388162 C55.3678413,13.3644791 56.1457548,12.8953501 57.0759996,12.4926358 C57.8075514,12.1756568 58.4536049,11.8278855 59.3290586,11.4879632 C60.3303513,11.0852489 61.2919053,10.6046483 62.3281198,10.2586884 C64.366229,9.49914625 66.4555167,8.81688662 68.6164544,8.32179557 C69.1216164,7.93055288 69.9916512,7.43848068 71.1109555,7.17946353 C73.7541755,6.39094046 76.5238364,5.9417359 79.3398591,5.79803874 C79.218837,5.72317131 79.1501975,5.63985111 79.1417681,5.55351206 C79.147187,5.23653303 80.2147107,4.89117683 81.5206661,5.00347797 C85.1832417,5.21660863 88.9030168,6.06309358 92.3265586,7.7953085 C95.7651529,9.47922185 98.776256,12.2505242 100.842664,15.5863511 C100.954655,15.7415199 101.043163,15.8942736 101.126855,16.0524612 C103.680964,20.1768112 104.83519,25.0522506 104.79485,29.6831632 C104.800269,34.3484907 103.873636,38.8526118 102.487,43.0983195 C99.8293293,51.5136598 94.8294891,59.436928 88.9084357,65.8924323 C76.9886578,78.8438935 62.5779913,88.280812 47.7795724,96.6532847 C47.4146996,96.9726788 46.7608188,97.3011295 46.4019671,97.3530537 C45.9883242,97.4279211 45.9600255,97.2292809 46.3212857,96.9123019 C46.2466252,96.8060384 46.0491364,96.6967561 46.1749753,96.6073982 C56.5274863,89.3663897 65.9906953,82.044476 76.2486766,73.3206094 L78.8888861,71.0643225 L81.4116859,68.6667535 L83.9200354,66.2722034 L86.2682262,63.707994 C85.3698927,64.4910831 84.4829991,65.2681346 83.5985139,66.0391483 C82.6604418,66.7153702 81.7332075,67.3861582 80.8089836,68.0509085 C79.8937913,68.6758101 78.9864263,69.297089 78.0850823,69.9105188 C77.1783194,70.4859112 76.2366346,70.9810023 75.3383011,71.4730745 C66.2947559,79.0739297 56.2980861,85.9182616 45.8480349,90.6439661 L46.3616264,90.6035136 C45.4747328,91.1016235 44.5336501,91.3546029 44.3638579,91.0986046 C44.1314472,90.8884928 44.743181,90.2756667 45.6354935,89.7576324 C54.6103993,83.9348786 63.4618745,77.8108438 71.6100966,70.9091537 C73.6162945,69.1533918 75.6947444,67.4755161 77.5600509,65.5899437 L80.4302626,62.8415846 L83.0879329,59.9235663 C84.950831,58.0470504 86.4085156,55.9024609 88.0070916,53.8677574 C88.862676,52.8745564 89.3648276,51.7062623 90.0650702,50.6442316 C90.6906523,49.5302768 91.4426754,48.5376796 91.9622879,47.3228952 C94.2526771,42.6660204 96.0896849,37.788166 96.7327279,32.9296322 C97.41852,28.0970605 96.8158177,23.3055452 94.5657692,19.71372 C92.353051,16.1074043 88.4863634,13.8076459 84.0266072,13.0336134 C79.5602278,12.2336187 74.652509,12.9388215 70.0344004,14.5357921 C68.349724,15.120241 66.6909379,15.8338967 65.0749009,16.6254386 C64.2596572,16.9997757 63.4823459,17.4803763 62.683961,17.8945622 C61.5158866,18.5194637 60.2045123,19.451684 58.9671964,20.2142449 C57.8394627,20.33198 57.1464453,21.8981583 56.2715937,22.0684213 L54.7729663,22.4481924 C54.3514962,22.4711356 53.5236084,23.470978 53.2135268,23.1890176 C51.7588527,22.5472106 50.3944936,19.6907767 48.3021953,19.0833845 C47.5525806,18.4301058 46.7836986,17.7997704 45.9684549,17.28717 C45.5090525,16.9677759 45.0502521,16.6713251 44.5649593,16.4092891 C43.6292956,15.827859 42.6388408,15.3877109 41.6634384,14.9125443 C40.6531143,14.5563202 39.6740993,14.0612292 38.6408954,13.8396457 L37.1085503,13.4133844 L35.5527234,13.1658389 C31.4024466,12.521013 27.1203099,13.0710471 22.9760542,14.7519416 C20.9837046,15.7276332 19.0238684,16.0011408 18.6963259,15.3502772 C18.3495162,14.6825081 19.8589814,13.2376875 22.0807312,12.1931661 C26.5465084,10.3051786 31.3651164,9.59695692 36.0578855,10.2586884 C38.4169141,10.4923472 40.6958634,11.2778514 42.9290531,12.1382231 C44.0194565,12.6447857 45.1249125,13.131424 46.1605249,13.7587406 C46.7006088,14.0437199 47.2057709,14.363114 47.7193623,14.711489 C48.3762537,15.1256749 49.0078568,15.5923888 49.6165801,16.089895 C51.1832449,16.8409843 52.5325514,17.6729788 53.7439771,18.5538786 L53.9649478,18.7265567 C54.0396083,18.7639904 54.1425674,18.6661797 54.2316782,18.6426327 L54.7795894,18.3926721 L55.8760139,17.8915434 C56.6021468,17.5552437 57.3198502,17.2098875 58.1609842,16.9218894 C59.1135067,16.3320066 60.0178612,15.7040862 61.007714,15.1546559 L63.393235,13.8656078 L65.8498039,12.7051627 L68.3810332,11.703509 C75.1835614,9.2401291 82.8609411,8.54398277 89.4051683,11.3297756 C84.4197786,8.90624452 78.504144,8.50896414 72.8185117,9.28601558 C70.2270724,9.86503061 67.7181208,10.7972508 65.2440911,11.813395 C62.7875222,12.9267461 60.4796721,14.0666631 57.8683635,15.7246144 C57.1301886,16.0584989 56.4672763,16.4467228 55.7959346,16.8295127 L54.7856104,17.4055089 L54.2774378,17.6929032 C54.1973585,17.7218841 54.1022267,17.8311664 54.0275663,17.7937327 L53.8210459,17.5950925 C52.7216109,16.5940425 51.5252378,15.6322376 50.2018215,14.7573755 C49.6798006,14.3142086 49.1288789,13.9030415 48.5689257,13.5202516 C44.1573375,10.3999705 39.0461088,8.30187117 33.7018673,7.95349613 C28.3744847,7.5332725 22.9670227,8.805415 18.1712945,11.2464554 C13.2148056,13.4218372 9.27707019,17.8861094 7.6062421,23.1497726 C6.71934849,25.7719439 6.47850841,28.5667933 6.49295881,31.3380956 C6.68502878,34.1069829 7.07820022,36.8903607 8.03975426,39.5348714 C9.75333146,44.69529 12.5916318,48.9748087 15.8122659,52.4688233 C16.5666974,53.3817229 17.4764709,54.1557555 18.3091755,54.9557502 C19.129838,55.7358205 20.0167316,56.5327963 20.9523954,57.3503003 C22.7779632,58.9708179 24.5342895,60.6142787 26.2623171,62.274645 C29.7123513,65.6044342 33.0214941,69.0121097 36.2361071,72.6932928 C37.8286622,74.5529031 39.4188088,76.4523622 40.9571749,78.5184617 C42.4985514,80.6050894 44.0080166,82.7237168 45.4747328,85.4346422 C46.0003662,86.3179571 46.3959461,87.7833059 46.3158668,88.3013402 C46.2586672,88.5168859 46.1292157,88.5519045 45.9744759,88.4335657 C45.7932438,88.2753781 45.5493932,87.8811165 45.2971132,87.3371202 C43.8472559,84.4818938 42.3522411,82.4876429 40.813875,80.4010152 C39.275509,78.3602741 37.7052316,76.4408906 36.0982262,74.5758464 C32.8920426,70.8457579 29.5714599,67.3227624 26.1045669,63.8867098 C24.3825603,62.159325 22.5943227,60.4814494 20.7862157,58.8065925 C18.9148883,57.1401885 17.1724103,55.5401991 15.4305343,53.7959088 C12.0346892,50.2469512 9.03863851,45.9704513 7.05230991,40.8849002 C5.0117923,35.5198037 4.09900838,29.4241461 5.68614453,23.5844867 C7.0354511,17.7448274 11.288687,12.4117307 16.6558083,9.76420109 C21.7242878,6.97478564 27.6772526,5.40921113 33.6067355,5.81554805 C39.5307995,6.13192331 45.2766418,8.51500183 49.9236512,11.9226773 C50.3168227,12.1961849 50.6955437,12.4926358 51.0604164,12.8005583 C51.7492191,13.3415358 52.4006915,13.9259848 53.0377135,14.5327732 C52.4061104,13.833608 51.7775178,13.1718766 51.1549461,12.5844088 C50.0470818,11.4475107 48.2215139,10.031671 46.4681981,8.90322567 C44.6799605,7.76632756 42.7911721,6.73327781 40.7789532,5.95924521 C35.7851341,4.42204787 30.3264936,4.17510611 25.2062334,5.29147606 C23.8912465,5.47864463 22.674402,5.93026427 21.4316671,6.32452581 L19.5663607,6.931918 L17.8094323,7.73795039 L16.0500955,8.5554544 C15.4648541,8.805415 14.8790105,9.10790356 14.2877481,9.51061787 L12.5229924,10.6330255 C11.9401594,11.0127966 11.4380078,11.5169442 10.8955156,11.960111 C8.70868759,13.7502878 7.0210007,16.084461 5.61449461,18.5218788 C4.36874927,21.0317489 3.33554531,23.6967879 2.94237387,26.4366942 C1.98924924,31.9020164 2.57750114,37.4627342 4.24230823,42.5513042 C5.53381318,46.5144477 7.45993175,50.1292162 9.66121012,53.4650431 C10.8581853,55.0650325 11.9805001,56.714531 13.3322151,58.150295 L15.2697736,60.3202429 L17.1061792,62.2776638 C21.9482691,67.564874 28.839306,72.8430277 32.8234031,78.9791379 C33.8939373,80.4873543 42.5991022,88.0477569 42.3034709,88.6146966 C42.0132586,89.1792211 32.4675619,83.1668837 31.410876,81.6785917" id="Fill-16" fill="#89BF4E"></path>
                            <path d="M85.9561577,51.8779744 C87.0068226,50.6378317 87.8274852,49.2878029 88.7655573,47.9697739 C89.2454312,47.3309857 89.647032,46.5968019 90.0233446,45.836656 C90.3960447,45.0885855 90.8151064,44.3459489 91.131209,43.5864068 C92.4883429,40.56454 93.3035866,37.4442589 93.4643473,34.5896363 C93.4673578,34.3161287 93.4041373,34.1374129 93.2692669,34.249714 C93.1343964,34.3620152 93.0278247,34.6554472 93.0109659,34.9663885 C92.8213043,37.6918044 92.0036522,40.6708035 90.7091368,43.5719163 C90.3906258,44.3000624 89.9974543,45.0137181 89.6355921,45.7303925 C89.2767404,46.4615575 88.8865794,47.1583076 88.427177,47.765096 C87.5372729,49.0257669 86.7196208,50.2979094 85.7610772,51.4837128 C85.5142161,51.7717109 85.3733247,52.0536713 85.4479851,52.1484632 C85.4913363,52.2577454 85.7436163,52.1110294 85.9561577,51.8779744" id="Fill-18" fill="#89BF4E"></path>
                            <path d="M47.7032261,20.4815337 C46.6640011,19.3947485 45.4971309,18.2312845 44.4428534,17.4916668 C41.3787654,14.978174 38.0184442,13.4295051 34.6701649,12.7768301 C31.3068331,12.1972114 27.7875574,12.5926804 24.1707414,14.1099534 C20.1210154,15.9991484 17.9215433,17.3220075 16.3488576,20.2037997 C15.4625661,21.4988855 15.0133993,23.2280815 14.554599,24.9639191 C14.2800413,26.8144728 14.0711125,28.7592146 14.2830518,30.8561064 C14.6105943,36.317806 16.9479473,42.0958808 20.2679279,46.3210603 C20.5268309,46.7032465 20.791755,46.8282268 20.8477504,46.5849076 C20.9133793,46.3005322 20.7484038,45.8283843 20.4702335,45.4081607 C18.8072327,43.1373833 17.6873264,40.6027587 16.6547245,38.0403606 C15.8304493,35.4604532 15.1506782,32.7936029 15.0693946,30.2553556 C14.9790796,27.7315988 15.2566478,25.3322185 15.9027013,23.287251 C16.6047502,21.2766983 17.6499961,19.679124 18.9601662,18.4190568 C19.5875546,17.7174766 20.3522219,17.3220075 21.2102147,16.7248794 C22.3927395,16.1935622 23.5439551,15.4714538 24.7048043,15.0270794 C25.868664,14.7209682 27.010246,14.0755385 28.139786,13.9958409 L29.8214519,13.6589375 L31.4718086,13.5997681 C35.7997049,13.4228636 40.0246421,15.1587011 43.971409,18.1340776 L44.7390867,18.7106776 L45.6500643,19.495578 C46.9192916,20.8130032 47.1354456,20.8613048 47.7032261,20.4815337" id="Fill-20" fill="#89BF4E"></path>
                            <path d="M62.0439285,23.3045188 C62.5201897,22.6397685 66.1412204,19.7018257 67.0925387,19.0889996 C69.8573829,17.0053908 72.8895596,15.7217766 75.9108984,15.1807991 C78.9454835,14.7001985 82.1215621,15.0280454 85.3843431,16.2856974 C89.0384893,17.8512719 91.0236137,18.9483213 92.4427639,21.3368337 C93.242353,22.410336 93.6475664,23.843685 94.0612093,25.2830717 C94.3092746,26.8166464 94.4977319,28.4287112 94.3062641,30.1669638 C94.0106328,34.6940281 91.9020779,39.4831284 88.9060273,42.9861994 C88.6730145,43.3025747 88.4333786,43.4058193 88.3828022,43.204764 C88.3237964,42.9686901 88.4725151,42.5768437 88.7235909,42.2290724 C90.2240246,40.3465188 91.2349509,38.2454007 92.1663999,36.1213393 C92.9099937,33.9833913 93.5235338,31.7729909 93.59699,29.6688539 C93.6782735,27.5767923 93.4277998,25.5879753 92.8449668,23.8925903 C92.2115574,22.2261863 91.2686685,20.9021196 90.0861437,19.8575982 C89.5201695,19.2761681 88.8301626,18.9483213 88.0558618,18.4532302 C86.9889402,18.0124784 85.9503173,17.4141428 84.902663,17.0458433 C83.8526002,16.7922601 82.8224067,16.2573203 81.8030511,16.1909056 L80.2857585,15.9119641 L78.7961626,15.862455 C74.8915428,15.7157389 71.0796463,17.1551256 67.5182236,19.6215243 L66.8252062,20.0991061 L66.0033394,20.7499697 C65.4626535,21.2015893 64.6480119,21.7280764 63.8622711,22.6222591 C63.0765303,23.5170457 61.5676672,23.9692691 62.0439285,23.3045188" id="Fill-22" fill="#89BF4E"></path>
                            <path d="M64.3824857,3.41139797 C68.7218219,1.96959622 73.409172,0.941980403 78.3542211,0.812773714 C83.2824113,0.723415816 88.5146621,1.36824172 93.4627217,3.63600026 C98.4162001,5.76609933 102.891009,9.68275257 105.761221,14.3426462 C108.633841,19.0194453 110.014456,24.1339774 110.6003,28.7763617 C110.691819,29.2738678 110.80381,29.3402825 110.921821,29.0148507 C111.016351,28.6894189 111.027791,27.9848198 110.941691,27.5156908 C110.209537,22.8702877 108.757873,17.7587744 105.689571,13.1683143 C104.187933,10.868556 102.276867,8.80245653 100.173129,6.99175157 C98.0061698,5.27342335 95.657979,3.76822579 93.1755199,2.73517605 C88.2274603,0.573680961 83.0355502,-0.0910693436 78.1446902,0.00976017584 C73.2454008,0.159495031 68.6074229,1.16054499 64.342145,2.61442213 C63.5269013,2.90785415 62.8844604,3.30513453 62.8730204,3.52973681 C62.9127591,3.73682978 63.5359328,3.69335837 64.3824857,3.41139797" id="Fill-24" fill="#89BF4E"></path>
                            <path d="M85.6616705,55.8971477 C87.97795,53.2007128 89.7716065,50.3340148 91.5020425,47.3405253 C93.1843105,44.2353383 94.5047163,41.0057749 95.4746997,37.7653435 C97.4375464,31.3388201 97.3255558,24.4051303 94.1284036,19.9819144 C91.6977251,15.4282842 86.2872526,12.7892074 80.4378491,12.8292016 C79.5943067,12.8381128 78.9169439,13.0657339 78.9253733,13.3507131 C78.9338027,13.6326735 79.5967151,13.8687474 80.4005188,13.8596909 C83.2219604,13.9575016 85.83929,14.703157 88.0435789,15.8285835 C87.9376093,15.87447 87.8713783,15.9463185 87.8460901,16.0441292 C84.1979649,14.3547819 79.5051958,14.0528972 74.8413276,14.996589 C72.5045767,15.4717557 70.1654174,16.1884301 67.8756303,17.1435936 C66.7448861,17.6737033 65.5876495,18.125323 64.4888166,18.7580735 C64.4888166,18.7580735 62.6716781,19.7482556 62.3790574,19.9354241 C62.3790574,19.9354241 54.8762867,23.9686049 54.8847161,24.1068682 C54.8732762,24.2596219 54.0152834,25.2685208 54.9015749,25.2395399 L62.8179885,20.5108165 L63.6735729,20.0217632 L64.9596589,19.3455413 C66.101843,18.7351302 67.2723258,18.2315864 68.4379919,17.7364953 C70.7741407,16.7438982 73.1650806,16.0815629 75.5271197,15.6383961 C80.2343392,14.7581 84.9240977,15.1408899 88.3711214,16.9968776 C88.5890817,17.2275176 88.8847129,17.4171012 89.197805,17.6042698 C92.0680167,19.414371 93.9676429,22.3215215 94.6540371,26.2212692 C95.3627091,30.086602 94.8545365,34.6945715 93.3763805,39.2789939 C92.3630458,42.5170101 90.8650205,45.8757803 89.0370443,48.7134973 L87.6648579,50.8345398 L86.9850867,51.8935516 L86.1553927,52.8952054 C85.0186275,54.2108193 83.9794025,55.5717159 82.7800189,56.8414433 C77.9698403,61.9499377 72.2492862,66.3791913 66.3974742,70.7710112 C65.2233788,71.6229301 64.0697548,72.5008111 62.9245602,73.3901637 L59.3914362,75.9718824 C57.0637168,77.7421348 54.589687,79.3535958 52.0813375,80.9656606 C47.7871588,83.5528132 29.3839659,95.436206 24.7803077,98.7032032 C24.4991269,98.8958057 24.5105668,99.0225973 24.7863287,98.9966352 C24.992849,99.005088 25.4263612,98.8414664 25.6587719,98.6567129 C30.2654406,95.3873007 58.6881831,77.594815 66.8303843,70.8718408 C73.6588028,66.3677197 80.3920894,62.2518225 85.6616705,55.8971477" id="Fill-26" fill="#89BF4E"></path>
                        </g>
                    </g>
                </g>
            </g>
        </g>
    </g>
</svg>