<?xml version="1.0" encoding="UTF-8"?>
<svg width="259px" height="96px" viewBox="0 0 259 96" version="1.1" xmlns="http://www.w3.org/2000/svg" xmlns:xlink="http://www.w3.org/1999/xlink">
    <title>Group</title>
    <defs>
        <polygon id="path-1" points="0 0 53 0 53 57 0 57"></polygon>
        <polygon id="path-3" points="0 0 33.8489197 0 33.8489197 24.2143197 0 24.2143197"></polygon>
        <polygon id="path-5" points="0 0 24 0 24 38 0 38"></polygon>
    </defs>
    <g id="Homepage" stroke="none" stroke-width="1" fill="none" fill-rule="evenodd">
        <g transform="translate(-222.000000, -5410.000000)" id="Group">
            <g transform="translate(222.000000, 5410.000000)">
                <g id="Group-5" transform="translate(189.000000, 3.000000)">
                    <path d="M11.0962034,38.1392709 C-11.0725225,18.5758536 4.59967234,-0.771525037 18.1144532,2.44755032 C30.4510412,5.3867499 30.7571518,8.31452598 30.7571518,8.31452598 C30.7571518,8.31452598 35.3631174,-2.04322947 49.0698828,0.362425419 C60.7007529,2.4045442 69.0499182,21.8365912 26.1987664,52.098789" id="Fill-1" fill="#EDEFB8"></path>
                    <path d="M57.0009744,36.6182317 C53.5828508,38.9724809 92.0642745,87.7861081 46.7246435,90.925219 C23.2922134,92.5460122 27.5428246,67.351481 33.0368436,60.8488211 C40.9371577,51.5003655 57.0009744,36.6182317 57.0009744,36.6182317" id="Fill-3" fill="#B9E2F9"></path>
                </g>
                <g id="Group-15" transform="translate(193.000000, 0.000000)">
                    <g id="Group-8">
                        <mask id="mask-2" fill="white">
                            <use xlink:href="#path-1"></use>
                        </mask>
                        <g id="Clip-7"></g>
                        <path d="M32.5095455,6.75789837 C35.1342188,5.05771302 37.946697,3.69932448 40.8343629,3.15887941 C42.7876005,2.85904577 44.8613353,2.98155117 46.4983907,3.89289654 C48.1715625,4.75111112 49.2389646,6.42388505 49.8148561,8.21950278 C50.3766295,10.0357637 50.4816952,11.9667465 50.4363856,13.7268309 C50.4363856,14.6090728 50.3483931,15.4578118 50.312605,16.2628956 C50.239059,17.0595191 50.1701096,17.8145178 50.1044436,18.5275533 C50.4472205,16.6564696 50.7509261,14.7495141 50.7272863,12.8364671 C50.7210481,10.9345878 50.4754569,9.01138848 49.7633083,7.31458725 C49.0777544,5.60458793 47.7834759,4.26887304 46.1838502,3.56700512 C44.5576297,2.90743879 42.6828631,2.81200641 40.8343629,3.15887941 C42.6060338,2.89288704 43.589055,3.05735561 43.9410252,3.08815116 C44.2946371,3.12503815 44.0349277,3.08815116 43.2679479,2.99441085 C42.4934165,2.97647497 41.1771399,2.97647497 39.48197,3.41878036 C37.7917251,3.84619559 35.7491816,4.6945962 33.6143773,6.0093295 C33.4390489,6.16432252 33.0118911,6.41102537 32.5095455,6.75789837 M30.4246475,8.75351801 L29.9347785,9.06316562 L29.3651253,9.48415101 L28.2524135,10.2905884 C27.5199084,10.82325 26.811043,11.4151338 26.1504423,11.8750367 L26.0814929,11.8232595 C25.698003,11.2973662 25.2928432,10.7877167 24.8781619,10.2987104 C24.6151693,9.96503544 24.3160603,9.67772306 24.0110414,9.37450529 C23.860666,9.21815863 23.7027391,9.08583927 23.5211724,8.94370594 C23.3740804,8.83236816 23.223705,8.71798468 23.0749714,8.60326277 C20.9322872,6.61441139 18.1559253,5.18360254 15.1116457,5.14163937 C16.6252489,5.35280888 18.0886175,5.74976697 19.4705602,6.5159333 C20.1561141,6.90138535 20.8433096,7.3159409 21.5068654,7.8225447 C21.8525973,8.04691231 22.1625412,8.35013008 22.5007215,8.6147688 C22.6727666,8.7453961 22.8293802,8.89869705 22.9919038,9.05030594 C23.1846337,9.22763419 23.3770353,9.4066545 23.5727203,9.58601323 L22.8277386,8.93423038 C22.6162938,8.73558214 22.3752993,8.58397325 22.1533479,8.40495294 C21.7117435,8.03879041 21.2218746,7.7694139 20.7569587,7.45333645 C19.7900257,6.9159371 18.7991245,6.42557711 17.7520789,6.16263045 C15.6750607,5.57074666 13.4542339,5.65771872 11.3522626,6.30137966 C10.8390822,6.49021394 10.2865021,6.60798155 9.79039489,6.85806853 L8.2863133,7.59343931 C7.77608786,7.83235867 7.33940842,8.20325897 6.85118111,8.51155293 C6.39710016,8.85977959 5.99489541,9.27941133 5.555261,9.67298529 C3.94775534,11.3877224 2.85540009,13.6330906 2.25915207,16.0273604 C1.66585903,18.9549686 1.74892663,22.0267405 2.35929285,25.0206776 C2.81632877,27.125943 3.52847742,29.1164864 4.45962244,30.9472991 C2.96506244,27.2805976 2.24667552,23.2961265 2.4656719,19.3921977 C2.59733239,17.4402334 3.00708874,15.5143267 3.71628241,13.7332607 C4.42383443,11.9555789 5.47843169,10.3183383 6.88105917,9.12272625 C9.73425039,6.87566599 13.3980894,5.56093269 16.7349113,6.20290156 C18.3969198,6.52574727 19.9463109,7.26450217 21.3157771,8.27263358 C21.6664339,8.50512309 21.9780195,8.81307864 22.3096332,9.07433324 C22.6287703,9.37450529 22.8904497,9.59379672 23.4052718,10.1376259 C24.2878239,11.1054862 25.1831809,12.2493211 26.0237067,13.371836 L26.1238475,13.371836 L26.2381065,13.2703122 L26.4682661,13.0638804 L26.9298986,12.6493249 L27.8659686,11.8087078 C28.5104812,11.2103941 29.0850594,10.7762107 29.7111855,10.2391497 L30.1744597,9.85031354 L30.4029777,9.6601256 L30.5766644,9.53897386 L31.2684566,9.04861387 C31.7238509,8.7132469 32.1966467,8.40833706 32.6720691,8.11628691 C34.5629239,6.924059 36.5539195,5.9399549 38.5665848,5.31422984 C40.5634903,4.67361462 42.6263903,4.48342668 44.2808472,4.87869271 C45.1226863,5.05602096 45.7987186,5.4384273 46.3591786,5.9159276 C46.9038788,6.41102537 47.3875095,6.98700377 47.6941701,7.79208756 C47.2417308,6.45941838 46.4560361,5.45433269 45.1853974,4.86887874 C43.9426669,4.23333971 42.2570186,4.13824574 40.565132,4.3558451 C37.1344076,4.83977525 33.6347338,6.53522282 30.4246475,8.75351801 M17.474968,49.3728548 C16.9414311,48.7308859 16.1839728,48.0097285 15.3605202,47.298385 C14.4920863,46.5643679 13.6420389,45.8449025 12.8001997,45.131867 C11.0472437,43.6574029 9.25981295,42.1186404 7.54592824,40.3037331 C6.8964907,39.5778379 6.27036462,38.8373909 5.6977564,38.0373833 C5.11858156,37.2515891 4.66154564,36.4468437 4.15755847,35.6529275 C3.6913293,34.8400602 3.28255794,33.9930133 2.85999671,33.1639022 C2.50310156,32.29452 2.1212533,31.4410432 1.80999608,30.552033 C0.589263639,26.9919315 -0.154404726,23.1719291 0.027161987,18.9519228 C0.0944697199,16.865947 0.515717628,14.8270106 1.16187186,12.8621865 C1.8037578,10.8939783 2.87247327,8.98905324 4.37031657,7.35655042 L4.95901299,6.7612825 C5.17177109,6.58057012 5.4019307,6.41271743 5.62256873,6.23843489 C6.07008308,5.90442157 6.52876065,5.51896952 6.97496167,5.30272381 C7.88706353,4.81236382 8.73382764,4.23807748 9.76708343,3.88985083 C11.7029195,3.02351434 13.9972924,2.62824832 16.2525939,2.7798572 C18.5220137,2.92842037 20.7366022,3.70575432 22.6432169,4.86414096 C23.1235643,5.15111492 23.5963601,5.45128698 24.0330395,5.79477586 C24.2536775,5.96262855 24.4867921,6.11897522 24.6979086,6.29968759 L25.2741284,6.79173964 C25.5775057,7.07431424 25.8969712,7.39682153 26.1662021,7.74031041 C26.184917,7.7694139 26.2069151,7.80325517 26.2302266,7.84217263 C26.2601046,7.94031231 26.3116525,7.83235867 26.3586037,7.81442279 C26.4101516,7.77415168 26.4633411,7.73083486 26.5165307,7.68548756 C26.626193,7.59039359 26.7437353,7.47905582 26.8405928,7.3612882 C27.039561,7.12236884 27.2506774,6.80629139 27.072394,6.61610346 C27.7031167,6.15450855 28.3321978,5.69494411 28.9566822,5.2384254 C29.7926114,4.65770922 30.6328089,4.09154479 31.5140477,3.58798671 C33.2528856,2.55075181 35.0889092,1.67324771 37.0342668,1.0278947 C38.9733862,0.385925832 41.0284062,-0.0448735227 43.1944019,0.00351949198 C45.3403694,0.0228090153 47.6784102,0.718247094 49.5630267,2.22655245 C51.137371,3.5186121 52.106274,5.44959491 52.5288353,7.2919136 C52.9684697,9.15352181 52.9875128,10.9603072 53,12.6879039 C53.0029444,15.499775 52.3879815,18.1695127 51.5632155,20.6713977 C50.7194064,23.1736211 49.7255503,25.5641684 48.7349774,27.9323804 C48.556694,28.637294 48.1370878,30.1455994 47.8616186,30.6796146 C46.0305199,33.7801517 44.2463725,36.8289116 42.0879284,39.4566861 C39.9921954,42.141314 37.7277006,44.6641806 35.148337,46.8306987 C33.1153151,48.5261462 31.4812147,49.7569532 29.3368888,51.0571347 C29.2682678,51.3941938 28.7376858,51.6815062 28.1568694,52.1024915 C27.3321034,52.5881138 24.5462199,54.0091086 21.7586948,55.0869531 C18.9774079,56.1983003 16.2276408,56.9807105 15.6625842,57 C15.5532501,56.9969543 16.7395079,56.5468654 18.4688241,55.7756229 C20.2109453,55.0060724 22.5289579,53.8994629 24.7793345,52.6412446 C27.0441576,51.4168674 29.2180332,50.0100859 30.8051824,48.9325799 C32.3624535,47.800251 33.3500714,47.0307006 33.2371257,47.0259628 C32.9931762,47.0919533 30.2214109,49.1149843 27.1942046,50.8618706 C24.1876831,52.6429366 20.9621652,54.188129 20.4066302,54.3803474 C31.2776499,48.5904447 36.7587976,42.8557032 39.5853941,39.4956036 C42.3555177,36.0255199 42.7688857,34.891499 42.3305646,35.5466659 C42.2100673,35.7030126 42.0504987,35.9822031 41.7891477,36.31757 C41.5274684,36.6498913 41.2004513,37.0627548 40.8202447,37.5436392 C40.4321582,38.0147097 40.0407883,38.6018557 39.5210413,39.1585446 C39.0095025,39.724709 38.4552808,40.3392664 37.8698677,40.9876652 C35.4612359,43.5237299 32.2403146,46.2966834 29.2354347,48.4872288 C27.2756306,49.6957005 24.6338841,51.7315912 20.5770337,53.6656198 C21.7445766,53.0090991 23.4351498,51.8557887 24.9329931,50.7569627 C26.4213148,49.6212497 27.7625445,48.5968745 28.2478169,48.2259742 C28.8329017,47.7921291 29.3368888,47.4195367 29.7798066,47.0902612 C30.1961295,46.7386504 30.5579496,46.4337406 30.883325,46.1579342 C31.5156894,45.5998917 32.0163933,45.1965038 32.497069,44.7288174 C32.9836546,44.2672225 33.4971634,43.804274 34.2155503,43.207314 C34.9368922,42.6120461 35.7869396,41.7910569 37.0421468,40.7281026 C38.9983393,38.8695401 41.382018,36.0353338 43.1146176,32.9557784 C44.7313165,29.879607 45.9100226,26.4758522 46.6783158,24.3140719 C46.4343663,25.5110376 45.9802854,27.5208706 45.2855382,29.6166604 C44.5796279,31.6731943 43.6107248,33.7865815 42.4838949,35.181857 C43.0739046,34.4156907 43.6481545,33.755786 44.0286894,33.0671161 C44.413821,32.3781079 44.7391964,31.745953 45.0241872,31.1506851 C45.6079587,29.976393 45.8709513,28.8325582 46.2166832,27.751668 C46.7784566,25.5272814 47.407866,23.3025564 48.5392925,19.4889838 C48.714621,18.7712105 48.9103059,17.9275476 48.9838519,17.0097724 C49.2327263,16.1661096 49.3952499,15.3640715 49.5879798,14.352556 C49.7367135,12.7718303 49.7711882,11.2262995 49.5111505,9.81647227 C49.2547245,8.41307484 48.7648555,7.14504249 48.0211871,6.18361204 C46.5656985,4.23164764 44.0444493,3.58663305 41.1879748,3.98156066 C41.6716055,3.92504575 42.0114274,4.12673971 42.4792983,4.16565717 C44.8488588,4.30609843 46.5141506,5.05602096 47.6659336,6.54672886 C48.8384015,8.04352818 49.4001748,10.4922824 49.1591803,13.2445928 C49.123064,13.5092315 49.1214223,13.7995896 49.1279889,14.1075452 C49.1135424,14.4205769 49.1135424,14.747822 49.1168257,15.0818353 C49.1417788,15.7464778 49.1027075,16.433794 48.9838519,17.0097724 C48.5159811,19.3600485 47.6426222,21.350592 46.7035972,23.4108484 C47.3451548,21.2426383 47.9867125,18.8954079 48.4109153,16.528888 C48.8334766,14.172182 49.0120883,11.7521929 48.63024,9.72950021 C48.4204369,8.90681896 47.8990482,8.05503422 47.5001268,7.68717962 C48.1886357,9.051998 48.3826789,11.005316 48.2937014,13.0154874 C48.2480635,14.7820017 48.0087106,16.7918346 47.5657929,18.8564905 C47.3888228,19.8923717 47.0729689,20.9343444 46.8254078,21.9813932 C46.4983907,23.0169361 46.2324431,24.065677 45.8551915,25.0738084 C45.4953413,26.087016 45.1492811,27.0887176 44.7345998,28.0339042 C44.340275,28.9905969 43.9505468,29.9229238 43.4935109,30.6894286 C43.0348333,31.4748844 42.6733415,32.2671085 42.1585195,32.9026476 C41.6607706,33.5476622 41.1754982,34.1300704 40.712224,34.6349821 C40.6275148,34.7754234 40.5776086,34.9385383 40.3865203,35.2109605 C40.3116609,35.2546158 40.2239967,35.3287282 40.1330492,35.4190843 C39.7902722,35.8302558 39.405469,36.2756069 38.9983393,36.7128361 C38.7918195,36.9240056 38.5820164,37.1385592 38.3708999,37.356497 C38.1423819,37.5534532 37.9030291,37.7372113 37.6679445,37.9114938 C38.4083296,37.249897 38.9983393,36.4674869 39.6618951,35.7432837 C40.2348316,34.9625656 40.6935092,34.1009669 41.1974964,33.2606882 C41.4414458,32.8363187 41.7201984,32.429885 41.9516713,31.99604 L42.6014372,30.6701391 L43.2791111,29.3472839 L43.9160721,27.8758655 C44.3635864,26.8968376 44.7611946,25.8998738 45.165041,24.8995259 C45.9694505,22.8991685 46.6832408,20.8571863 47.2043011,18.8148657 C47.7490012,16.7742372 48.07766,14.7173648 48.0651834,12.8104093 C48.0461403,11.9620087 48.0760183,10.8909326 48.0070689,9.86655735 C47.9039732,8.86959356 47.661337,7.95181834 47.2919653,7.43878471 C46.7722183,6.67566409 46.1743286,6.15620061 45.4201537,5.79951364 C44.6672921,5.44147301 43.7092239,5.25940698 42.6326286,5.2705746 C40.4695879,5.27869651 37.9765751,6.04181712 35.6460859,7.14504249 C34.2372201,7.82762089 32.8552774,8.65030214 31.5360459,9.60361069 L31.038297,9.95522147 L30.7877809,10.1325497 L30.4312141,10.4344138 L28.9786804,11.6716506 C28.0206122,12.4638747 26.9344953,13.5897738 25.989232,14.3075471 C24.8748786,12.8686163 23.7480487,11.3846767 22.5256746,10.176205 C21.846359,9.48110529 21.0859458,8.92915419 20.3078027,8.40021516 C18.7285335,7.38869963 16.9476694,6.82084313 15.0978559,6.80967552 C14.6391783,6.84825456 14.1663825,6.79986155 13.7031083,6.89833964 L12.3040925,7.17888376 C11.3946172,7.51120502 10.452309,7.80325517 9.58551671,8.33253262 C7.78396779,9.2147745 6.3705054,10.5877148 5.33298132,12.3846862 C3.2841996,15.9820131 2.90399299,20.5942396 3.60990336,24.891404 C4.31088877,29.2376381 6.02641513,33.4122971 8.50859299,37.1402513 C8.83561007,37.5145357 9.16262715,37.8905122 9.48668926,38.2597205 C9.38819014,38.0566728 9.29100434,37.8597167 9.19546019,37.664791 C9.45713953,38.0519351 9.71849053,38.4421249 10.0015113,38.8082874 C11.8687263,40.792401 13.8564386,42.5298118 15.648466,44.3964962 C16.3389448,45.2174854 14.2054538,43.2347254 13.4463539,42.862133 L14.3055946,43.6770308 C14.3055946,43.6770308 14.1476677,43.7010581 13.9831741,43.7254238 C14.3683057,43.9751724 14.4796097,44.2591006 14.6703697,44.5301692 C12.4541395,42.7105242 10.1456484,40.7649896 8.13462466,38.3839179 C6.09667784,35.9771269 4.51117032,33.3188952 3.27796132,30.4132838 C3.27796132,31.2021238 4.10896557,32.8945257 4.53481011,33.6688139 C5.59892895,35.4610475 6.8403462,37.1209618 8.00132251,38.6664925 C9.74344364,40.6682036 11.6136136,42.5169521 13.443399,44.2415032 C14.330876,45.0804282 15.2150698,45.9176612 16.0884287,46.7433882 C16.9148363,47.5403501 17.7018443,48.3261443 18.2137114,48.9890948 C18.3233738,49.1308897 18.3453719,49.2422275 18.413993,49.3650713 C18.4750624,49.4841926 18.5423701,49.6053443 18.5361319,49.6828408 C18.5394152,49.761691 18.5955597,49.8665989 18.5660099,49.905178 L18.5236553,49.9457875 C18.5236553,49.9457875 18.4924639,49.9633849 18.5315352,49.953571 C18.6159161,49.9312357 18.702267,49.9102541 18.7882896,49.8940103 C18.2137114,50.0520491 18.6300344,49.9393576 18.5016572,49.9745526 L18.5016572,49.9762446 L18.5016572,49.9796287 L18.5032988,49.9860586 L18.5032988,49.9972262 L18.5049405,50.0215919 L18.5065821,50.0649087 C18.5065821,50.0923202 18.5065821,50.1166859 18.5049405,50.1407132 C18.5032988,50.1826764 18.4970605,50.2165176 18.487539,50.2391913 C18.4688241,50.2828465 18.440916,50.2845386 18.3985614,50.2506973 C18.3594901,50.2165176 18.3108972,50.147143 18.256066,50.050357 L18.2531111,50.0456192 L18.2514694,50.0425735 C19.3267515,49.7454472 18.5486084,49.9600008 18.7882896,49.8940103 L18.786648,49.8940103 L18.7708881,49.8973945 L18.7351001,49.905178 L18.6615541,49.9214218 L18.5065821,49.9616929 C18.3985614,49.9924884 18.2843024,50.0327595 18.1684018,50.0811526 C18.1542836,50.1552649 18.0229514,50.0537411 17.961882,49.9616929 C17.7990301,49.8070383 17.6910094,49.628018 17.474968,49.3728548" id="Fill-6" fill="#078337" mask="url(#mask-2)"></path>
                    </g>
                    <path d="M4.06250682,25.5234912 C4.60096868,29.1113425 5.90608204,32.6829501 7.71682422,35.9526935 C7.22564193,34.5570795 6.83427209,33.3506383 6.33816485,31.7776961 C5.6260162,29.6886746 4.91846418,27.502867 4.4867097,25.2382093 C4.07498337,22.9749052 3.92953301,20.6422265 4.24538685,18.4851841 C4.60884861,15.9978508 5.43197294,13.5846299 6.86415016,11.8066096 C7.52146763,10.863115 8.41649631,10.2130243 9.29313849,9.61301856 L10.8628862,8.79507509 C11.3872298,8.54837223 11.9319299,8.40793097 12.454632,8.19642304 C14.5940329,7.51418305 16.706839,7.72230686 18.6571216,8.55615573 C19.6260246,9.00793667 20.5742428,9.57579316 21.4430051,10.3192858 L22.2112982,11.00491 C22.651261,11.4228496 23.0534657,11.9358833 23.4793103,12.4005239 C24.3119562,13.3795518 25.1649586,14.4492743 25.9457283,15.4266102 C26.7550627,14.7345562 27.6189,13.8621283 28.4656641,13.074642 C29.2950267,12.297308 30.0337701,11.661769 30.830628,10.9372274 L31.1248121,10.6742808 C31.2124763,10.5967842 31.2531892,10.574449 31.3188553,10.5209798 L31.6803471,10.2468655 L32.4020173,9.69525284 C32.888603,9.33552015 33.3925902,9.01436651 33.8841008,8.6674935 C34.4192793,8.36427573 35.5822256,7.68981924 36.4211098,7.14802052 C34.9045517,7.82856844 33.4457797,8.74194429 32.0372422,9.72435633 L30.9714818,10.4999982 L29.3436196,11.9162553 C28.2982156,12.7859759 27.0367702,14.0861575 25.9644431,14.9636616 C25.0552962,13.8184731 24.0880348,12.5392731 23.130295,11.4824103 C22.8893005,11.2116801 22.6574993,10.9277519 22.4040282,10.6935703 L22.1065608,10.4258858 L21.9125176,10.2421277 C21.6590465,9.98865664 21.3711007,9.79508459 21.1031831,9.56293348 C19.9967097,8.70607255 18.7838572,8.06579574 17.5145318,7.69489543 C14.9791644,6.8915037 12.1571646,7.51418305 9.56532439,8.96597349 C7.02043543,10.227576 5.30687905,12.8167715 4.43023687,15.83812 C3.57559283,18.8642063 3.52732826,22.2293821 4.06250682,25.5234912" id="Fill-9" fill="#078337"></path>
                    <path d="M47.3826502,11.4784508 C47.5596203,13.4740705 47.3153424,15.7678317 46.7627624,17.9150602 C47.5172656,16.0226564 47.9913747,13.3109555 47.8974723,11.3430858 C47.8006148,9.96709976 47.4985508,8.72140264 47.0132785,7.82291695 C46.5171712,6.92443126 45.9396381,6.3389773 45.084994,5.98905858 C45.9005667,6.44693095 46.3543194,7.09228395 46.7424059,7.98264774 C47.1196575,8.88113343 47.3386539,10.0943429 47.3826502,11.4784508" id="Fill-11" fill="#078337"></path>
                    <path d="M36.4207815,7.14781748 C36.9746749,6.8977305 37.5351349,6.66727146 38.0969082,6.46219337 C40.6542737,5.52512863 43.3994442,5.23138641 45.0850925,5.98807719 C44.2445667,5.4977172 43.0208793,5.22326451 41.6497715,5.27334959 C40.2786637,5.31700482 38.7919837,5.65067973 37.3190935,6.18638702 C37.4300691,6.43816606 37.0061946,6.76879526 36.4207815,7.14781748" id="Fill-13" fill="#078337"></path>
                </g>
                <g id="Group-25" transform="translate(220.000000, 37.000000)">
                    <path d="M35.067163,37.1841507 C34.7894937,34.6267739 34.0544476,32.2482226 33.2290515,29.9960415 C32.1848956,26.8933316 30.9163537,23.7708657 29.7034119,20.9570018 C28.4696201,18.1267881 27.3321355,15.6865846 26.1708224,13.7981859 C27.2814998,16.5047544 28.4553891,19.0444191 29.6828929,21.7251005 C30.8974894,24.3894321 32.1531241,27.1011099 33.2290515,29.9960415 C32.27326,27.2227114 32.0902431,26.8688069 32.5350436,28.0929961 C32.9437702,29.3287664 34.0875429,32.1296868 34.8682604,36.1142625 C34.9536462,36.2845726 34.9960082,36.6922951 35.067163,37.1841507 M35.6665184,39.530343 C35.5483683,40.1962556 35.3951372,40.8553558 35.2011989,41.4786909 C34.9457033,42.0877199 34.7547436,42.7045832 34.429748,43.2713753 C34.2655955,43.6903382 34.1110405,44.107598 33.932657,44.516683 C33.6616067,44.9972981 33.4531065,45.5446749 33.2356705,46.1193013 C31.9433001,48.1068204 30.3011126,49.7387321 28.4947725,51.0569325 C30.5046485,49.9965816 32.5664841,48.428366 33.995869,45.6826261 C32.2762385,49.2921789 29.3751068,51.6935517 26.3650916,53.1483408 C24.8456876,53.8707964 23.2839216,54.3919454 21.698327,54.6566073 C20.1286182,54.9764497 18.5370664,55.0057431 16.9908552,54.9246755 C15.1213032,54.9781528 13.2692917,54.6276546 11.4328349,54.0996932 C11.1065155,54.0104507 10.7815199,53.9229113 10.4611577,53.8336688 L9.51463282,53.5056515 C8.87258451,53.3220572 8.27786243,53.029805 7.66096652,52.7893271 C11.186937,55.0738671 15.5111655,56.2381072 19.9237584,55.6488341 C24.3204656,55.0755702 28.7029418,52.9306845 32.0379526,49.3684779 C33.694702,47.5822652 35.1002583,45.4131955 35.900171,42.8541155 C36.0689569,42.2045527 36.3009548,41.5648678 36.3684692,40.8730681 C36.4760288,40.1897839 36.5706813,39.4932154 36.5627384,38.8371808 L36.5832575,37.8286043 L36.5233551,36.8496616 C36.4932384,36.1854521 36.4111621,35.5508766 36.313531,34.9173229 C35.5136182,29.8580903 33.7734687,25.4221927 32.1752979,21.070769 C32.9626345,23.9966969 33.8585236,26.8899254 34.6111101,29.9102052 C35.3557538,32.9056197 35.9789378,36.1418528 35.6665184,39.530343 M2.5811729,42.0812481 C2.19759867,43.4239732 3.25002839,45.5933836 5.05305892,47.1357121 C6.40665563,48.4007757 7.89594297,49.5874967 9.56990193,50.5681424 C11.2388966,51.5392507 13.1289677,52.310415 15.1908033,52.5021842 C17.2387388,52.7194999 19.2089005,52.3901201 21.1635074,51.6543804 C23.2081334,51.1090474 25.2971071,50.0098658 27.0875615,48.428366 C28.8829801,46.8628753 30.3990746,44.7782793 31.0709087,42.4838613 C31.1215444,42.3653254 31.2128874,42.189906 31.2840422,41.9920056 C31.334347,41.7906991 31.3849828,41.568274 31.41179,41.3601551 C31.4779805,40.9428952 31.3929257,40.6036375 31.0427777,40.6346339 C31.4733472,38.5967029 31.208254,35.9534898 30.5172247,33.4059909 C29.8420811,30.8305611 28.8386324,28.26535 27.6399216,25.7679223 C26.6930658,23.6424519 26.2734177,21.1470679 25.3649524,18.9582421 C23.5788005,14.9007737 23.6688196,12.9180232 22.9132545,10.4355827 C22.8831378,10.4062894 22.8483878,10.3817647 22.8073497,10.3575807 L22.7428139,10.3282874 C22.7113734,10.3541745 22.6590828,10.453295 22.6180447,10.5118817 C22.5346446,10.6433611 22.4492588,10.7779061 22.3688373,10.9046168 C22.2129585,11.1450947 22.0881894,11.326986 22.0219988,11.3627511 C21.5487364,11.5654201 20.9728786,12.0313886 20.4460019,12.5610531 C20.1822325,12.8287807 19.9283918,13.1128579 19.6950701,13.3969352 L19.338303,13.8468946 L18.7657548,14.5417599 C17.2652151,16.4138088 15.9086398,18.367266 14.4918311,20.2621365 C13.337137,21.7135194 12.5120718,22.8876374 11.3636658,24.2061784 C11.4851254,24.5273833 11.1727061,24.8131637 10.9393844,25.2648262 C10.5243696,25.7808658 9.0225061,27.3412472 7.62158314,28.864501 C6.22860306,30.3891173 4.99481124,31.8926151 4.65095134,32.0728032 C4.56556553,32.1167432 4.97594693,31.3779379 5.63222622,30.2378819 C5.99495042,29.6779022 6.42254136,29.0201645 6.88157282,28.3106525 C7.37535431,27.6140841 7.90388583,26.87051 8.43241736,26.1235298 C10.6064459,23.1618367 13.03597,20.3268543 12.8165483,20.3026703 C12.6318767,20.3643226 10.991344,22.2057156 9.41038271,24.1670071 C7.82644289,26.1252329 6.33881032,28.2132351 6.08166004,28.5364837 C8.27620767,24.6980341 10.4422934,21.7005758 12.1728452,19.3073779 C13.9302043,16.9237174 15.3029963,15.1344392 16.3173664,13.833951 C18.2766066,11.2959895 19.093729,10.3041033 18.5701617,10.795959 C18.3477615,11.0020342 17.7623061,11.6321817 17.181815,12.3011599 C16.5745167,12.9895534 15.829873,13.8939002 15.0014983,14.9021361 C13.3546775,16.9301891 11.4550087,19.453504 9.91376183,21.738044 C8.76039153,22.9932297 7.58981168,25.1898897 5.70470487,27.8559244 C6.59927013,26.1218267 8.28878387,22.2837177 8.89475834,21.5398031 C11.3980849,17.8995944 10.6474841,18.0961323 14.1085878,14.4767014 C14.6923885,13.8697162 15.3499916,13.1615666 16.0300994,12.3774588 C16.3772689,11.9796144 16.7383383,11.5671232 17.1076816,11.1450947 C17.5855773,10.6140678 18.0730707,10.0735034 18.5622189,9.52612666 C19.5607033,8.40923285 20.627364,7.26100197 21.6953485,6.1212866 C22.2427443,5.54155092 22.7775639,4.97646192 23.2948431,4.42942579 C23.561591,4.15011718 23.8250293,3.87591788 24.0805249,3.60784974 C24.3346966,3.35783447 24.6282516,2.98110847 24.7828066,3.03628895 C25.1551284,4.15352339 25.480124,5.132466 25.7544838,5.95574515 C25.4529859,5.4216526 25.0366473,4.67944106 24.5650397,3.84492144 C24.4041966,3.78974095 24.0649701,4.32383351 23.7982222,4.62255748 C23.5268409,4.95874967 23.2491716,5.30141365 22.9685236,5.6471432 C22.4429707,6.28682804 21.9131154,6.93468777 21.3988148,7.56313214 C20.403309,8.76313729 19.5355509,9.75672658 18.7545024,10.4696448 C20.0783134,9.38817546 20.9808215,8.50017846 21.8436153,7.52259833 C22.272861,7.03857694 22.686221,6.54024951 23.1088476,6.01739742 L23.7525507,5.21523672 C23.9686628,4.95057478 24.2258131,4.56567389 24.3439632,4.66479439 C24.7149613,5.28506387 25.1203784,6.03034099 25.5823884,7.17039698 C25.8223291,7.74161715 26.0731913,8.41229843 26.3336511,9.19810936 C26.5841823,9.98732649 26.8539088,10.8364928 27.1570615,11.79602 C27.2785212,12.1580994 27.4251333,12.5412972 27.5909406,12.9473165 C27.7471503,13.3240425 27.9599529,13.8632444 28.113184,14.1132596 C28.2753509,14.765888 28.428582,15.3827513 28.6208655,16.1556187 C30.3044221,20.8238193 32.5446412,24.6006167 34.1315596,29.4455992 C33.9627737,29.042986 34.1884835,28.6499102 34.0670238,28.2231131 C33.0493441,23.9122231 30.935549,20.9116993 29.5045093,16.7111703 C29.2741662,15.8861881 28.4236177,14.9590197 28.113184,14.1132596 L27.9930482,13.7804736 L27.8510694,13.3305143 C27.7643598,13.0283841 27.6759954,12.7282977 27.5909406,12.4292331 C27.4234785,11.8300821 27.2738879,11.2261624 27.1252901,10.6106616 L26.2562082,6.4476008 C26.7072968,7.61354393 27.153752,9.04891769 27.6240359,10.3688212 C27.8590123,11.0231527 28.0956435,11.683956 28.3339295,12.3515717 L28.6887108,13.369345 L28.8323443,13.7607177 L28.9587683,14.0870319 C29.6226595,15.8310076 30.2915149,17.6121109 31.0189491,19.3026092 C31.3406351,19.9910028 31.9985692,20.7134583 32.3914101,21.1940735 C31.7811332,19.6173423 31.1688707,18.0358425 30.5552843,16.4465084 C30.2223458,15.6719379 29.8721978,14.8616023 29.5124522,14.0253796 L29.2314733,13.403407 C29.0990922,13.0610837 28.9650564,12.713651 28.8310205,12.3662183 C28.5626178,11.6744186 28.2895818,10.9761471 28.0168768,10.27481 C27.742186,9.62354406 27.4866905,8.82002088 27.2295402,8.08121554 C26.9770232,7.348882 26.7248373,6.61484535 26.4739751,5.88898358 C26.0099793,4.50572473 25.5542574,3.14017813 25.1107807,1.82027464 C25.0303592,1.86387403 24.9562258,1.88499249 24.871171,1.94357917 L24.5776159,2.23583135 L24.0034129,2.80739214 C23.6294363,3.17594326 23.2617478,3.53802259 22.9006783,3.89363013 C22.1828418,4.59667034 21.4997554,5.24453006 20.8434761,5.85355908 C19.5292628,7.0648047 18.3335305,8.11527757 17.1801602,8.97432185 C17.0507577,9.1398633 16.9200314,9.30370164 16.656262,9.63512515 C16.5632643,9.67736206 16.4467689,9.75842968 16.3266331,9.86061576 C16.1373281,10.052385 15.9387565,10.2502853 15.7335658,10.4567012 C15.5677585,10.6157709 15.3943392,10.7748405 15.2146319,10.9308446 C14.8515767,11.240809 14.471312,11.5460048 14.072183,11.7994262 L15.7683158,10.1658115 C15.829873,10.0636254 16.0711376,9.78261372 16.2227139,9.59118513 L16.7575336,8.95456588 L17.8883991,7.66531821 C18.6648142,6.7871992 19.4852461,5.92168313 20.3321541,5.06093575 C21.1793931,4.18758541 22.0471512,3.3431878 22.9337736,2.48107794 L24.2731394,1.19523647 L24.9532472,0.550442332 L25.2954524,0.225831229 C25.4043358,0.131479418 25.5006431,0.0762989371 25.6029075,0 C26.0635937,1.63838343 26.5275894,3.28971042 26.9945637,4.944103 L27.7107455,7.4868332 C27.9490314,8.33123081 28.1873174,9.22433712 28.4395034,9.93691469 L29.1920899,12.2020394 L29.5644118,13.3012209 L29.815274,13.944312 C30.1545005,14.8033563 30.4983604,15.6525226 30.886568,16.4870422 C31.5332496,17.7565339 31.9135143,20.1953749 32.6124865,21.4897319 C34.5088457,25.3329502 36.2883786,29.6390715 36.9949627,34.5487718 C37.3216131,36.7539473 37.4887442,39.0902617 37.0058842,41.5958643 C36.5137574,44.0084775 35.4851563,46.1339479 34.2182692,47.9589913 C31.6643069,51.610781 28.1446245,54.1746297 24.3426394,55.613069 C22.4525683,56.3549399 20.4599019,56.7578937 18.4927188,56.8566735 C17.5130987,56.9493223 16.5285143,56.8471362 15.5677585,56.7950213 C14.6056788,56.6264143 13.6574992,56.510944 12.7453935,56.2088138 C11.8210425,55.9880919 10.948651,55.5871819 10.0825477,55.2475835 C9.24325158,54.8143145 8.40395542,54.4246449 7.63581411,53.8953211 C6.0770267,52.9047973 4.66021802,51.721142 3.50850248,50.3555954 C3.25002839,50.1542888 2.98791382,49.9546853 2.7688231,49.7176136 C2.82409221,49.8685084 2.87141845,50.0241719 2.92966614,50.1689355 C2.7499588,49.9042735 2.58580624,49.6297336 2.41999892,49.3650717 C1.16734279,48.0921738 0.206586984,46.5072677 3.59511452e-05,44.8627531 C-0.00456086515,44.1675472 0.432296753,45.93741 0.946597312,46.2412433 C0.76523521,45.9149291 0.717908968,45.5542123 0.700368473,45.560684 C0.700368473,45.560684 0.856578167,45.5528498 1.01609739,45.5446749 C0.850290065,45.3351934 0.946597312,45.1141309 0.97042591,44.9080556 C2.24823444,47.9361697 5.31351873,50.548727 8.6485295,52.0832213 C8.53799128,51.8022096 8.23053619,51.5733128 7.90057631,51.3686 C7.58517834,51.1349345 7.23966368,50.9383966 7.03314917,50.7827332 C5.94927894,50.258178 4.94285166,49.5680813 4.21541753,48.751274 C3.1001068,47.7512129 2.26378922,46.4473186 1.83321971,45.1774862 C1.37418825,43.8964135 1.41688116,42.7468201 1.61710757,41.8928851 C1.65483618,41.7273437 1.77331726,41.5829207 1.88517929,41.4497382 L2.18502247,41.0730122 C2.30350355,40.9074707 2.38557983,40.8894179 2.43422988,40.9738917 C2.45971324,41.0161286 2.47692279,41.0842526 2.48486565,41.1734952 C2.51001806,41.2256101 2.54145857,41.2743188 2.56197764,41.3325648 C2.67880396,41.568274 2.60136102,41.823058 2.5811729,42.0812481" id="Fill-16" fill="#035D9C"></path>
                    <g id="Group-20" transform="translate(4.151080, 33.785680)">
                        <mask id="mask-4" fill="white">
                            <use xlink:href="#path-3"></use>
                        </mask>
                        <g id="Clip-19"></g>
                        <path d="M6.19510436,22.0384711 C3.80827319,20.8095132 1.63722321,19.2116636 0,17.2616127 C0.490471962,18.1806061 0.944870075,19.0703062 1.80303053,19.952172 C4.18522836,22.2983644 7.82934899,23.4626044 11.358629,24.0225841 C16.4970013,24.8036263 22.1840932,23.176824 26.6330909,19.5379778 C28.8574242,17.7146376 30.8246073,15.3878606 32.1957445,12.5188162 C32.9039834,11.1011547 33.3739363,9.49717394 33.6754343,7.82779407 C33.8948559,6.09063078 33.9120655,4.40864796 33.6942986,2.87415371 C33.6863557,2.23276577 33.467265,0.928871435 33.1359813,0 C33.4609769,1.85263357 33.6817224,3.79144406 33.593358,5.83073752 C33.4546888,7.98073257 32.8943858,9.97778912 32.1057254,11.7670673 C31.2836388,13.5416988 30.2189638,15.0922022 29.0450745,16.4839766 C27.8162469,17.8168237 26.5288408,19.052594 25.0709939,20.0138243 C22.2347289,22.0337024 18.9483682,23.2125891 15.665317,23.6165647 C12.3620777,24.0130467 9.04725508,23.365187 6.19510436,22.0384711" id="Fill-18" fill="#035D9C" mask="url(#mask-4)"></path>
                    </g>
                    <path d="M32.082929,17.2692425 C31.7059739,16.4313167 31.3051901,15.5920284 30.9643088,14.7575088 C30.7971776,14.3351397 30.6283917,13.919583 30.4642392,13.5053887 L30.3460891,13.1937212 C30.3033962,13.0785915 30.2795676,13.0281798 30.2054341,12.789405 C30.0776864,12.3932636 29.9532482,11.9988253 29.828479,11.6074527 C29.9674791,12.2260191 30.1124364,12.8721757 30.2607032,13.5397914 C30.3649534,13.9863445 30.4893916,14.4472037 30.6234275,14.9101067 C30.8901754,15.8386375 31.23569,16.7722776 31.5305689,17.6037316 C32.4913247,19.9093901 33.5060258,22.224586 34.4618173,24.605181 C33.7552332,22.1176313 32.9821276,19.6917338 32.082929,17.2692425" id="Fill-21" fill="#035D9C"></path>
                    <path d="M37.2870947,33.7852715 C37.165635,33.2106451 37.0458302,32.6356782 36.9227157,32.0528769 C36.3137627,29.427376 35.4112546,26.9820632 34.4614202,24.6048744 C35.2030853,27.2320784 35.8924599,29.9226378 36.4319128,32.8240412 C36.7380441,32.7266238 37.032923,33.1619365 37.2870947,33.7852715" id="Fill-23" fill="#035D9C"></path>
                </g>
                <g id="Group-38" transform="translate(214.000000, 43.000000)" fill="#20A7DF">
                    <path d="M11.400739,45.4240362 C10.8274733,45.0877967 10.2685992,44.710681 9.71657831,44.316094 C9.21698394,43.8746973 8.65982315,43.4646169 8.20888612,42.9615762 C11.6292915,46.9954614 17.0799414,49.3290295 22.4277941,48.9014779 C18.5143049,48.9047744 14.5857388,47.5736615 11.400739,45.4240362 M37.2884993,28.6229391 C35.81987,26.1509194 33.708073,23.5361628 31.9211151,20.4737461 C31.0209543,18.9494603 30.1865838,17.3341921 29.4875628,15.6447534 L28.9776887,14.3686915 C28.8879125,14.158377 28.8142412,13.9414695 28.7426258,13.7229139 L28.590486,13.2656941 C28.4681573,12.9123129 28.3848916,12.6278279 28.3129335,12.2915884 C28.2180175,11.9349108 28.1577098,11.5624102 28.1021993,11.1727679 C28.0583392,10.9842101 28.0761573,10.7656544 27.9781573,10.5896231 C27.8489755,10.4215034 27.6204231,10.4402932 27.4439546,10.4686429 C26.7024442,10.6212692 26.0294652,11.0171748 25.3091995,11.4569233 C25.3239338,11.4977995 25.3369548,11.5419721 25.3400387,11.5920784 C25.3434652,11.8185456 25.2355282,12.003807 25.0689967,12.0525947 L24.7064653,12.1861015 L24.5968149,12.2365374 L24.4189758,12.3512545 L24.0564444,12.5836553 C23.5777521,12.9011049 23.0959759,13.2218511 22.6237941,13.5610574 C21.0297523,14.9689779 19.5367944,16.5011752 18.1596546,18.1134766 C19.280144,16.8374147 20.4708782,15.6289304 21.7352837,14.5259329 C22.0947312,14.1755186 22.5192836,14.0373967 22.6368151,14.2226581 C22.7543466,14.3970411 22.5552627,14.8199777 22.1858781,15.1779738 C18.9063049,18.2578618 16.018389,22.3797626 13.0585151,25.2994423 C11.7519628,27.5324682 10.6280468,29.8360385 9.69704684,32.1771885 L9.52057833,32.6156184 L9.43388603,32.8341741 L9.39962029,32.9914155 C9.35884407,33.1954668 9.31327065,33.3935844 9.26084408,33.5884055 C9.18408884,33.7739965 9.22657835,33.9968376 9.2053336,34.1949552 C9.21184408,34.4009843 9.15324968,34.5895421 9.19573919,34.7998567 C9.27420772,35.2178485 9.26598394,35.6154023 9.4373126,36.0317459 C9.50927064,36.237775 9.54010979,36.4388594 9.63022867,36.6415921 L9.91908879,37.245175 C10.6900677,38.8462684 12.158697,40.2479256 13.7722703,41.1940113 C15.3961233,42.1493271 17.2156337,42.6507195 18.8603888,42.6583014 C18.9926545,42.6490713 19.1283468,42.7087373 19.1725496,42.801368 C19.2376545,42.8864168 19.1920811,42.9741028 19.0694098,42.986959 C17.289305,43.1629903 15.201494,42.7496135 13.2856969,41.7250719 C12.3074103,41.231591 11.4432285,40.543289 10.6215363,39.771916 C10.2816202,39.3585392 9.83102586,38.9609854 9.56135455,38.4942058 C9.40955736,38.2664201 9.2382287,38.0386343 9.09259934,37.8012887 L8.72835461,37.0658472 C8.30037562,36.0742703 7.99027075,34.9884145 8.09957843,33.9200299 L8.10608892,33.5083014 C8.13076025,33.3761131 8.1681099,33.2459027 8.19757843,33.1137144 C8.26782318,32.8420856 8.29900499,32.5951804 8.3952917,32.283994 C8.64851546,31.6194265 8.89180215,30.9469475 9.17278115,30.2836986 C10.2720258,27.6280657 11.6210677,25.0166056 13.2154522,22.5149177 C13.6139626,21.9113348 14.002536,21.3034665 14.4274311,20.7236182 C12.9916969,22.2604305 11.6210677,23.9119599 10.3309629,25.7016111 C10.3357601,25.9623616 10.2377601,26.3223357 10.0400468,26.6994513 C9.59733357,27.6280657 9.15496297,28.5520651 8.75610985,29.4948543 C8.81333363,29.4744162 8.86747348,29.4730976 8.9130469,29.4918875 C9.08129165,29.5782549 9.04222871,29.9774569 8.83457838,30.3812739 L8.01459942,32.1191707 C7.89706796,32.3957442 7.84155748,32.6268264 7.7466414,32.8813136 C7.66337567,33.1295375 7.5523547,33.371498 7.53762044,33.6388414 L7.41529177,34.4197742 C7.37451555,34.6805246 7.41700506,34.952483 7.407068,35.2178485 C7.36457849,35.7505574 7.51500505,36.2911778 7.58182323,36.8334464 C7.59484421,36.8835527 7.59964141,36.9339886 7.59964141,36.9840949 C8.03104697,38.2964179 8.72835461,39.531274 9.59253636,40.6550391 C10.4875573,41.7675963 11.5754943,42.7258789 12.7384732,43.5635109 C15.1377597,45.1444959 17.9311022,46.126513 20.6915495,46.1044267 C26.3234652,46.1894755 32.0078074,43.0120122 35.0358701,38.5963963 C35.0735624,38.4440996 35.2205624,38.2680683 35.3432337,38.2192806 C35.4802966,38.1579663 35.5587652,38.2271921 35.5210729,38.3811371 C35.5830938,38.4141017 35.6975414,38.4378363 35.6762966,38.4849757 C34.0640939,42.2215197 30.7108494,45.7573089 25.8351785,47.2232472 C25.0052625,47.510699 24.1379968,47.6208009 23.2772416,47.8014473 C22.409976,47.8690248 21.5293466,48.0167065 20.6668782,47.9570405 C21.554018,48.1518616 22.4589759,48.1488948 23.3440598,48.26526 C24.2195492,48.2573485 25.1049757,48.3658022 25.939689,48.324926 C30.606339,47.067654 34.5345624,44.1746756 37.6332126,40.8828249 L37.4272755,40.9645773 C37.6558279,40.6392161 37.982723,40.4081339 38.1314363,40.4915344 C38.2962545,40.547904 38.2112755,40.8937033 37.9744992,41.2424693 C35.6615624,44.9463783 31.8868494,47.925724 27.4127728,49.5034125 C25.1635701,50.2843453 22.760857,50.677284 20.2731649,50.6047618 C17.7823889,50.5279541 15.3012073,49.9101964 13.0472074,48.8464269 C10.7932076,47.7810092 8.74480216,46.2900177 7.077089,44.4245477 C5.41588633,42.5627039 4.06855776,40.3375895 3.45108928,37.7666758 C3.34315222,37.1129867 3.18792846,36.467209 3.14715224,35.7960486 C3.15537601,35.1189545 3.06217322,34.4415308 3.18621517,33.7581735 C3.29894943,33.0777829 3.34486551,32.3799211 3.60768367,31.7249134 L3.94931301,30.73004 C4.06992839,30.3796257 4.18266265,30.1894196 4.29882348,29.9115276 C5.21508914,27.8466214 6.22113102,25.8146799 7.3203757,23.8252628 C9.06313081,20.6606557 11.0673335,17.6592236 13.3298997,14.8404157 C14.4651234,13.4338138 15.6623681,12.0730327 16.9377386,10.7656544 C17.5733679,10.1119653 18.2316126,9.47409913 18.9111021,8.85007816 C19.610123,8.21517886 20.1768782,7.69532621 21.309018,6.79637999 C22.5110599,5.80315486 23.6315493,5.45438878 23.7199549,5.88820368 C23.8063045,6.32795221 23.0630808,7.25821485 22.1012417,8.07870518 C21.2305495,8.79667542 20.6555705,9.33564757 20.0038363,9.95472384 C19.3668363,10.5629218 18.7493678,11.1852945 18.1531441,11.8248089 C16.9558994,13.0975743 15.8306128,14.4224239 14.760494,15.783205 C12.6305361,18.5156454 10.7359838,21.405657 9.03400494,24.419286 C8.29900499,25.7533657 7.58353652,27.0907418 6.9365995,28.4548194 C6.28143871,29.828127 5.63484436,31.1196823 5.16917306,32.7098974 C5.40286535,32.1363123 5.6088024,31.512621 5.88806811,30.9970538 L6.73580231,29.4556264 C7.3251729,28.4406446 7.94778124,27.4474194 8.60431266,26.4808957 C10.2213125,23.3146403 12.1912495,20.2505754 14.5531863,17.3938581 C17.2204309,14.1755186 20.1785915,11.3267129 23.3653045,8.82337679 C24.9709967,7.62148537 26.5585281,6.43014265 28.4647307,5.65085814 C28.9351992,5.46856358 29.4628915,5.30341065 29.9789334,5.3993378 C30.5491152,5.55328275 30.508339,6.18356701 30.6436886,6.61573367 C30.8674438,7.5614897 31.0915417,8.51713512 31.4458494,9.47706595 C31.5993599,9.91088085 31.7398494,10.3664524 31.9228284,10.8223536 C33.5511359,14.9485398 35.8770938,17.8306398 38.3630726,20.6089012 C39.6045201,22.0089102 40.8949676,23.3917776 42.1199675,25.0934132 C43.3288625,26.7795555 44.4966386,28.9229175 44.9523728,31.5409706 C45.0390651,31.9965422 45.0047994,32.5137576 44.8708204,32.6927557 C44.7385547,32.8450525 44.5768204,32.7023155 44.493212,32.2417992 C44.0720862,29.773076 42.9940863,27.6330104 41.8033521,25.9168704 C40.6057648,24.1789736 39.2974991,22.7443517 38.0430307,21.2922585 C36.7854784,19.8434618 35.553968,18.3775235 34.4105205,16.7652221 C33.8663807,15.9496765 33.280094,15.1245711 32.7935206,14.2322178 C32.2723388,13.3695327 31.7854228,12.3733408 31.3886256,11.5465872 C31.1306047,11.0517876 30.9524229,10.559955 30.7615627,10.0931754 C30.4250732,9.30729797 30.2026886,8.54383649 29.9919544,7.79422018 C29.8548915,7.45468421 29.9021782,6.95362141 29.433423,6.82308137 C29.0006468,6.71792411 28.5497098,6.90318548 28.1546259,7.05877867 C26.5489337,7.76916704 25.2567729,8.79206037 23.9515912,9.79154879 C23.6284654,10.0569143 23.3115074,10.2988749 22.9815284,10.5866563 C22.5977522,10.9103693 22.2170599,11.237049 21.8428781,11.5749368 C21.0869761,12.2411525 20.3516334,12.9390143 19.6214307,13.6461062 C18.1678784,15.0682015 16.7616127,16.5687527 15.4238786,18.156001 C15.041473,18.6257474 14.6642073,19.0908787 14.2886549,19.55601 C15.6801863,18.1322665 17.1354519,16.8014832 18.6301231,15.5755276 C20.832039,13.1951497 23.799794,10.6321476 25.4020596,9.68441365 C26.3625281,9.1157733 27.3000385,8.50592714 28.3914021,8.40538493 C28.6542202,8.38329861 28.9811153,8.52471699 29.0071573,8.83293654 L29.1428496,9.65771228 C29.2261153,10.2032774 29.3306258,10.7326898 29.4711153,11.2495756 C29.5756258,11.6725122 29.6835628,12.0980859 29.8336467,12.5131109 C29.9480943,12.8477022 30.2352411,13.7278586 30.5408914,14.4049526 C30.838318,15.115341 31.1340312,15.8240811 31.4900522,16.5011752 C32.156178,17.8744828 32.9223598,19.1851576 33.7097863,20.448693 C35.2760729,22.9909274 37.0174574,25.332407 38.1509678,27.8357431 C38.446681,28.4531711 38.5134992,29.1193869 38.2359468,29.3175044 C37.9875202,29.5152924 37.5907231,29.1978427 37.2884993,28.6229391" id="Fill-26"></path>
                    <path d="M15.9355687,51.5245746 C12.5038557,50.3193867 9.41993987,48.4038105 6.70677924,46.3672539 C6.5762268,46.2713268 6.46520583,46.2400103 6.47822681,46.3389043 C6.49124779,46.4394465 6.60535267,46.5920729 6.75577924,46.7097567 C9.40691889,48.6441228 12.456569,50.5079446 15.7656107,51.7022541 C15.9681212,51.7665352 16.1445897,51.78071 16.1771422,51.7226922 C16.2261422,51.6801678 16.1003869,51.5842406 15.9355687,51.5245746" id="Fill-28"></path>
                    <path d="M4.76675631,44.8308372 C2.7526166,42.7942806 1.06057477,40.1010681 0.444819574,36.7475735 C0.255330078,35.9307092 0.273148259,35.0238515 0.229288122,34.1502881 C0.274861545,33.2609016 0.3827986,32.3398691 0.573658725,31.4425711 C0.701127247,30.9965593 0.83990346,30.5502178 0.988616736,30.1055246 L1.21716917,29.4393089 C1.29735098,29.2177864 1.34326706,29.1310893 1.40837195,28.9708811 L2.15639287,27.2501259 C4.24728782,22.6901248 7.04028761,18.3249449 10.398672,14.3286394 C11.7624481,12.7024929 13.1968116,11.1623841 14.7010772,9.69018246 C15.4573219,8.95638918 16.2265876,8.23644106 17.017098,7.53396421 L18.2259931,6.49228103 L18.9085664,5.91869598 C19.2354615,5.64212251 19.5979929,5.36884549 19.9392796,5.09392025 C22.6884193,2.91594532 25.7020904,1.02707044 28.4248454,0.586992257 C29.1077615,0.463045145 29.7673768,0.433047306 30.4290481,0.488098284 C31.0694746,0.524359408 31.8140689,0.687534463 32.4445584,1.03003726 C32.6128031,1.11178961 32.6994955,1.18266362 32.813943,1.25650445 C32.9198241,1.3382568 33.009943,1.46714862 33.107943,1.57065764 L33.6894324,2.2243468 C34.0831457,2.65486523 34.4782296,3.08868013 34.87674,3.52249502 C34.9192295,3.58216105 34.97474,3.60259914 35.0107191,3.69358159 L35.1135162,3.97015507 L35.3211666,4.52033521 L35.7392085,5.62036583 C35.977698,6.56447363 36.1671875,7.54187573 36.4581036,8.45664497 C36.6033903,8.90595326 36.7257189,9.402401 36.8973902,9.81116276 L37.1389636,10.4490289 L37.2516979,10.7381289 L37.320572,10.8920739 C37.7026349,11.7013562 38.1484321,12.4605323 38.6449426,13.1613609 C38.7446558,13.3103612 38.8690404,13.3654121 38.9176978,13.2760779 C38.9735509,13.1738875 38.9293481,12.9915929 38.8265509,12.82644 C38.4229006,12.1022065 37.9836139,11.3763247 37.6632293,10.6062703 L37.2013273,9.38361115 L36.7894532,8.04161994 C36.526635,7.14300337 36.333719,6.20318098 36.1085931,5.28874138 L35.624761,4.02223923 L35.3849008,3.38865851 C35.3506351,3.2647114 35.2982085,3.19878208 35.2392715,3.15460944 L35.0775372,2.98813792 L33.7792087,1.64153166 L33.1370688,0.959492889 C33.0394115,0.827304612 32.9020059,0.79763642 32.7844745,0.709620784 C32.6193136,0.629516666 32.4692297,0.543149263 32.274943,0.46930843 C31.5252088,0.147243724 30.8015166,0.0496683379 30.0925586,0.0087921624 C28.6698454,-0.0587853858 27.1508455,0.263279319 25.556461,0.972019459 C23.9672164,1.68537465 22.3502165,2.68486307 20.7757061,3.83994467 C20.0064405,4.42275982 19.2025664,5.05601089 18.4727063,5.65959377 C17.9628322,6.08846397 17.5629511,6.41514373 17.1216085,6.80808245 C16.2560561,7.56099523 15.43128,8.33566468 14.6226087,9.12450894 C13.0121193,10.703516 11.5061404,12.3533972 10.117693,14.0741523 C6.83297993,18.1456171 4.03175637,22.5783747 1.91961667,27.215513 L1.16165868,28.9629696 C1.0571482,29.179877 0.862861501,29.7439023 0.720658714,30.1777172 C0.570574809,30.6365852 0.43008531,31.0971015 0.302616788,31.5559695 C0.158700715,32.4829357 -0.00920137037,33.4319882 0.000393034498,34.3401645 C0.0463091149,35.2391107 0.0363720527,36.1677251 0.253616792,36.9974456 C0.931392964,40.420166 2.69710612,43.1433763 4.7828612,45.1812515 C4.89422483,45.2913534 5.00010594,45.3164066 5.010043,45.2379507 C4.99051154,45.1294969 4.87606399,44.9392909 4.76675631,44.8308372" id="Fill-30"></path>
                    <path d="M25.4568163,1.72137206 C23.4183479,2.75052867 21.4024949,4.28107772 19.5552293,5.90920216 C19.3283902,6.09611177 19.0652294,6.34136882 18.9329636,6.4636677 L18.5114951,6.8536396 L17.6898029,7.64083563 C17.1412085,8.16563298 16.6166002,8.70130866 16.0892506,9.23566576 C13.9935584,11.3823243 12.0123138,13.5978789 10.0046846,15.8684845 C7.83395048,18.3184179 6.0387688,20.9486679 4.65546121,23.9830647 C3.73405569,26.0446743 3.03023756,27.9272859 2.28701384,29.9592274 C1.23505588,32.6916679 1.17783211,35.6284893 1.76446143,38.3566443 C1.80523765,38.5356424 1.89330058,38.7024436 1.96834254,38.7304635 C2.02899288,38.7228817 2.04509777,38.5877266 2.00603484,38.4100471 C1.85732157,37.6762538 1.7935873,36.9124627 1.69079011,36.1753729 C1.69079011,35.408615 1.65960829,34.6481203 1.72025864,33.8843292 C1.8473845,33.1192195 1.88987401,32.3382868 2.1283635,31.5932855 L2.48609774,30.4714982 L2.67387395,29.9183513 L2.83423757,29.5221161 C3.673748,27.3978735 4.56705563,25.2812129 5.65978981,23.1691673 C7.70168476,19.2503288 10.3446006,15.7366259 13.2815165,12.4886182 C14.7532297,10.862142 16.3030687,9.30027649 17.9334322,7.77104603 C18.3367399,7.38634847 18.7516979,7.00758455 19.1714531,6.62882064 C19.7546559,6.09281531 20.5091873,5.4912103 21.1708586,4.92224031 C22.5689004,3.81924287 24.0193688,2.78052651 25.504103,1.9679477 C25.7573267,1.85323069 25.9074107,1.716757 25.919061,1.64753122 C25.9009002,1.57830544 25.6836554,1.6162148 25.4568163,1.72137206" id="Fill-32"></path>
                    <path d="M13.6992843,26.5804819 C12.8858158,27.8094043 12.1018159,29.0979928 11.4075922,30.4350393 C10.7198789,31.7002229 9.95541046,33.4018585 9.88859228,33.9691802 C9.76592097,34.8114273 9.95541046,35.7166367 10.3343895,36.5555873 C10.742837,37.402779 11.4254104,38.1599772 12.1833683,38.7368587 C12.2700606,38.7932282 12.3403054,38.7635601 12.3567529,38.6818077 C12.3728578,38.6000554 12.328655,38.4820419 12.2505292,38.4286391 C11.4665292,37.8741736 10.9778999,37.1212608 10.569795,36.3278015 C10.2511237,35.532694 10.1695713,34.7217634 10.2901867,33.9691802 C10.3573475,33.7915007 10.412858,33.6125027 10.461858,33.425593 C10.4783055,33.3735089 10.474879,33.3451593 10.5060608,33.2729667 L10.6201657,33.026391 L10.8538579,32.5329101 C11.157795,31.8713094 11.4908579,31.2238836 11.8355712,30.5814024 C12.5198578,29.2941325 13.2713053,28.0513649 14.0306339,26.8507921 C14.1793472,26.6197098 14.2317738,26.3810457 14.1467948,26.2992934 C14.053592,26.2300676 13.8658158,26.3447846 13.6992843,26.5804819" id="Fill-34"></path>
                    <path d="M17.9488175,50.7250828 C14.4989437,50.1247963 11.3629439,48.4590922 8.80672034,46.2560641 C6.22890935,44.0625958 4.24286754,41.2025821 3.16829419,37.8286494 C2.88217533,36.1491001 2.82186765,34.389117 3.24333615,32.6541871 C3.29370677,32.2141089 3.50307039,31.8056768 3.63362283,31.3830699 C3.7823361,30.9838679 3.94235707,30.490387 4.09107035,30.2108467 L4.97307028,28.2652726 C5.1591332,27.9023317 5.19202831,27.5519174 5.05153881,27.4826916 C4.90762273,27.4137955 4.63829408,27.6557561 4.44880459,28.0216638 L3.47360186,29.9609746 C3.31495152,30.2279883 3.1240914,30.7765202 2.96235715,31.1895674 C2.80884667,31.637557 2.5998257,32.0743388 2.53917536,32.5411183 C2.50182571,32.4765076 2.45419634,32.4435429 2.39697257,32.4484876 C2.54911242,31.6392053 2.88560191,30.8078312 3.15184664,30.0598685 L3.93584658,28.3186753 C4.48135703,27.1668902 5.04982552,26.0246648 5.65255974,24.8962846 C6.86111209,22.6444688 8.19576234,20.4510005 9.64623076,18.3280765 C9.81618879,18.0969943 9.86827271,17.8754718 9.78329369,17.822069 C9.69523076,17.7607548 9.48929371,17.9034917 9.32104897,18.134574 C7.77258056,20.328372 6.37762262,22.6161192 5.13960174,24.9717736 C4.52076262,26.1486119 3.94235707,27.3445697 3.40164383,28.553054 L3.00313337,29.4628786 L2.80542009,29.9168019 C2.73688863,30.0770102 2.65670682,30.3285305 2.58509144,30.5296149 L2.17184672,31.8152366 C2.04266491,32.2441067 2.01319638,32.6904482 1.94123834,33.1272299 C1.85831527,33.3800689 1.79115444,33.6803769 1.76031528,33.9961783 C1.57733627,36.9864024 2.50662291,39.6878561 3.83304939,41.9334086 C5.17866467,44.1928062 6.97727293,46.0645395 9.06816787,47.5838805 C12.0390068,49.7493289 15.4529017,51.2390018 19.1231042,51.8109386 C22.8375095,52.3027713 26.4408938,51.8188501 29.8218936,50.5474033 C32.4778304,49.5215431 34.7253198,47.844631 36.8114175,46.0157518 C38.5654803,44.4881695 40.3051515,42.7126931 41.1511724,40.7028379 C42.3110674,37.9529262 42.4940465,35.1542267 41.8553332,32.7405545 C41.8224381,32.5991361 41.7491094,32.5912246 41.7031934,32.693415 C41.6476829,32.7751674 41.6250675,32.973285 41.6607039,33.0959135 C42.2439066,35.4983778 41.7768647,38.3504799 40.9191934,40.8363448 C38.2193964,45.148122 34.227096,48.2893242 29.6193831,50.426423 C25.7418729,51.5548032 21.9537963,51.4447012 17.9488175,50.7250828" id="Fill-36"></path>
                </g>
                <path d="M11.701346,94.8903926 C11.5266405,94.8525969 11.3365582,94.8347298 11.1258646,94.8347298 C10.1852683,89.2395964 9.24499907,84.5570566 8.30472986,80.7898592 C7.3657693,77.0226618 6.18045429,73.4750228 4.75369228,70.1469424 L3.6570387,72.2858337 C3.34361563,72.9084314 3.16727426,73.4588738 3.13455786,73.9320068 C3.02855674,75.0294556 2.977192,75.8351906 2.977192,76.3464629 C2.977192,77.4435681 3.02855674,79.125819 3.13455786,81.3925283 C3.23761451,83.6252216 3.28897925,85.3253395 3.28897925,86.496318 L3.28897925,90.9953771 C3.28897925,92.9349821 2.69812114,93.9028948 1.51607777,93.9028948 C0.502196672,93.9028948 0,92.8789758 0,90.8301069 C0,89.2217294 0.103056646,86.7516106 0.31178725,83.4235301 C0.556833053,80.3510858 0.678538044,77.9005521 0.678538044,76.0729597 L0.731538605,71.3539986 L0.731538605,65.6475398 C0.731538605,63.6364666 0.609833614,61.5333094 0.364787811,59.3384118 C0.120069172,57.0717024 0,55.3519995 0,54.1823953 C0,53.7058263 0.137081698,53.304505 0.417788372,52.9753391 C0.69391475,52.6461732 1.04332586,52.480903 1.46307721,52.480903 C2.7511217,52.480903 3.39498037,53.9631805 3.39498037,56.9242993 L3.18624977,68.1716033 L4.17788372,65.4839876 C5.32753786,62.4111997 6.51121705,59.3744895 7.73055711,56.3755749 C8.42610768,54.7294018 9.05328099,53.4323231 9.61011404,52.480903 C10.202608,51.4930617 10.6733969,51 11.0211722,51 C11.4049355,51 11.7435502,51.1360644 12.0412694,51.4112856 C12.3360441,51.6865068 12.4842494,52.023919 12.4842494,52.4266147 C12.4842494,52.7918583 11.543653,55.0589113 9.6631146,59.2288044 C7.81660123,63.2155603 6.73728734,65.8670982 6.42517293,67.1841055 L6.42517293,68.1716033 C6.94634511,69.5621403 8.34039073,74.0141265 10.6033838,81.5303107 C12.8680127,89.0482129 14,93.0250045 14,93.4637778 C14,93.9028948 13.8331464,94.2681384 13.5027108,94.5612266 C13.1703122,94.8525969 12.7790241,95 12.3265564,95 C12.1191344,95 11.9104038,94.9625479 11.701346,94.8903926" id="Fill-39" fill="#FEFEFE"></path>
                <path d="M16,90.4207775 C16,89.5785915 16.5164961,89.1576633 17.5498016,89.1576633 L18.0991856,89.1576633 L18.6009605,89.2110621 C18.8665692,89.2110621 19.0504281,89.1230529 19.1487785,88.9486825 C19.250261,88.7726639 19.3013155,88.4565557 19.3013155,87.999369 C19.3013155,87.4040704 19.2668616,86.473875 19.2010858,85.2104311 C19.0996033,84.3682451 18.9830862,82.8598915 18.8487158,80.6837223 C18.5502193,75.3161459 18.3992483,71.2624456 18.3992483,68.5252585 C18.3992483,67.5429828 18.4158488,66.649046 18.4499896,65.8414703 L18.4991648,63.1576821 C18.4991648,61.9997175 18.4499896,61.0349118 18.3500731,60.2635946 C17.8154103,60.4033546 17.4317185,60.4725754 17.2002506,60.4725754 C16.3999791,60.4725754 16,60.0529657 16,59.2107796 C16,58.7895218 16.2493214,58.4203443 16.7495302,58.1045657 C17.249739,57.7887872 17.8827521,57.5610179 18.6485696,57.4209282 C19.9835039,57.13976 21.1674671,57 22.2007726,57 C22.6007517,57 22.9412195,57.1493191 23.2262477,57.4476277 C23.5087701,57.7462658 23.6519106,58.0874254 23.6519106,58.4737432 C23.6519106,58.8603907 23.5429108,59.1919911 23.3249113,59.4731593 C23.1100439,59.7543275 22.8337858,59.8940875 22.5008352,59.8940875 C22.3006891,59.8940875 22.1334308,59.8785952 22.0006264,59.8423367 L21.6003341,59.8423367 C21.2661307,59.8423367 21.0240134,59.920787 20.8764878,60.078017 C20.7255168,60.2368951 20.650971,60.5259743 20.650971,60.9469025 C20.650971,64.3502571 20.8508039,69.4725942 21.2510963,76.315562 C21.316872,77.5790059 21.4496763,79.4390669 21.6498225,81.8950858 C21.8170808,83.5089186 21.9003967,85.1586804 21.9003967,86.8414044 L21.9003967,88.8432032 C22.1005429,88.8072743 22.4350595,88.7881562 22.9008144,88.7881562 C24.3015243,88.7881562 25,89.4042211 25,90.6314065 L25,90.947185 L23.7505742,91.8411218 C23.7176864,91.8411218 23.6102527,91.8506809 23.4263938,91.8678213 C23.2428482,91.8869394 22.9008144,91.8945207 22.4009188,91.8945207 C21.3331593,91.9653896 20.650971,92 20.3505951,92 C17.4495719,92 16,91.4735925 16,90.4207775" id="Fill-41" fill="#FEFEFE"></path>
                <path d="M31.0978406,93.3451388 C30.5736286,93.7084569 30.0158448,93.8909704 29.4254132,93.8909704 C29.0321002,93.8909704 28.6957667,93.700254 28.4167209,93.3174542 C28.137983,92.9363632 28,92.5272459 28,92.0907856 C28,89.034197 28.1145751,84.9594291 28.3434174,79.8664819 C28.5402279,74.4443952 28.6384792,70.389109 28.6384792,67.6958385 L28.6384792,67.3130387 C28.4419767,65.0223916 28.3434174,63.3117547 28.3434174,62.184204 C28.3434174,58.7270426 28.9175251,57 30.0657404,57 C30.3931419,57 30.6792718,57.1353471 30.9259779,57.4087756 C31.171144,57.6808369 31.2946511,58.0004064 31.2946511,58.3637245 C31.2946511,58.8001847 31.2459875,59.4926424 31.1461962,60.4376796 C31.047945,61.3468292 31.0008213,62.0392869 31.0008213,62.5116346 C31.0008213,64.9489077 31.0156052,67.1500069 31.047945,69.1149323 C31.0802847,71.0439703 31.0978406,73.2272967 31.0978406,75.6628608 C30.9333698,76.2086924 30.8511345,76.972925 30.8511345,77.9552168 L30.8511345,78.6104198 L30.7544232,82.9227287 C30.6882037,84.1951965 30.6543239,85.6501778 30.6543239,87.2876726 C30.6543239,89.7984296 31.1948599,91.0527828 32.2780877,91.0527828 C32.3443072,91.0527828 32.4499504,91.0445799 32.5968653,91.0268071 C32.7450121,91.0073253 32.9492146,90.9991224 33.2119366,90.9991224 C33.5085384,90.963235 33.8830636,90.9437532 34.3425961,90.9437532 C36.1145067,90.9437532 37,91.4895848 37,92.5809062 C37,92.9459332 36.8515451,93.253882 36.5564834,93.5098795 C36.2614216,93.7638262 35.9001403,93.9268579 35.4744875,94 C34.2939324,93.5635398 32.8361795,93.3451388 31.0978406,93.3451388" id="Fill-43" fill="#FEFEFE"></path>
                <path d="M47.4096007,91.9782798 C47.941972,91.462605 48.3503345,90.7570681 48.6346882,89.8663572 C49.3067362,88.0484361 49.7154321,86.0898766 49.8584423,83.9859904 C50.0347882,82.1680694 50.1237946,80.600619 50.1237946,79.2806255 C50.1237946,77.6763412 49.9997857,75.5724551 49.751768,72.9706415 C49.5387528,70.2268498 49.4324118,68.17721 49.4324118,66.8220569 L49.4324118,65.8596872 C49.3610734,64.5058735 48.9063743,63.3295323 48.0753149,62.332003 C47.2412553,61.3327994 46.2195157,60.8348719 45.014763,60.8348719 C43.80701,60.8348719 43.0079529,61.5290237 42.6185918,62.9193364 C42.2642332,64.024019 42.0862204,65.4508308 42.0862204,67.1970931 C42.0862204,67.8741674 42.103555,68.4437536 42.1402243,68.9085306 L42.1402243,70.3514154 L42.03355,72.8109162 C41.9605448,73.5596492 41.9272091,74.3800409 41.9272091,75.2707519 C41.9272091,77.1941518 41.9812129,79.1034879 42.0862204,80.9917282 C42.2275639,83.6652006 42.5835893,86.2670142 43.1509632,88.7971691 C43.7196705,91.4354818 44.5523966,92.7541359 45.6534752,92.7541359 C46.2925209,92.7541359 46.8772293,92.4952939 47.4096007,91.9782798 M43.311308,94.1173255 C42.5312522,93.5296572 41.8908732,92.7363886 41.3948377,91.7388593 C40.3650975,89.5649888 39.7263852,87.1928848 39.4783675,84.6279051 C39.1590114,82.2032291 39,79.8696333 39,77.6220949 C39,77.1941518 39.0176679,76.8398766 39.0526704,76.552572 L39.0526704,75.5902024 C39.0526704,75.4130647 39.0336691,75.3236588 39,75.3236588 L39,74.3609542 L39.0526704,70.617959 C39.0893397,69.4781169 39.2306831,67.6601958 39.4783675,65.1652006 C39.6563802,63.4540979 40.0634093,61.7972415 40.7021216,60.1929572 C40.9514727,59.4797187 41.2708289,58.9352465 41.6618568,58.5618846 C42.0512179,58.1881878 42.4929162,58 42.9919518,58 C44.4093864,58 45.686811,58.2585071 46.8248923,58.7755213 C47.9593066,59.2928703 48.9177084,60.0144802 49.6977641,60.9416902 C50.4081482,61.8324012 51.011858,62.9273729 51.5078934,64.229954 C52.0052623,65.5308608 52.3596209,66.9114629 52.5723028,68.3720949 C52.785318,69.869226 52.8916589,71.4557631 52.8916589,73.132041 L52.8916589,73.5596492 C52.8916589,74.6643317 52.9093269,75.6618611 52.9443294,76.552572 L53,79.6014154 C53,89.8663572 50.6211634,95 45.8648237,95 C44.9417577,95 44.091697,94.704659 43.311308,94.1173255" id="Fill-45" fill="#FEFEFE"></path>
                <g id="Group-49" transform="translate(57.000000, 58.000000)">
                    <mask id="mask-6" fill="white">
                        <use xlink:href="#path-5"></use>
                    </mask>
                    <g id="Clip-48"></g>
                    <path d="M20.4453828,34.6905526 L20.4453828,31.2744437 L20.4453828,27.8583347 C20.4453828,26.0800863 20.3180165,23.7489763 20.0636261,20.8666762 C19.7712313,17.6303977 19.626061,15.4062501 19.626061,14.1952361 L19.7335692,10.8874266 C19.8071815,9.92643702 19.8448436,8.84143804 19.8448436,7.63042409 C19.6979614,8.09437313 19.0970798,10.5494925 18.0394596,14.996785 C16.9835514,19.3020181 15.8903234,23.2870328 14.7608029,26.9514949 C13.6672325,30.4745661 12.7746409,32.2350989 12.0809735,32.2350989 C11.3890181,32.2350989 10.8323038,32.031202 10.4145969,31.6217369 C9.99517811,31.2122718 9.78632466,30.6530595 9.78632466,29.9407573 C9.78632466,28.3760992 9.1364823,25.049237 7.84398762,19.9598364 C6.54978102,14.8724413 5.37609313,10.7089332 4.31847297,7.47131765 L3.99047035,13.5019866 C3.69841791,18.5913872 3.49778165,22.8247551 3.3899311,26.20443 C3.31494928,29.4788138 3.2789991,31.7206771 3.2789991,32.9300197 C3.2789991,33.2151411 3.296803,33.4812099 3.3344651,33.7298973 L3.3344651,34.4769622 C3.3344651,35.0826363 3.20538682,35.5352206 2.95099648,35.8377234 C2.69626375,36.1405604 2.22309086,36.291979 1.53113543,36.291979 C1.1654707,36.291979 0.819321797,36.1579418 0.491319172,35.8918731 C0.163316547,35.6244673 0,35.3309894 0,35.010771 C0,31.3810717 0.272536628,25.9366899 0.819321797,18.6789626 C1.36781888,11.4212354 1.64035551,5.97651931 1.64035551,2.34682003 C1.42157296,2.0266016 1.31235288,1.68900179 1.31235288,1.33201507 C1.31235288,0.906505613 1.51949441,0.576927983 1.94062513,0.345621978 C2.35833203,0.114650231 2.86129221,0 3.44368518,0 C3.91720045,0 4.79198824,1.67128616 6.06839094,5.01586402 C7.34308173,8.36044189 8.61914205,12.1509189 9.89554475,16.384621 C11.1685236,20.6179888 11.9895573,23.677111 12.3548797,25.5636589 C12.6472745,24.6030036 12.882149,23.7138793 13.0666933,22.8949491 L13.3946959,21.6137411 C14.5601666,16.6329741 15.7252949,12.1335375 16.8924776,8.11175451 C17.5840906,5.65630088 18.2582422,3.73465605 18.9159593,2.34682003 C19.570595,0.852355942 20.1728462,0.104956771 20.7196314,0.104956771 C21.2287544,0.104956771 21.6954221,0.238993921 22.1117594,0.505062678 C22.5311782,0.772802721 22.7417436,1.12009598 22.7417436,1.54694247 C22.7417436,4.10935841 22.8509637,7.95097678 23.0697462,13.0751401 C23.3258485,17.8439881 23.4532148,21.5438814 23.4532148,24.1758228 L23.3977488,27.0056445 L23.2885288,29.8341292 C23.2885288,30.2609757 23.3422828,30.9014126 23.4532148,31.7557741 L23.6165314,33.622935 C23.6524816,33.9431534 23.6785026,34.1935121 23.6980185,34.3703341 C23.7161647,34.5488275 23.7257515,34.6554556 23.7257515,34.6905526 C23.9068719,35.1541674 24,35.4904301 24,35.7056918 C24,36.3093603 23.8154557,36.8431691 23.4532148,37.3067839 C23.0875501,37.7673904 22.6503274,38.0000334 22.1408619,38.0000334 C21.0116838,38.0000334 20.4453828,36.8956475 20.4453828,34.6905526" id="Fill-47" fill="#FEFEFE" mask="url(#mask-6)"></path>
                </g>
                <path d="M86.9318165,93.5041876 C86.559957,93.1743346 86.3561847,92.7721757 86.3198325,92.2946119 L86.3198325,90.8650195 L86.3198325,89.7652801 C86.2848143,89.4354271 86.2671385,89.0515168 86.2671385,88.6114833 C86.2671385,87.8415969 86.2131105,86.6681742 86.106722,85.0925926 L86,81.5737018 C86,79.7794807 86.052694,77.1027824 86.16075,73.5477387 C86.3021567,70.3587009 86.372193,67.6833799 86.372193,65.520054 C86.372193,65.0080588 86.3198325,64.2381723 86.2131105,63.2107389 C86.106722,62.148874 86.052694,61.3789875 86.052694,60.9031454 C86.052694,58.3001303 86.7980805,57 88.2895205,57 C89.4627955,57 90.818832,57.2379211 92.3639665,57.7141076 C93.9094345,58.1899497 94.680501,58.7594454 94.680501,59.4177741 C94.680501,59.7855016 94.5277551,60.1249953 94.2289335,60.4352224 C93.9251093,60.747171 93.562588,60.9950772 93.135033,61.1772194 C91.645594,60.6273497 90.2958942,60.2630653 89.0892685,60.07748 C89.1239532,60.6273497 89.1432965,61.4168621 89.1432965,62.442574 C89.1432965,63.9083194 89.1239532,65.2277312 89.0892685,66.3997767 C88.9825465,68.1609436 88.930186,69.4789782 88.930186,70.3587009 L89.0892685,71.2384236 L89.9410435,71.1826447 C90.2241903,71.1464917 90.580375,71.1282431 91.0062625,71.1282431 C92.7104795,71.1282431 93.562588,71.6419598 93.562588,72.668016 C93.562588,73.0715522 93.4021715,73.4096687 93.0826725,73.6854644 C92.7631735,73.9595384 92.3546283,74.0976084 91.8587045,74.0976084 C91.219373,74.0976084 90.7217817,74.0614554 90.3672645,73.9874279 L89.0352405,73.9874279 C89.1066108,74.9411781 89.1432965,76.3346175 89.1432965,78.1663689 C89.1432965,79.9981202 89.1239532,81.6473851 89.0892685,83.1131305 C88.9825465,85.3501396 88.930186,87.0162758 88.930186,88.1173925 C88.930186,90.1691606 88.9635366,91.1948725 89.0352405,91.1948725 L90.793152,91.1408152 C91.3974654,91.1046622 92.1255095,91.0850363 92.9759505,91.0850363 C94.3243163,91.0850363 95,91.5247255 95,92.4044482 C95,92.9181649 94.7788853,93.3120603 94.3336545,93.5861344 C93.8900912,93.86193 93.3481435,94 92.7104795,94 L88.184466,94 C87.7218928,94 87.3053435,93.8340406 86.9318165,93.5041876" id="Fill-50" fill="#FEFEFE"></path>
                <path d="M102.41997,91.3109296 L102.363345,89.2463713 C102.324896,88.6458389 102.308468,87.9756698 102.308468,87.2342062 L102.363345,85.4339353 C102.251493,85.0466233 101.971513,81.1801361 101.5269,73.8377894 C101.078442,66.4971008 100.818735,61.7850267 100.745332,59.7015671 C98.5858845,59.6302725 97.2097521,59.420368 96.6165856,59.0662163 C96.2048295,58.7833592 96,58.4653523 96,58.1128586 C96,57.8300015 96.1967901,57.5756623 96.5865253,57.3448668 C96.9762605,57.1153977 97.3778801,57 97.7878885,57 C98.8291631,57 100.093793,57.0712946 101.581777,57.2135521 C102.996359,57.390628 104.260989,57.4775079 105.377414,57.4775079 L105.824124,57.4775079 L106.270484,57.4775079 C107.423611,57.4775079 108,57.9012961 108,58.7485409 C108,59.1719976 107.813347,59.5165328 107.441787,59.7804885 C107.06848,60.0461022 106.642044,60.1774169 106.158982,60.1774169 C105.824124,60.1774169 105.338965,60.1253553 104.707699,60.0192424 L103.591273,59.8073483 L103.534648,60.0713041 L103.47977,60.3369178 C103.47977,63.4795164 103.794355,68.4903646 104.429466,75.3744363 C105.022633,81.8330617 105.320789,86.8455679 105.320789,90.4116231 C105.320789,90.8350798 105.125746,91.2051484 104.736011,91.5228237 C104.344528,91.8404991 103.907955,92 103.424543,92 L102.41997,91.3109296 Z" id="Fill-52" fill="#FEFEFE"></path>
                <path d="M115.05775,69.0361038 C115.628607,67.25171 115.914209,65.6011372 115.914209,64.0864183 C115.914209,62.9331856 115.767427,61.8510983 115.471786,60.8401564 C115.28727,60.2635401 114.981935,59.8227775 114.559245,59.5144809 C114.135169,59.2092333 113.610354,59.0557626 112.983415,59.0557626 L112.874367,59.3254374 L112.762203,59.8129527 L112.874367,66.1970645 C112.947065,68.0719145 112.983415,70.1100602 112.983415,72.3081135 C113.793485,71.9124097 114.485161,70.8204976 115.05775,69.0361038 M117.571046,91.4048877 C116.79871,89.5300376 116.226121,87.5999652 115.858127,85.6170419 L115.471786,83.7774258 C114.402423,78.6207411 113.719402,75.6817595 113.427223,74.9598033 L112.762203,74.9598033 C112.762203,76.0063179 112.745932,76.9606823 112.707852,77.8262844 L112.707852,80.8025327 C112.707852,85.6346589 113.057498,89.4023147 113.757482,92.107533 L113.150275,93.5690623 L111.60214,93.5690623 L110.884154,92.7566498 L110.940236,89.1326399 C110.940236,85.8867168 110.773721,80.9641343 110.440346,74.3638761 C110.145051,67.3323414 110,62.4100977 110,59.5968062 C110,57.8656021 110.607207,57 111.823352,57 C113.813564,57 115.443745,57.505471 116.714587,58.5147189 C117.986814,59.5239669 118.622061,60.9306127 118.622061,62.7346561 L118.622061,66.5199289 C118.622061,67.0609726 118.52963,67.6843416 118.344768,68.3869869 C118.161637,69.0892934 117.958773,69.6577788 117.737561,70.0907493 L116.686546,72.0384386 L115.80343,73.6612308 L116.079339,74.9598033 L116.853061,78.8002985 C117.367836,81.5780173 117.866341,83.8306154 118.344768,85.5618196 C118.823541,87.2933625 119.414131,88.8612711 120.114115,90.2679168 L120.44749,90.9170337 C120.813753,91.6389899 121,92.2156062 121,92.6482378 C121,93.0100629 120.887836,93.3251353 120.666971,93.5948101 C120.44749,93.8661789 120.150464,94 119.782124,94 C118.972054,94 118.236066,93.1343979 117.571046,91.4048877" id="Fill-54" fill="#FEFEFE"></path>
                <path d="M131.409601,91.9782798 C131.941972,91.462605 132.350335,90.7570681 132.634688,89.8663572 C133.306736,88.0484361 133.716765,86.0898766 133.858442,83.9859904 C134.034788,82.1680694 134.125128,80.600619 134.125128,79.2806255 C134.125128,77.6763412 133.999786,75.5724551 133.751768,72.9706415 C133.54042,70.2268498 133.432412,68.17721 133.432412,66.8220569 L133.432412,65.8596872 C133.362407,64.5058735 132.908041,63.3295323 132.075315,62.332003 C131.242589,61.3327994 130.220849,60.8348719 129.014763,60.8348719 C127.80701,60.8348719 127.009286,61.5290237 126.619925,62.9193364 C126.265567,64.024019 126.087554,65.4508308 126.087554,67.1970931 C126.087554,67.8741674 126.105222,68.4437536 126.140224,68.9085306 L126.140224,70.3514154 L126.03355,72.8109162 C125.962212,73.5596492 125.928876,74.3800409 125.928876,75.2707519 C125.928876,77.1941518 125.981213,79.1034879 126.087554,80.9917282 C126.227564,83.6652006 126.583589,86.2670142 127.150963,88.7971691 C127.71967,91.4354818 128.552397,92.7541359 129.653475,92.7541359 C130.292521,92.7541359 130.877229,92.4952939 131.409601,91.9782798 M127.311308,94.1173255 C126.531252,93.5296572 125.892207,92.7363886 125.394838,91.7388593 C124.365098,89.5649888 123.726385,87.1928848 123.480034,84.6279051 C123.160678,82.2032291 123,79.8696333 123,77.6220949 C123,77.1941518 123.017668,76.8398766 123.05267,76.552572 L123.05267,75.5902024 C123.05267,75.4130647 123.033669,75.3236588 123,75.3236588 L123,74.3609542 L123.05267,70.617959 C123.08934,69.4781169 123.230683,67.6601958 123.480034,65.1652006 C123.65638,63.4540979 124.064743,61.7972415 124.702122,60.1929572 C124.951473,59.4797187 125.270829,58.9352465 125.661857,58.5618846 C126.051218,58.1881878 126.494583,58 126.993619,58 C128.409386,58 129.688478,58.2585071 130.824892,58.7755213 C131.959307,59.2928703 132.917708,60.0144802 133.697764,60.9416902 C134.408148,61.8324012 135.011858,62.9273729 135.507893,64.229954 C136.005262,65.5308608 136.359621,66.9114629 136.572303,68.3720949 C136.785318,69.869226 136.891659,71.4557631 136.891659,73.132041 L136.891659,73.5596492 C136.891659,74.6643317 136.910994,75.6618611 136.944329,76.552572 L137,79.6014154 C137,89.8663572 134.621163,95 129.864824,95 C128.943425,95 128.091697,94.704659 127.311308,94.1173255" id="Fill-56" fill="#FEFEFE"></path>
                <path d="M150.9466,94.395025 C150.033528,90.4405039 148.789179,83.2843271 147.209927,72.9227115 C145.454982,61.8663547 144.384677,55.295205 144,53.2082304 C144.139763,52.5131454 144.614099,52.1654309 145.420371,52.1654309 C146.016011,52.1654309 146.752731,54.5082903 147.631192,59.1940092 C148.543935,63.9172166 149.438218,69.2619076 150.31635,75.2294581 L151.73705,84.949986 C152.296101,80.5562647 152.737804,77.2610598 153.05194,75.0640272 C153.71845,70.0127095 154.210256,65.8305059 154.526041,62.5170726 C154.841825,59.2036393 154.999058,56.0642352 154.999058,53.0981724 C155.525146,52.3655989 156.157045,52 156.893765,52 L158,52.604975 L157.209879,60.0184123 C157.033858,62.2893901 156.59677,66.4076225 155.893012,72.3737972 L155.421642,75.9984883 C155.034988,79.220092 154.647015,82.259756 154.262008,85.1140412 C153.735591,89.2518776 153.245432,92.1261108 152.789555,93.7360528 C152.577604,94.5786843 152.368619,95 152.157986,95 C151.66618,95 151.262385,94.7984563 150.9466,94.395025" id="Fill-58" fill="#FEFEFE"></path>
                <path d="M160.930321,93.5041876 C160.558059,93.1743346 160.354583,92.7721757 160.318224,92.2946119 L160.318224,90.8650195 L160.318224,89.7652801 C160.283199,89.4354271 160.26552,89.0515168 160.26552,88.6114833 C160.26552,87.8415969 160.21315,86.6681742 160.105074,85.0925926 L160,81.5737018 C160,79.7794807 160.051036,77.1027824 160.159112,73.5477387 C160.300545,70.3587009 160.372262,67.6833799 160.372262,65.520054 C160.372262,65.0080588 160.318224,64.2381723 160.21315,63.2107389 C160.105074,62.148874 160.051036,61.3789875 160.051036,60.9031454 C160.051036,58.3001303 160.798228,57 162.288277,57 C163.461769,57 164.818057,57.2379211 166.363478,57.7141076 C167.909232,58.1899497 168.680442,58.7594454 168.680442,59.4177741 C168.680442,59.7855016 168.529335,60.1249953 168.228791,60.4352224 C167.92491,60.747171 167.562322,60.9950772 167.134687,61.1772194 C165.644972,60.6273497 164.295022,60.2630653 163.088173,60.07748 C163.122864,60.6273497 163.142211,61.4168621 163.142211,62.442574 C163.142211,63.9083194 163.122864,65.2277312 163.088173,66.3997767 C162.981431,68.1609436 162.929061,69.4789782 162.929061,70.3587009 L163.088173,71.2384236 L163.941774,71.1826447 C164.223305,71.1464917 164.579556,71.1282431 165.005522,71.1282431 C166.710055,71.1282431 167.562322,71.6419598 167.562322,72.668016 C167.562322,73.0715522 167.401875,73.4096687 167.082317,73.6854644 C166.762759,73.9595384 166.355472,74.0976084 165.857789,74.0976084 C165.218672,74.0976084 164.720989,74.0614554 164.366406,73.9874279 L163.034135,73.9874279 C163.105519,74.9411781 163.142211,76.3346175 163.142211,78.1663689 C163.142211,79.9981202 163.122864,81.6473851 163.088173,83.1131305 C162.981431,85.3501396 162.929061,87.0162758 162.929061,88.1173925 C162.929061,90.1691606 162.962418,91.1948725 163.034135,91.1948725 L164.792372,91.1408152 C165.396798,91.1046622 166.124977,91.0850363 166.975575,91.0850363 C168.324191,91.0850363 169,91.5247255 169,92.4044482 C169,92.9181649 168.778844,93.3120603 168.333531,93.5861344 C167.889885,93.86193 167.347837,94 166.710055,94 L162.183203,94 C161.720544,94 161.303918,93.8340406 160.930321,93.5041876" id="Fill-60" fill="#FEFEFE"></path>
                <path d="M178.057002,69.0361038 C178.627931,67.25171 178.913569,65.6011372 178.913569,64.0864183 C178.913569,62.9331856 178.766768,61.8510983 178.47109,60.8401564 C178.287936,60.2635401 177.982563,59.8227775 177.558434,59.5144809 C177.134305,59.2092333 176.609424,59.0557626 175.982405,59.0557626 L175.873344,59.3254374 L175.761166,59.8129527 L175.873344,66.1970645 C175.947783,68.0719145 175.982405,70.1100602 175.982405,72.3081135 C176.792578,71.9124097 177.484341,70.8204976 178.057002,69.0361038 M180.572346,91.4048877 C179.798181,89.5300376 179.227251,87.5999652 178.85748,85.6170419 L178.47109,83.7774258 C177.401593,78.6207411 176.720217,75.6817595 176.426269,74.9598033 L175.761166,74.9598033 C175.761166,76.0063179 175.744893,76.9606823 175.706808,77.8262844 L175.706808,80.8025327 C175.706808,85.6346589 176.056498,89.4023147 176.75657,92.107533 L176.149287,93.5690623 L174.600957,93.5690623 L173.882881,92.7566498 L173.93897,89.1326399 C173.93897,85.8867168 173.772434,80.9641343 173.440748,74.3638761 C173.143684,67.3323414 173,62.4100977 173,59.5968062 C173,57.8656021 173.607283,57 174.822196,57 C176.812659,57 178.443046,57.505471 179.715432,58.5147189 C180.986434,59.5239669 181.621762,60.9306127 181.621762,62.7346561 L181.621762,66.5199289 C181.621762,67.0609726 181.529319,67.6843416 181.346165,68.3869869 C181.161279,69.0892934 180.960121,69.6577788 180.738881,70.0907493 L179.686003,72.0384386 L178.802776,73.6612308 L179.07872,74.9598033 L179.852538,78.8002985 C180.36911,81.5780173 180.865947,83.8306154 181.346165,85.5618196 C181.823267,87.2933625 182.413931,88.8612711 183.114003,90.2679168 L183.447421,90.9170337 C183.81373,91.6389899 184,92.2156062 184,92.6482378 C184,93.0100629 183.887822,93.3251353 183.666929,93.5948101 C183.447421,93.8661789 183.150357,94 182.781971,94 C181.971798,94 181.235718,93.1343979 180.572346,91.4048877" id="Fill-62" fill="#FEFEFE"></path>
                <path d="M193.256446,90.5884209 C193.871974,90.1993202 194.397914,89.6726446 194.832905,89.0070046 C195.195341,88.4157105 195.529504,87.6670391 195.839823,86.7596008 C196.146735,85.8552891 196.373939,84.9759911 196.520071,84.1265704 C196.84674,82.4603857 197.044649,80.7598073 197.117886,79.0224033 C197.151949,78.5787591 197.171366,77.9311844 197.171366,77.0817637 C197.171366,65.9131847 195.048868,60.088834 190.80762,59.6069745 C190.554528,61.2710747 190.427812,63.1939964 190.427812,65.3764342 C190.427812,67.7065219 190.572241,71.7740136 190.86144,77.5799516 C191.116235,82.7205968 191.242951,86.8075435 191.242951,89.8383598 L191.242951,91.1713771 C191.968845,91.1713771 192.637852,90.9757845 193.256446,90.5884209 M187.435332,86.7331975 L187.543994,77.9676626 C187.581464,75.3808379 187.599177,72.4761319 187.599177,69.2601453 C187.599177,68.0758202 187.490515,66.2460048 187.271146,63.7668776 C187.09095,61.0674917 187,59.4228465 187,58.8301628 C187,58.349693 187.201315,57.9241141 187.599177,57.5548159 C187.998742,57.1855176 188.432371,57 188.904832,57 C190.174379,57 191.395556,57.2866143 192.576197,57.8594956 C193.754795,58.4327243 194.797479,59.2373289 195.703228,60.2726146 C197.62441,62.5280089 198.894298,65.007136 199.511189,67.7065219 C199.837517,69.0746277 200,70.4243207 200,71.7538638 C200,72.2360707 199.981946,72.681452 199.944817,73.0872284 L199.890997,74.5842238 L199.890997,77.6348425 C199.890997,80.0014084 199.818101,81.8708287 199.673672,83.2389345 C199.456006,85.0885523 199.038728,86.7331975 198.4232,88.1739122 C197.695603,89.7271882 196.645084,91.1150964 195.268237,92.3355524 C194.61558,92.8903683 193.781024,93.4451841 192.765931,94 L188.849308,94 C187.90609,94 187.435332,91.5788905 187.435332,86.7331975" id="Fill-64" fill="#FEFEFE"></path>
                <path d="M204.931816,93.5041876 C204.559957,93.1743346 204.354517,92.7721757 204.318165,92.2946119 L204.318165,90.8650195 L204.318165,89.7652801 C204.284814,89.4354271 204.265804,89.0515168 204.265804,88.6114833 C204.265804,87.8415969 204.213111,86.6681742 204.105054,85.0925926 L204,81.5737018 C204,79.7794807 204.052694,77.1027824 204.159082,73.5477387 C204.302157,70.3587009 204.372193,67.6833799 204.372193,65.520054 C204.372193,65.0080588 204.318165,64.2381723 204.213111,63.2107389 C204.105054,62.148874 204.052694,61.3789875 204.052694,60.9031454 C204.052694,58.3001303 204.79808,57 206.28952,57 C207.461128,57 208.818832,57.2379211 210.362299,57.7141076 C211.907767,58.1899497 212.678833,58.7594454 212.678833,59.4177741 C212.678833,59.7855016 212.527755,60.1249953 212.227266,60.4352224 C211.923442,60.747171 211.561254,60.9950772 211.135033,61.1772194 C209.645594,60.6273497 208.294227,60.2630653 207.087601,60.07748 C207.122619,60.6273497 207.141629,61.4168621 207.141629,62.442574 C207.141629,63.9083194 207.122619,65.2277312 207.087601,66.3997767 C206.980879,68.1609436 206.928518,69.4789782 206.928518,70.3587009 L207.087601,71.2384236 L207.941044,71.1826447 C208.222523,71.1464917 208.578707,71.1282431 209.006263,71.1282431 C210.709145,71.1282431 211.561254,71.6419598 211.561254,72.668016 C211.561254,73.0715522 211.400504,73.4096687 211.082672,73.6854644 C210.763173,73.9595384 210.354628,74.0976084 209.858705,74.0976084 C209.217705,74.0976084 208.721782,74.0614554 208.365597,73.9874279 L207.03524,73.9874279 C207.104943,74.9411781 207.141629,76.3346175 207.141629,78.1663689 C207.141629,79.9981202 207.122619,81.6473851 207.087601,83.1131305 C206.980879,85.3501396 206.928518,87.0162758 206.928518,88.1173925 C206.928518,90.1691606 206.961869,91.1948725 207.03524,91.1948725 L208.791818,91.1408152 C209.395798,91.1046622 210.124175,91.0850363 210.97595,91.0850363 C212.322649,91.0850363 213,91.5247255 213,92.4044482 C213,92.9181649 212.777218,93.3120603 212.333654,93.5861344 C211.888757,93.86193 211.348143,94 210.709145,94 L206.182798,94 C205.721893,94 205.303676,93.8340406 204.931816,93.5041876" id="Fill-66" fill="#FEFEFE"></path>
                <g id="Group-80" transform="translate(188.000000, 1.000000)" fill="#89BF4E">
                    <path d="M54.9782733,23.7876655 C55.4639024,21.9854316 55.7975202,20.1459713 55.8953859,18.3225628 C55.7235324,20.1019144 55.2876769,21.8648728 54.6816495,23.5694302 C54.0998362,25.2804766 53.3495326,26.9491737 52.4758038,28.541369 L51.0649908,30.8743347 C50.5598559,31.6297907 49.9652629,32.3265042 49.4184257,33.0577118 C48.883023,33.8015559 48.2642159,34.4723134 47.6326291,35.1382896 C46.9963339,35.7974352 46.4111576,36.510542 45.7314787,37.1290459 C46.7622634,36.2728397 47.7015723,35.2878781 48.6859464,34.3357029 C49.5980143,33.3165887 50.4734246,32.2435133 51.3101595,31.1448234 L52.4098874,29.3815235 C52.7818443,28.7971721 53.1410215,28.2063318 53.4184758,27.5745083 C54.0292115,26.340574 54.5599059,25.0738532 54.9782733,23.7876655 M17.54515,46.2020317 C15.4032029,43.3888801 12.0576086,40.4650741 9.72800155,37.7820441 C9.15089663,37.1065052 8.55933046,36.4470181 7.9677643,35.7957276 C7.65836073,35.4555674 7.39402246,35.1837126 7.0523333,34.7865176 L6.04105447,33.5962987 C5.34052443,32.8247909 4.78561586,31.9115498 4.16041887,31.0601249 C3.60887338,30.1499575 3.03513155,29.2462791 2.5669905,28.2678065 C1.5775717,26.3453554 0.87737797,24.2255021 0.396120899,22.0260732 C-0.0333447056,19.8054697 -0.137600256,17.4547447 0.202407361,15.0876264 C0.534007271,12.7287048 1.38856647,10.322311 2.85049833,8.2612002 C3.5849955,7.24379358 4.41836728,6.28000657 5.39164329,5.49039794 C5.85171294,5.05597658 6.37265438,4.71889019 6.8969589,4.38658518 L7.68089338,3.89000604 C7.93581501,3.74690656 8.18266525,3.64444869 8.43456011,3.52047467 C8.413709,3.48324831 8.41505424,3.43441006 8.45372968,3.36917855 C8.65248784,3.06317105 9.35940773,2.61235643 10.016554,2.36953129 C10.9851217,2.05874242 11.9869839,1.8227478 12.9616051,1.58982692 C13.9893631,1.47917242 14.9734009,1.26435242 16.0011589,1.28552705 C16.9421493,1.22507691 17.8784314,1.15506403 18.8194218,1.25615579 C19.7620938,1.27869652 20.6805515,1.45970542 21.5976641,1.6352499 C23.4029666,2.06045005 25.1598408,2.66426842 26.7388079,3.54506456 C24.2027076,2.16768929 21.3124747,1.27049989 18.3321112,1.10622578 C17.4425759,1.02152728 16.732293,0.980885655 16.8106528,0.722008776 C16.879596,0.50718878 17.7116225,0.228844906 18.6865801,0.323106145 C20.821801,0.393119021 22.9859444,0.909165148 24.9900051,1.70389667 C26.0046471,2.08469842 26.957072,2.58435128 27.8772113,3.12020593 C28.327528,3.40333117 28.7926423,3.66391568 29.2140365,3.98153507 C29.4948538,4.17996181 29.4689581,4.17518044 29.5557256,4.24177806 C29.6229873,4.29232394 29.6838591,4.35414018 29.7480939,4.4128827 C29.9966257,4.63419169 30.2290147,4.89136094 30.4566954,5.18268281 C30.5094957,5.31621956 30.5929002,5.17790144 30.6635249,5.17141244 L30.8848157,5.06724694 C31.0304372,4.99723407 31.1827848,4.92892882 31.3495937,4.87360157 C31.5661762,4.84593795 33.6886174,3.9128883 35.149204,3.56965444 C39.0063231,1.90061578 43.3315832,0.87364642 47.8892322,1.5375734 C50.1495598,1.86646316 52.4660509,2.68715068 54.495671,4.14068629 C56.5236096,5.57202271 58.2421447,7.62493685 59.2490515,9.92853124 C60.2895891,12.223929 60.7288077,14.6658415 60.7990961,16.9841215 C60.8697208,19.3105982 60.603701,21.5510102 60.1291701,23.6493473 C59.6657374,25.7592964 59.0375136,27.779424 58.2855284,29.6861649 C58.0931601,30.1646432 57.9246697,30.6434629 57.7114503,31.1250149 L56.9934322,32.5771844 L56.2592714,34.0358429 L55.8856329,34.7653429 L55.4736554,35.4231224 C55.3102096,35.7079553 55.0566332,36.0026925 54.8931874,36.0856833 C54.700819,36.2144387 54.6705513,36.1034427 54.8097829,35.8462734 C55.0774843,35.3790656 55.3549385,34.9299586 55.6132233,34.4463574 L56.3295598,32.9077818 C56.7832396,31.8821785 57.3253684,30.8582829 57.6377988,29.8405348 C58.3881024,27.8350928 58.9843769,25.6810869 59.425277,23.455702 C59.8581057,21.2269018 60.0921762,18.8679802 59.9048525,16.42436 C59.7252639,13.9920103 59.05971,11.4507136 57.7403728,9.21064311 C56.456348,6.94427508 54.4041952,5.15843445 52.17918,4.04813269 C49.9235607,2.96856829 47.5075224,2.54200203 45.1748886,2.54200203 C42.8375464,2.56829955 40.5691474,3.01262517 38.4147569,3.71924293 C37.3358801,4.06759968 36.2855895,4.4910922 35.2662393,4.97127807 C34.7627859,5.22195832 34.2401629,5.44155969 33.7558791,5.72639256 L33.0170099,6.13349182 L32.7059248,6.30630409 L32.4510031,6.46408921 L31.8305145,6.85786894 C31.3640549,7.13484671 30.9359346,7.4719331 30.4886446,7.7714516 C30.9261816,7.55970534 31.3606919,7.29433946 31.8802881,7.06654147 C32.2889026,6.8872402 32.6497613,6.69052109 33.1387535,6.49824183 C33.698034,6.27044384 34.2351183,5.99858896 34.8139047,5.80289443 C35.9523081,5.37325444 37.1192976,4.98732981 38.3263078,4.7072783 C38.6084704,4.48596931 39.0944358,4.20762543 39.7196328,4.06111068 C41.1960259,3.61507743 42.7430438,3.36098192 44.3159573,3.27969868 C44.2483594,3.23734943 44.2100203,3.19021881 44.2053119,3.14138056 C44.2083387,2.96207929 44.8046132,2.76672629 45.5340657,2.83025017 C47.5798287,2.95080892 49.6575409,3.42962869 51.5697895,4.40946743 C53.4904457,5.36198408 55.1723232,6.92958945 56.326533,8.81652185 C56.3890863,8.90429409 56.4385237,8.99070022 56.4852705,9.08018009 C57.91189,11.4131457 58.5565929,14.17097 58.5340602,16.7904762 C58.537087,19.4294493 58.0195086,21.9772349 57.2449908,24.3788474 C55.7605263,29.1390399 52.9678228,33.6208886 49.6605677,37.272487 C43.0026737,44.598566 34.9534726,49.9366209 26.6876891,54.6725651 C26.4838863,54.8532325 26.1186556,55.0390227 25.9182158,55.068394 C25.6871721,55.1107432 25.6713656,54.9983811 25.8731505,54.8190798 C25.8314483,54.7589712 25.7211392,54.697155 25.7914276,54.6466091 C31.5739113,50.5506851 36.8596677,46.4089965 42.5893509,41.4742841 L44.0640625,40.1980006 L45.4731939,38.8418 L46.874254,37.487307 L48.1858561,36.0368451 C47.6840842,36.4798046 47.1887022,36.9193488 46.6946654,37.3554778 C46.1706972,37.7379872 45.6527825,38.1174228 45.1365494,38.4934432 C44.6253609,38.8469229 44.1185444,39.1983533 43.615091,39.545344 C43.1086108,39.8708185 42.5826247,40.15087 42.0808529,40.4292139 C37.0295033,44.7286875 31.4457778,48.6002288 25.6088123,51.2733546 L25.8956832,51.2504723 C25.4003012,51.5322315 24.8746514,51.6753309 24.7798125,51.5305238 C24.6499975,51.4116727 24.9916867,51.0650236 25.4900955,50.7719941 C30.5031059,47.4783152 35.4471731,44.0142147 39.9984323,40.1102284 C41.1190113,39.1170701 42.2799473,38.1679687 43.3218302,37.1013823 L44.9250115,35.5467549 L46.409476,33.8961587 C47.4500137,32.8346952 48.2642159,31.621594 49.1571143,30.4706507 C49.6350082,29.90884 49.9154893,29.2479868 50.3066158,28.6472421 C50.65604,28.0171262 51.076089,27.4556571 51.366323,26.7685064 C52.6456395,24.1343146 53.6717159,21.3751242 54.0308931,18.6268627 C54.4139481,15.8932868 54.0773036,13.1829346 52.8205198,11.1511951 C51.584587,9.11125898 49.4248156,7.81038559 46.9337806,7.37254897 C44.4390462,6.92002672 41.6977978,7.31892935 39.1183137,8.22226622 C38.1773233,8.5528636 37.2507941,8.9565476 36.3481429,9.40428848 C35.8927815,9.61603474 35.4586076,9.88788962 35.0126629,10.1221766 C34.3602249,10.4756563 33.6277456,11.0029727 32.9366322,11.4343204 C32.3067269,11.500918 31.9196361,12.386837 31.4309803,12.4831474 L30.5939091,12.6979674 C30.3584934,12.7109454 29.8960695,13.2765128 29.7228708,13.1170201 C28.9103501,12.7539777 28.1482757,11.1382171 26.9796046,10.7946417 C26.5612372,10.4251104 26.1314353,10.068557 25.6760739,9.77860123 C25.4194707,9.59793385 25.1632039,9.43024447 24.8921395,9.28202209 C24.3695165,8.95313234 23.8162894,8.70415972 23.2714701,8.43537858 C22.7071449,8.23387811 22.1603077,7.9538266 21.5832028,7.82848648 L20.7272984,7.58736896 L19.8582779,7.44734321 C17.5401053,7.0825932 15.1482812,7.39372359 12.8334717,8.3445326 C11.7206278,8.89643898 10.6259445,9.05115036 10.4429928,8.68298509 C10.2492793,8.30525709 11.092404,7.48798483 12.3333814,6.89714446 C14.8277795,5.82919195 17.5192542,5.42858169 20.1404405,5.80289443 C21.4580962,5.93506508 22.7310228,6.3793907 23.97839,6.86606557 C24.5874442,7.15260608 25.2049061,7.42787621 25.7833563,7.78272196 C26.0850247,7.94392234 26.3671873,8.12458971 26.6540582,8.32165035 C27.0213068,8.55593734 27.3737578,8.81993711 27.7137655,9.10135472 C28.5888395,9.52621334 29.3425062,9.99683648 30.0191584,10.4951232 L30.1425835,10.5927997 C30.1842857,10.6139744 30.2417944,10.5586471 30.291568,10.5453276 L30.5976085,10.4039357 L31.2100258,10.120469 C31.6156135,9.93023887 32.0164929,9.73488587 32.4863155,9.57197786 C33.0183551,9.23830674 33.5234901,8.88311946 34.0763808,8.5723306 L35.408834,7.8431721 L36.7809715,7.1867587 L38.1948113,6.62016669 C41.9944217,5.22673969 46.2826878,4.83295995 49.938022,6.40876196 C47.1533898,5.03787569 43.8491615,4.81315143 40.6734029,5.25269568 C39.2259323,5.58021933 37.8248723,6.10753583 36.4426455,6.68232446 C35.0705079,7.31209882 33.7814385,7.95690034 32.3228697,8.89473135 C31.9105558,9.08359536 31.5402805,9.30319672 31.1652968,9.51972435 L30.6009716,9.84554037 L30.3171274,10.0081068 C30.2723984,10.0245001 30.2192617,10.0863164 30.1775595,10.0651417 L30.0622058,9.9527796 C29.448107,9.38652912 28.7798625,8.84247784 28.0406571,8.34760634 C27.7490778,8.09692609 27.4413558,7.86434673 27.1285892,7.6478191 C24.6644588,5.88281157 21.8095383,4.69600794 18.8244664,4.4989473 C15.8488113,4.26124505 12.8284271,4.98084081 10.1497321,6.36163134 C7.38124275,7.59215033 5.18178695,10.1173952 4.24853163,13.0948209 C3.75314961,14.5780693 3.61862632,16.1589942 3.62669772,17.7265995 C3.73398004,19.2928388 3.95358931,20.8672747 4.49067355,22.3631596 C5.44780676,25.2821842 7.03316374,27.7029221 8.83207644,29.6793344 C9.25347064,30.195722 9.76163237,30.6335587 10.2267466,31.0860809 C10.6851348,31.5273328 11.1805168,31.9781474 11.7031398,32.4405739 C12.7228263,33.3572303 13.7038374,34.2868647 14.669042,35.2260618 C16.5960881,37.109579 18.4444381,39.037153 20.2399878,41.1194384 C21.129523,42.1713391 22.017713,43.2457806 22.8769806,44.4144834 C23.7379296,45.594798 24.5810543,46.7932135 25.4003012,48.3266663 C25.6938983,48.8263192 25.9148528,49.6552033 25.8701238,49.9482328 C25.8381745,50.0701577 25.7658682,50.0899662 25.679437,50.0230271 C25.5782082,49.9335472 25.4420034,49.7105306 25.3010903,49.4028154 C24.49126,47.7877379 23.6562067,46.6596768 22.7969392,45.4793622 C21.9376717,44.3250035 21.0605798,43.2392916 20.1629732,42.1843171 C18.3721319,40.0743681 16.517392,38.0815626 14.5809292,36.1379368 C13.6190877,35.1608303 12.6202523,34.2117289 11.6103187,33.2643352 C10.5650727,32.3217228 9.59179672,31.4166783 8.61885702,30.430009 C6.72241493,28.4225179 5.04860889,26.0034876 3.93912806,23.1268122 C2.79937948,20.0920102 2.28953621,16.6439614 3.17604469,13.3407198 C3.92971143,10.0374781 6.30539273,7.02077695 9.30324426,5.52318445 C12.1342869,3.94533329 15.4593663,3.05975579 18.7713297,3.28960294 C22.0802664,3.46856268 25.2896558,4.81656669 27.8852827,6.74414071 C28.1048919,6.89885209 28.3164298,7.06654147 28.5202326,7.24071984 C28.9046329,7.54672734 29.2688547,7.87732473 29.6246688,8.22055858 C29.2718815,7.82507121 28.9207757,7.45075847 28.573033,7.11845345 C27.9542258,6.47535957 26.9345393,5.67448057 25.9552098,5.03616806 C24.9563743,4.39307417 23.9013754,3.8087228 22.7774333,3.37088618 C19.9880929,2.50136041 16.9391225,2.36167618 14.0791574,2.99315818 C13.3446602,3.09903131 12.6649813,3.35449292 11.9708411,3.57750955 L10.9289582,3.92108493 L9.94761082,4.37702244 L8.96491818,4.83944895 C8.63802659,4.98084081 8.31079869,5.15194545 7.98054401,5.37974344 L6.9948246,6.01464069 C6.66927824,6.22946069 6.38879717,6.51463509 6.08578346,6.76531534 C4.86431199,7.7779406 3.92164003,9.09828098 3.13602401,10.4770224 C2.4402023,11.8967469 1.86309738,13.4042436 1.64348811,14.9540896 C1.11111219,18.045585 1.43968532,21.1910416 2.36957757,24.0694246 C3.09129502,26.3112028 4.16680873,28.3559203 5.3963516,30.2428527 C6.06493235,31.1478972 6.69181089,32.0809468 7.44682285,32.8930962 L8.52906272,34.1205414 L9.55480281,35.2277694 C12.2593936,38.2185146 16.1084412,41.2041369 18.3337927,44.6750679 C18.9317488,45.5282004 23.7940931,49.8047918 23.6289658,50.1254849 C23.4668652,50.444812 18.1350346,47.0438938 17.54515,46.2020317" id="Fill-68"></path>
                    <path d="M48.0115475,29.3451168 C48.5984054,28.643622 49.0567935,27.8799693 49.5807617,27.1344176 C49.8487994,26.7730828 50.073117,26.3577869 50.2833096,25.9278054 C50.4914844,25.5046544 50.7255549,25.0845772 50.9021167,24.6549372 C51.6601555,22.9455984 52.1155168,21.1805909 52.2053111,19.5658549 C52.2069927,19.4111435 52.1716803,19.3100517 52.0963473,19.3735756 C52.0210142,19.4370995 51.9614877,19.6030812 51.952071,19.7789672 C51.8461339,21.3206166 51.3894274,23.005707 50.6663647,24.6467405 C50.4884576,25.0586212 50.2688484,25.4623052 50.0667271,25.8676968 C49.8662874,26.2812851 49.6483597,26.6754063 49.3917565,27.0186402 C48.8946929,27.7317469 48.4379864,28.4513427 47.9025837,29.1221002 C47.7646973,29.2850082 47.6860012,29.444501 47.7277034,29.4981206 C47.7515813,29.5599368 47.8928307,29.4769459 48.0115475,29.3451168" id="Fill-70"></path>
                    <path d="M26.6450452,11.5855482 C26.0645772,10.970801 25.4128118,10.3126799 24.8239361,9.89431031 C23.1124636,8.47253663 21.2355274,7.59652186 19.3653173,7.22733201 C17.4866996,6.89946684 15.520978,7.12316652 13.5007745,7.98142192 C11.2387654,9.05005748 10.0102314,9.79834144 9.13179433,11.4284461 C8.63674862,12.1610199 8.38586268,13.139151 8.12959581,14.1210389 C7.97623926,15.1678168 7.85954031,16.2678727 7.9779208,17.4539933 C8.16087248,20.5434395 9.46642101,23.8118455 11.3208246,26.2018461 C11.4654371,26.4180322 11.6134127,26.4887281 11.6446894,26.351093 C11.681347,26.1902342 11.5891985,25.9231607 11.4338241,25.6854584 C10.5049408,24.4009783 9.87940751,22.9672512 9.3026389,21.5178139 C8.84223294,20.0584723 8.46254096,18.549951 8.41713935,17.1141747 C8.36669311,15.6865951 8.5217312,14.3293699 8.88258993,13.1726205 C9.27472532,12.0353382 9.8585564,11.1316598 10.5903631,10.4188946 C10.9407963,10.0220411 11.3679077,9.79834144 11.8471469,9.460572 C12.5076563,9.16002893 13.1506776,8.75156356 13.7990799,8.50020026 C14.4491637,8.32704646 15.0868041,7.96195493 15.7177183,7.91687346 L16.6570272,7.72630183 L17.578848,7.69283226 C19.9962316,7.59276508 22.3561064,8.57465297 24.5606068,10.2576942 L24.9893998,10.5838518 L25.4982341,11.0278359 C26.2071719,11.7730461 26.3279065,11.8003682 26.6450452,11.5855482" id="Fill-72"></path>
                    <path d="M34.6551672,13.1823882 C34.9211871,12.8063678 36.9437447,11.1445012 37.4751117,10.7978521 C39.0194391,9.61924509 40.7130873,8.89316033 42.400682,8.58715283 C44.0956755,8.31529796 45.8697013,8.5007467 47.6921556,9.21214583 C49.7335466,10.0977233 50.8420185,10.7182765 51.634697,12.0693542 C52.0813143,12.6765879 52.3076497,13.4873711 52.5386935,14.3012281 C52.6772525,15.1690463 52.7825169,16.0809213 52.6755709,17.0641753 C52.5104436,19.6249389 51.3326922,22.3339249 49.6592224,24.3151186 C49.5290712,24.4944198 49.3952205,24.5528208 49.3669706,24.4390926 C49.3340124,24.3055558 49.4170805,24.0839053 49.557321,23.8871862 C50.3954011,22.8223074 50.9600627,21.6337962 51.4803315,20.4323069 C51.8956721,19.2229626 52.2383702,17.972635 52.2793998,16.7824161 C52.3248014,15.5990278 52.1848972,14.4740404 51.8593508,13.5150347 C51.5055546,12.5724224 50.9788959,11.8234553 50.3183866,11.232615 C50.0022568,10.9037252 49.6168476,10.7182765 49.1843552,10.438225 C48.588417,10.1889108 48.0082854,9.85045834 47.423109,9.64212735 C46.8365875,9.49868633 46.2611641,9.19609409 45.6917943,9.15852621 L44.8442976,9.00074109 L44.012271,8.97273594 C41.8313122,8.88974507 39.7021448,9.70394359 37.7128816,11.0990782 L37.3257909,11.3692255 L36.8667301,11.7373907 C36.5647254,11.9928524 36.1097003,12.2906632 35.6708181,12.7964636 C35.2319359,13.3026054 34.3891474,13.5584086 34.6551672,13.1823882" id="Fill-74"></path>
                    <path d="M35.9613884,1.92967966 C38.3851618,1.11411504 41.0033213,0.5328374 43.7654208,0.459750788 C46.5181036,0.409204906 49.4406221,0.773954915 52.2044031,2.05672742 C54.9712109,3.26163194 57.4706536,5.47711257 59.0738349,8.11301198 C60.6783615,10.7584741 61.4495162,13.6515428 61.7767441,16.2775379 C61.827863,16.5589555 61.8904163,16.5965234 61.9563327,16.4124408 C62.0091331,16.2283581 62.015523,15.829797 61.9674309,15.5644312 C61.5584801,12.9367284 60.7476409,10.0453674 59.0338142,7.44874347 C58.1953978,6.14787007 57.1276192,4.97916733 55.9525583,3.95493018 C54.742185,2.98294654 53.4305829,2.13152166 52.0439841,1.54717029 C49.2802031,0.324506402 46.3802172,-0.0515139721 43.6483855,0.00552090755 C40.9118455,0.0902194115 38.3212632,0.656469893 35.9388557,1.47886504 C35.4834944,1.64484679 35.1246535,1.86957105 35.1182637,1.9966188 C35.14046,2.1137623 35.488539,2.08917241 35.9613884,1.92967966" id="Fill-76"></path>
                    <path d="M47.8470592,31.6185886 C49.1408369,30.0933325 50.1426991,28.471766 51.1095853,26.7784789 C52.0488942,25.0220096 52.7864181,23.1951858 53.3282107,21.3622145 C54.4245755,17.7270094 54.3620221,13.8049222 52.5762255,11.3029011 C51.2185492,8.72711028 48.1964834,7.23429915 44.929249,7.25692213 C44.4580812,7.26196277 44.0797344,7.39071816 44.0844428,7.55191854 C44.0891511,7.71141129 44.4594264,7.84494804 44.9083979,7.83982515 C46.4843383,7.8951524 47.9462701,8.31693728 49.1774945,8.95354217 C49.1183043,8.97949816 49.0813104,9.02013978 49.0671854,9.07546703 C47.0294939,8.11987665 44.4083076,7.94911354 41.8032641,8.48291903 C40.4980518,8.75170017 39.1914944,9.1570918 37.9125142,9.69738629 C37.2809274,9.99724631 36.6345429,10.2527079 36.0207804,10.6106274 C36.0207804,10.6106274 35.0058022,11.1707304 34.8423564,11.2766036 C34.8423564,11.2766036 30.6516196,13.5579987 30.6563279,13.6362082 C30.6499381,13.7226144 30.1706988,14.2933047 30.6657445,14.2769114 L35.0875251,11.602078 L35.5654191,11.3254418 L36.2837735,10.9429324 C36.9217502,10.5976494 37.5755334,10.3128165 38.2266261,10.032765 C39.531502,9.47129593 40.866982,9.09664166 42.1863191,8.84596141 C44.8155768,8.34801617 47.4350816,8.5645438 49.3604462,9.61439542 C49.4821898,9.74451691 49.6473171,9.85209767 49.8221974,9.9579708 C51.4253787,10.9818664 52.4864312,12.6263152 52.8698225,14.8322331 C53.2656573,17.018684 52.9818132,19.6252121 52.1561765,22.2184208 C51.5901697,24.0500259 50.7534349,25.9499363 49.7324031,27.5551096 L48.9659567,28.7548912 L48.5862647,29.3539282 L48.1228319,29.9205202 C47.487882,30.6647059 46.907414,31.434506 46.237488,32.1527356 C43.5507216,35.042389 40.3554572,37.5478254 37.0868775,40.0320872 C36.4310765,40.5139807 35.7867099,41.0105598 35.1470517,41.5136279 L33.173595,42.9739941 C31.8734274,43.975349 30.4915369,44.8868825 29.0904768,45.7987575 C26.6919266,47.2621974 16.4126656,53.9841165 13.8412529,55.8321149 C13.684197,55.9410618 13.6905869,56.0127823 13.844616,55.9980967 C13.9599697,56.0028781 14.2021117,55.9103244 14.3319266,55.8058174 C16.9050209,53.9564529 32.780787,43.8920166 37.3286831,40.089122 C41.1427547,37.5413364 44.9036896,35.2131521 47.8470592,31.6185886" id="Fill-78"></path>
                </g>
            </g>
        </g>
    </g>
</svg>