<?xml version="1.0" encoding="UTF-8"?>
<svg width="128px" height="158px" viewBox="0 0 128 158" version="1.1" xmlns="http://www.w3.org/2000/svg" xmlns:xlink="http://www.w3.org/1999/xlink">
    <title>Group 29</title>
    <defs>
        <filter x="-24.5%" y="-18.5%" width="148.9%" height="137.1%" filterUnits="objectBoundingBox" id="filter-1">
            <feOffset dx="0" dy="6" in="SourceAlpha" result="shadowOffsetOuter1"></feOffset>
            <feGaussianBlur stdDeviation="3" in="shadowOffsetOuter1" result="shadowBlurOuter1"></feGaussianBlur>
            <feColorMatrix values="0 0 0 0 0   0 0 0 0 0   0 0 0 0 0  0 0 0 0.5 0" type="matrix" in="shadowBlurOuter1" result="shadowMatrixOuter1"></feColorMatrix>
            <feMerge>
                <feMergeNode in="shadowMatrixOuter1"></feMergeNode>
                <feMergeNode in="SourceGraphic"></feMergeNode>
            </feMerge>
        </filter>
        <polygon id="path-2" points="0 0 79 0 79 70 0 70"></polygon>
        <polygon id="path-4" points="0 0 46.3196394 0 46.3196394 31.7291086 0 31.7291086"></polygon>
    </defs>
    <g id="Homepage" stroke="none" stroke-width="1" fill="none" fill-rule="evenodd">
        <g transform="translate(-619.000000, -35.000000)" id="Group-29">
            <g filter="url(#filter-1)" transform="translate(636.000000, 52.000000)">
                <g>
                    <g id="Group-3" transform="translate(0.000000, 1.000000)">
                        <mask id="mask-3" fill="white">
                            <use xlink:href="#path-2"></use>
                        </mask>
                        <g id="Clip-2"></g>
                        <path d="M14.9990556,51.2439735 C-14.9671226,24.9585409 6.21748613,-1.03662203 24.4858492,3.28853176 C41.1616112,7.2376441 41.5753907,11.1714078 41.5753907,11.1714078 C41.5753907,11.1714078 47.8014222,-2.74528575 66.329297,0.48695526 C82.0511174,3.23074868 93.3369522,29.339672 35.4136748,70" id="Fill-1" fill="#EDEFB8" mask="url(#mask-3)"></path>
                    </g>
                    <path d="M75.9105462,50 C71.3271956,53.1169626 122.926809,117.744894 62.1310481,121.900992 C30.7105801,124.046879 36.4102106,90.6899962 43.7771224,82.0806492 C54.3706275,69.7035453 75.9105462,50 75.9105462,50" id="Fill-4" fill="#B9E2F9"></path>
                    <g id="Group-15" transform="translate(42.000000, 48.000000)">
                        <path d="M47.9864769,48.7240596 C47.6065097,45.373014 46.6006607,42.2562917 45.4711752,39.3051578 C44.0423353,35.239538 42.3064419,31.1480309 40.6466326,27.4608989 C38.9582918,23.752343 37.4017394,20.554835 35.8125795,18.0803815 C37.3324486,21.6269196 38.9388179,24.954756 40.618554,28.467373 C42.2806277,31.9585662 43.9988587,35.5117992 45.4711752,39.3051578 C44.1632545,35.6711391 43.9128113,35.2074022 44.5214835,36.8115122 C45.0807917,38.4307974 46.6459488,42.1009689 47.7142954,47.3221371 C47.8311387,47.5453021 47.8891075,48.0795591 47.9864769,48.7240596 M48.8066446,51.7983805 C48.6449661,52.6709557 48.4352821,53.5346042 48.1698938,54.3513881 C47.8202696,55.1494261 47.5589572,55.9577297 47.1142279,56.7004228 C46.8895989,57.2494087 46.6781034,57.7961629 46.4340005,58.3322053 C46.0626379,58.9619769 45.7777757,59.6792292 45.4802328,60.4321879 C43.711732,63.0365233 41.4645359,65.1748903 38.9927108,66.9021874 C41.7430578,65.5127621 44.5645072,63.4578588 46.5205007,59.8599928 C44.1673304,64.5897517 40.1973745,67.7363781 36.0784208,69.6426535 C33.9992435,70.5893194 31.8620975,71.2722043 29.6923441,71.6190027 C27.5443289,72.0381066 25.3664236,72.0764909 23.250563,71.9702644 C20.6922376,72.0403382 18.1579148,71.5806183 15.6448775,70.8892532 C15.1983367,70.7723147 14.7536074,70.6576079 14.3152185,70.5406694 L13.0199785,70.1108537 C12.1413891,69.8702818 11.3275618,69.4873307 10.4833913,69.1722217 C15.3083868,72.1657569 21.2257315,73.6913128 27.2639955,72.919162 C33.2805212,72.1679886 39.277573,69.3574486 43.841256,64.6897296 C46.1083789,62.3491752 48.031765,59.5069458 49.1263787,56.1536686 C49.3573481,55.3025173 49.6748178,54.4643096 49.7672055,53.5578134 C49.9143919,52.6624754 50.0439159,51.7497306 50.0330467,50.890099 L50.0611253,49.5685159 L49.9791539,48.2857635 C49.9379417,47.4154201 49.8256272,46.5839073 49.6920272,45.7537335 C48.5974136,39.1243942 46.2161646,33.3118387 44.0292017,27.6099731 C45.1066059,31.4439477 46.3325551,35.2350747 47.3624068,39.1926827 C48.3813893,43.1177086 49.2341644,47.3582898 48.8066446,51.7983805 M3.53166615,55.1409458 C3.00722981,56.9003786 4.44739178,59.7430543 6.91468812,61.7640365 C8.7669719,63.4217061 10.8049369,64.9767198 13.0956097,66.2617038 C15.3794891,67.5341906 17.9658932,68.5446817 20.7873426,68.7959655 C23.589771,69.080724 26.2857723,68.6491229 28.9604882,67.6850502 C31.7583877,66.9704759 34.6169734,65.530169 37.0670602,63.4578588 C39.5239403,61.4065262 41.5985887,58.6749867 42.5179374,55.6685079 C42.5872282,55.513185 42.7122234,55.2833251 42.8095928,55.0240074 C42.8784308,54.7602264 42.9477216,54.4687729 42.984405,54.1960652 C43.0749812,53.649311 42.9585907,53.2047663 42.4794425,53.2453824 C43.0686408,50.57499 42.7058831,47.1114693 41.7602673,43.7733673 C40.8363898,40.3986663 39.4632542,37.0373551 37.8229188,33.7648637 C36.5272259,30.9797645 35.9529727,27.709951 34.709814,24.8418345 C32.2656146,19.5251517 32.3887983,16.9270648 31.3548707,13.6742119 C31.3136585,13.6358275 31.266106,13.6036917 31.2099487,13.5720023 L31.1216369,13.5336179 C31.0786132,13.567539 31.007058,13.697421 30.9509007,13.7741898 C30.8367747,13.9464732 30.7199313,14.1227735 30.6098812,14.2888083 C30.3965742,14.6039172 30.225838,14.8422575 30.1352618,14.8891221 C29.4876418,15.1546884 28.6996287,15.7652679 27.9786419,16.459311 C27.6176957,16.8101264 27.2703358,17.1823656 26.9510547,17.5546048 L26.4628488,18.1442067 L25.6793645,19.0547199 C23.6260015,21.5077495 21.7696418,24.067452 19.8308577,26.5503857 C18.2507554,28.4521978 17.1217228,29.9906973 15.5502253,31.7184407 C15.7164327,32.1393298 15.2889129,32.5138007 14.9696317,33.1056343 C14.4017188,33.7818242 12.3465443,35.8264619 10.4294985,37.8224496 C8.52332186,39.8202226 6.83498104,41.7903232 6.36443756,42.0264318 C6.24759423,42.0840083 6.80916682,41.1159186 7.70723008,39.6220521 C8.20358779,38.8882856 8.7887102,38.0264224 9.41685631,37.096717 C10.0925549,36.1839722 10.8158061,35.2096338 11.5390572,34.2308322 C14.5140333,30.3499929 17.8386336,26.6351884 17.5383734,26.603499 C17.2856658,26.6842847 15.0407341,29.0971446 12.877321,31.6671127 C10.7098319,34.2330638 8.67413127,36.9690667 8.32224264,37.3926338 C11.3252974,32.3629412 14.2894043,28.4352373 16.6575197,25.2993228 C19.0623184,22.1759055 20.9408693,19.8313341 22.3289499,18.1272462 C25.0100062,14.8016414 26.1281697,13.5019285 25.4117117,14.146429 C25.1073756,14.4164586 24.3062289,15.2421691 23.5118754,16.1187612 C22.6808386,17.0207941 21.661856,18.2058003 20.5282946,19.526937 C18.2747581,22.1843858 15.6752205,25.4907983 13.5661531,28.4843336 C11.9878624,30.1290596 10.3860219,33.0074417 7.80641105,36.5008665 C9.03054872,34.2286005 11.3425068,29.1993542 12.1717322,28.2245695 C15.597325,23.4546409 14.5701906,23.7121733 19.3064213,18.9694709 C20.1053036,18.1741108 21.0051784,17.2461908 21.9358491,16.2187391 C22.4109214,15.6974257 22.9050147,15.1569201 23.4104301,14.6039172 C24.0643904,13.9080888 24.7314843,13.1997631 25.4008426,12.4825108 C26.7671849,11.0189948 28.2268208,9.51441638 29.6882681,8.02099623 C30.4373335,7.26134259 31.1691894,6.52088114 31.8770426,5.80407518 C32.2420648,5.43808459 32.6025582,5.07878894 32.9521824,4.72752724 C33.2999951,4.39992103 33.7017006,3.90628006 33.9131961,3.97858552 C34.4226874,5.44254789 34.8674166,6.72530027 35.2428551,7.80407986 C34.8302804,7.10423443 34.2605559,6.13168139 33.6152003,5.03817292 C33.3951001,4.96586746 32.930897,5.66571288 32.5658748,6.05714428 C32.1945123,6.49767198 31.814545,6.94667995 31.4305018,7.39970489 C30.7113266,8.23791261 29.9862639,9.08683225 29.2824867,9.91031108 C27.9202202,11.4827316 26.732766,12.7846762 25.6639665,13.7188449 C27.475491,12.3017472 28.7104978,11.1381649 29.8911589,9.85719781 C30.4780928,9.22296289 31.0441942,8.56998212 31.6225234,7.88486559 L32.5033772,6.83375846 C32.7991086,6.48696006 33.1509972,5.98260717 33.3126758,6.1124892 C33.8203555,6.92525611 34.3751349,7.90182613 35.0073569,9.3956926 C35.3356957,10.144188 35.6789796,11.0230117 36.035397,12.052695 C36.3782281,13.0868416 36.7473262,14.1995423 37.1621653,15.4568538 C37.3283726,15.9313026 37.528999,16.4334239 37.7558924,16.9654492 C37.9696523,17.4590902 38.2608549,18.1656306 38.4705388,18.4932368 C38.6924506,19.348405 38.9021345,20.1567086 39.1652585,21.1694314 C41.4690647,27.2863839 44.5341642,32.2352908 46.706182,38.5838886 C46.4752126,38.0563265 46.7840776,37.5412617 46.6178702,36.9820102 C45.2252607,31.3332579 42.3322561,27.401537 40.3744511,21.8973956 C40.0592458,20.8163844 38.8953413,19.6014741 38.4705388,18.4932368 L38.306143,18.0571724 L38.111857,17.4675704 C37.9932021,17.0716757 37.8722829,16.678459 37.7558924,16.2865813 C37.5267346,15.5014868 37.3220323,14.7101438 37.1186887,13.9036255 L35.9294229,8.44858036 C36.5466998,9.97636791 37.1576365,11.8572025 37.8011805,13.5867312 C38.1227261,14.4441311 38.4465361,15.3100113 38.7726105,16.1848181 L39.2580991,17.5184521 L39.4546495,18.0312852 L39.6276501,18.4588694 C40.5361296,20.7440789 41.4518552,23.0779384 42.4468351,25.2930741 C42.8870355,26.1951071 43.7873632,27.141773 44.3249331,27.7715446 C43.4898203,25.7054831 42.6519902,23.6331729 41.8123486,21.5505972 C41.3567502,20.5356428 40.877602,19.4738238 40.3853202,18.3780836 L40.0008241,17.5630851 C39.8196717,17.1145234 39.6362548,16.6592668 39.452838,16.2040103 C39.0855514,15.297514 38.7119245,14.3825376 38.3387504,13.4635441 C37.9628591,12.6101612 37.6132349,11.5572687 37.2613462,10.589179 C36.9157979,9.62956951 36.5707025,8.66772839 36.2274186,7.71659918 C35.5924793,5.90405309 34.968862,4.11471617 34.3620013,2.38518746 C34.2519512,2.4423177 34.1505058,2.46999016 34.0341154,2.54675892 L33.6324098,2.92971005 L32.8466611,3.67865177 C32.3349054,4.16158082 31.8317545,4.6360296 31.3376612,5.1019981 C30.355362,6.0232232 29.4206154,6.87214284 28.5225521,7.67018086 C26.7241612,9.2573303 25.0879017,10.633812 23.509611,11.7590099 C23.3325345,11.9763726 23.1531936,12.1910573 22.7927002,12.6253364 C22.6654406,12.6806813 22.5055736,12.7869079 22.3416306,12.9208069 C22.0825826,13.1720906 21.8108539,13.4314084 21.5300676,13.7018843 C21.3031742,13.9103204 21.0658645,14.1187565 20.81995,14.3231757 C20.3231395,14.729336 19.802779,15.1292476 19.2566044,15.4613171 L21.5776202,13.3207185 C21.661856,13.1868195 21.9920064,12.8185973 22.1994259,12.5677598 L22.9312818,11.7335691 L24.4787766,10.0442101 C25.5412357,8.89357136 26.663928,7.75944686 27.8228508,6.63157098 C28.9822265,5.48718088 30.1696808,4.38072884 31.3829493,3.25106764 L33.2157592,1.56617193 L34.1464299,0.721269262 L34.614709,0.295916783 C34.7637069,0.172283376 34.8954953,0.0999779175 35.0354355,0 C35.6658461,2.14684725 36.3007854,4.31065503 36.9398006,6.47847979 L37.9198354,9.81033316 C38.2459098,10.9167852 38.5719842,12.0870624 38.9170796,13.0207848 L39.9469313,15.9888792 L40.4564225,17.4291861 L40.7997064,18.2718571 C41.2639096,19.3975013 41.7344531,20.510202 42.2656826,21.6037105 C43.1506123,23.2671823 43.6709727,26.462905 44.6274577,28.158959 C47.2224665,33.1949003 49.6571554,38.8369577 50.6245095,45.2708045 C51.0715031,48.1603448 51.3002081,51.2217222 50.6394545,54.5049256 C49.9660203,57.6662809 48.5584658,60.45138 46.8248369,62.8428161 C43.3299533,67.6279199 38.5135625,70.9874458 33.3108642,72.8722973 C30.7244601,73.844404 27.9976629,74.3724124 25.3057375,74.5018481 C23.9652094,74.6232499 22.6178881,74.4893509 21.3031742,74.4210624 C19.9866488,74.200129 18.6891444,74.0488232 17.441004,73.6529285 C16.176107,73.3637066 14.9823124,72.8383762 13.7971225,72.3933852 C12.648616,71.8256535 11.5001095,71.315052 10.4489724,70.6214552 C8.31590231,69.3235276 6.37711823,67.7725308 4.80109193,65.9831939 C4.44739178,65.7194129 4.08870993,65.4578635 3.78890263,65.1472179 C3.86453377,65.344942 3.92929577,65.5489148 4.00900285,65.7386051 C3.7630884,65.3918067 3.53845937,65.0320647 3.31156593,64.6852663 C1.59741089,63.0173311 0.282696993,60.9405577 4.91961325e-05,58.7856765 C-0.00624116215,57.874717 0.591561917,60.1938476 1.29533918,60.591974 C1.04716032,60.1643899 0.982398324,59.6917264 0.958395624,59.7002067 C0.958395624,59.7002067 1.17215551,59.6899411 1.39044421,59.6792292 C1.16355077,59.4047362 1.29533918,59.1150681 1.32794662,58.8450384 C3.07652062,62.812912 7.27110556,66.236263 11.8347886,68.2469796 C11.6835263,67.8787574 11.2627998,67.5788236 10.8112773,67.3105793 C10.3796816,67.0043969 9.90687368,66.7468645 9.62427586,66.5428917 C8.14109019,65.8555435 6.76387871,64.951279 5.768446,63.8809797 C4.24223663,62.5705548 3.09780604,60.8620036 2.5086077,59.1980854 C1.88046159,57.5194383 1.93888325,56.0130746 2.21287633,54.8941253 C2.26450478,54.677209 2.42663622,54.4879651 2.57971004,54.31345 L2.99002033,53.8198091 C3.15215177,53.6028927 3.26446629,53.5792372 3.33103981,53.689927 C3.36591166,53.745272 3.38946148,53.834538 3.40033063,53.9514764 C3.43474959,54.0197649 3.4777733,54.0835901 3.50585193,54.1599125 C3.66571896,54.4687729 3.55974478,54.8026277 3.53166615,55.1409458" id="Fill-6" fill="#035D9C"></path>
                        <g id="Group-10" transform="translate(5.680361, 44.270891)">
                            <mask id="mask-5" fill="white">
                                <use xlink:href="#path-4"></use>
                            </mask>
                            <g id="Clip-9"></g>
                            <path d="M8.47748169,28.8779966 C5.21130305,27.267638 2.2404029,25.173904 0,22.6186649 C0.671169821,23.8228632 1.2929756,24.9886771 2.46729634,26.1442254 C5.72713465,29.2185464 10.7138087,30.7441023 15.5433329,31.4778688 C22.5743123,32.5013035 30.3570744,30.3696314 36.4451553,25.6014882 C39.4889693,23.2122837 42.1808947,20.1634036 44.0571812,16.4039661 C45.0263468,14.5463407 45.6694379,12.4445728 46.0820126,10.2571095 C46.3822728,7.98082653 46.4058227,5.77684905 46.1078269,3.76613245 C46.0969577,2.92569308 45.7971504,1.21714188 45.3438164,0 C45.7885457,2.42758881 46.0906174,4.96809911 45.9696981,7.64027675 C45.7799409,10.4575116 45.0132132,13.0743444 43.9339975,15.4189158 C42.8090408,17.744295 41.3521222,19.7759892 39.7457529,21.5996935 C38.0642053,23.3461827 36.3024977,24.9654679 34.3075564,26.2250112 C30.4263652,28.871748 25.9292557,30.4164961 21.436675,30.9458435 C16.9164685,31.4653716 12.3804112,30.6164519 8.47748169,28.8779966" id="Fill-8" fill="#035D9C" mask="url(#mask-5)"></path>
                        </g>
                        <path d="M43.9028026,22.6287073 C43.386971,21.5307355 42.838532,20.4309784 42.3720644,19.3374699 C42.1433594,18.7840208 41.9123901,18.2394982 41.687761,17.6967609 L41.5260825,17.288369 C41.4676608,17.1375094 41.4350534,17.0714526 41.333608,16.7585753 C41.1587959,16.2394935 40.9885126,15.7226434 40.8177764,15.2098102 C41.0079865,16.0203455 41.2063484,16.8670334 41.4092391,17.7418402 C41.5518967,18.3269788 41.72218,18.9308633 41.9055968,19.5374258 C42.270619,20.7541213 42.7434269,21.9775118 43.146944,23.0670033 C44.4616579,26.088211 45.8501914,29.121916 47.1581121,32.2413163 C46.1912109,28.9817683 45.1332806,25.8030062 43.9028026,22.6287073" id="Fill-11" fill="#035D9C"></path>
                        <path d="M51.0242676,44.2704004 C50.8580603,43.5174417 50.6941173,42.7640367 50.5256455,42.0003661 C49.6923443,38.5600545 48.4573374,35.3558515 47.1575686,32.2409146 C48.1724752,35.6834578 49.1158266,39.2090183 49.8540228,43.0108572 C50.2729378,42.8832068 50.6764549,43.4536165 51.0242676,44.2704004" id="Fill-13" fill="#035D9C"></path>
                    </g>
                    <g id="Group-28" transform="translate(1.000000, 0.000000)" fill="#89BF4E">
                        <path d="M72.7132002,31.0089211 C73.3554838,28.6595805 73.7967202,26.2617126 73.9257107,23.8847694 C73.6988654,26.2042813 73.1224114,28.5024235 72.3208912,30.7244358 C71.5513963,32.954907 70.5590592,35.1301729 69.4034825,37.2057132 L67.5375685,40.2469005 C66.8694868,41.2316914 66.0830897,42.1399072 65.3598534,43.0930886 C64.6517402,44.0627426 63.8333178,44.9371229 62.9979933,45.8052703 C62.1564416,46.6645137 61.3824987,47.5940993 60.4835686,48.4008087 C61.8468645,47.2842375 63.0891762,46.0002696 64.3910904,44.7590413 C65.5973738,43.4305531 66.7551745,42.0317227 67.8618239,40.599502 L69.3163027,38.3009146 C69.8082457,37.5391708 70.2832865,36.7689682 70.6502422,35.9453411 C71.4579894,34.3368197 72.1598755,32.6855587 72.7132002,31.0089211 M23.2044309,60.2276484 C20.371978,56.5605045 15.9471598,52.7491145 12.8660666,49.2515932 C12.1027988,48.37098 11.3204048,47.5112914 10.5380108,46.6622877 C10.1287997,46.2188647 9.779191,45.8644825 9.32727953,45.3467104 L7.98978172,43.795175 C7.06282946,42.7894596 6.32936291,41.5989846 5.50248947,40.4890914 C4.77302608,39.3026232 4.01420624,38.1246139 3.39505195,36.8491049 C2.08646579,34.3430525 1.16040312,31.5801176 0.523901834,28.7125597 C-0.0441010623,25.8178444 -0.181987435,22.7535064 0.267700058,19.6677987 C0.706267681,16.5927758 1.83649114,13.4558697 3.77001392,10.7690646 C4.74144566,9.44280234 5.84364705,8.18643714 7.13088305,7.15712588 C7.73936227,6.59082661 8.42834934,6.15141043 9.12178436,5.7182271 L10.1586009,5.07090074 C10.4957553,4.88436033 10.8222347,4.75079918 11.1549412,4.58919019 C11.1278087,4.54066298 11.1295879,4.47699883 11.1807393,4.3919649 C11.443613,3.99306226 12.3785715,3.40539321 13.2477005,3.08885329 C14.5287093,2.6837178 15.8537529,2.37608195 17.1427681,2.07245294 C18.5020608,1.9282069 19.8035303,1.64817369 21.162823,1.67577633 C22.4073588,1.59697525 23.6456673,1.50570847 24.890203,1.6374888 C26.1369627,1.66687225 27.3516972,1.90283028 28.5646525,2.13166505 C30.9523107,2.68594382 33.2759185,3.47306419 35.3642298,4.62124487 C32.0100326,2.82573782 28.1874665,1.65618736 24.2456955,1.44204432 C23.0692133,1.33163377 22.1298068,1.27865451 22.233444,0.941190012 C22.3246269,0.661156803 23.4250491,0.298315682 24.7145091,0.421191939 C27.538511,0.512458724 30.4007652,1.18516171 33.0512971,2.22115102 C34.3932429,2.71755329 35.6529016,3.3688865 36.8698601,4.0674113 C37.465885,4.43648528 38.0805914,4.7761758 38.6379192,5.19021536 C39.0093228,5.44887879 38.9750736,5.44264593 39.0898307,5.52946068 C39.1787896,5.59535085 39.2592975,5.67593274 39.3442533,5.7525078 C39.6729566,6.04099988 39.9803097,6.37623836 40.2814358,6.75599723 C40.3512686,6.93007193 40.4615777,6.74976438 40.5549846,6.74130551 L40.8476595,6.60551834 C41.0402556,6.51425155 41.2417477,6.42521079 41.4623659,6.35308777 C41.7488137,6.31702626 44.5559133,5.10072939 46.4876569,4.65329954 C51.5890079,2.47758843 57.3095132,1.13886051 63.3373717,2.00433676 C66.3268372,2.43306805 69.3905834,3.50289285 72.0749197,5.39768035 C74.7570321,7.2635296 77.0299333,9.93964982 78.3616487,12.9425496 C79.7378437,15.9347646 80.3187457,19.117972 80.4117078,22.1400156 C80.5051147,25.1727441 80.153282,28.0932812 79.5256766,30.8286135 C78.9127494,33.5790828 78.0818729,36.2124634 77.0873118,38.6980364 C76.8328892,39.321767 76.610047,39.9459427 76.3280472,40.5736801 L75.3784104,42.4666868 L74.4074234,44.3681524 L73.9132565,45.3191078 L73.3683829,46.1765703 C73.1522126,46.5478703 72.8168374,46.9320812 72.6006671,47.0402658 C72.3462445,47.2081076 72.306213,47.0634164 72.490358,46.7281779 C72.8444147,46.119139 73.2113703,45.533696 73.5529727,44.9032874 L74.5003855,42.8976441 C75.1004136,41.560697 75.8174228,40.2259759 76.2306371,38.8992685 C77.2229742,36.2850316 78.0115953,33.4771311 78.5947212,30.5761829 C79.167172,27.6707827 79.4767492,24.5957599 79.2289985,21.4103265 C78.9914781,18.2395848 78.1112293,14.9268231 76.3662995,12.0067312 C74.6680731,9.05235859 71.9539356,6.72438776 69.0111735,5.27703011 C66.0279351,3.8697408 62.8325296,3.31368122 59.7474332,3.31368122 C56.6561097,3.34796192 53.6559691,3.9271721 50.806614,4.84829882 C49.3797124,5.30240673 47.9906184,5.85445948 46.6424455,6.48041606 C45.9765878,6.80719567 45.2853767,7.09346173 44.6448723,7.46476173 L43.6676582,7.99544469 L43.2562231,8.22071783 L42.9190687,8.426402 L42.0984223,8.93972202 C41.481492,9.30078232 40.9152683,9.7401985 40.3236913,10.1306423 C40.9023693,9.85461589 41.4770441,9.50869251 42.164252,9.21174156 C42.7046776,8.97800955 43.1819424,8.72157214 43.8286739,8.47092238 C44.5683676,8.17397143 45.2787048,7.81958918 46.0441966,7.56448739 C47.5498268,7.00442097 49.0932646,6.50134064 50.689633,6.1362735 C51.0628157,5.84778142 51.7055442,5.4849403 52.5324176,5.29394785 C54.4850666,4.71251165 56.5311224,4.38128 58.6114275,4.27532149 C58.5220237,4.22011622 58.4713171,4.15867809 58.46509,4.09501394 C58.4690931,3.86128193 59.2577142,3.60662534 60.222474,3.68943325 C62.9281605,3.8465902 65.6761025,4.47076597 68.2052054,5.74805576 C70.7454282,6.98972924 72.9698468,9.03321482 74.4963824,11.492966 C74.5791142,11.6073834 74.644499,11.7200199 74.7063255,11.8366633 C76.5931448,14.8778507 77.4458164,18.4728716 77.4160151,21.887585 C77.4200183,25.327675 76.7354791,28.6488956 75.7111168,31.7795689 C73.7477928,37.9848199 70.0542172,43.8272297 65.6801056,48.5873491 C56.874504,58.1374164 46.2287864,65.0959523 35.296621,71.2695938 C35.0270754,71.5051066 34.5440283,71.7472975 34.2789306,71.785585 C33.9733566,71.8407903 33.9524513,71.6943182 34.2193281,71.4605862 C34.1641736,71.3822304 34.0182809,71.3016485 34.111243,71.2357583 C41.759044,65.8964288 48.749883,60.4974419 56.3278512,54.0646918 L58.2782762,52.4009651 L60.1419662,50.6330607 L61.9949811,48.8673823 L63.7296806,46.9766016 C63.0660469,47.554031 62.4108642,48.1270083 61.7574607,48.6955336 C61.0644705,49.1941619 60.3794866,49.6887833 59.6967266,50.1789528 C59.0206386,50.6397387 58.3503329,51.0978535 57.6844752,51.5501806 C57.0146143,51.9744598 56.3189553,52.3395269 55.6553215,52.7023681 C48.9745044,58.3070391 41.5895772,63.3538697 33.8697195,66.8384801 L34.2491294,66.8086514 C33.5939467,67.1759446 32.8987325,67.362485 32.7733004,67.1737186 C32.6016096,67.0187876 33.0535211,66.5669057 33.7127069,66.1849209 C40.3428175,61.8913751 46.8817451,57.3756727 52.9011524,52.2865477 C54.3832086,50.991895 55.91864,49.7546735 57.2966142,48.364302 L59.4169507,46.3377341 L61.3802748,44.186064 C62.7564697,42.8023705 63.8333178,41.2210065 65.0142479,39.7206696 C65.6463012,38.9883093 66.01726,38.1268399 66.5345563,37.3437264 C66.9966981,36.5223253 67.5522467,35.7904102 67.9361046,34.8946601 C69.6281038,31.4608029 70.9851726,27.8640012 71.4602134,24.281446 C71.9668346,20.7180345 71.5215951,17.1848969 69.8593971,14.5363794 C68.2247764,11.8771769 65.3683045,10.1813955 62.0737098,9.61064419 C58.7742223,9.02074911 55.1487003,9.54074719 51.7371246,10.7183113 C50.4925889,11.1492686 49.2671793,11.6754996 48.0733502,12.2591618 C47.4710981,12.5351881 46.8968681,12.8895704 46.3070703,13.1949802 C45.4441685,13.6557662 44.4754055,14.3431609 43.5613523,14.9054533 C42.7282517,14.9922681 42.216293,16.1471268 41.5700062,16.2726743 L40.4629121,16.5527075 C40.1515557,16.5696253 39.5399629,17.3068828 39.3108936,17.0989726 C38.2362695,16.6257209 37.2283646,14.5194616 35.6827029,14.0715866 C35.1289334,13.589876 34.5609305,13.1250832 33.9586784,12.7471052 C33.6193,12.5115923 33.2803664,12.2929973 32.9218619,12.0997788 C32.2306508,11.6710475 31.4989634,11.3464939 30.778396,10.9961185 C30.0320304,10.7334482 29.3087941,10.3683811 28.5455263,10.2049913 L27.4135237,9.8906774 L26.264174,9.70814383 C23.1982038,9.23266614 20.0348236,9.63824683 16.9733013,10.8776943 C15.5014755,11.5971437 14.0536685,11.798821 13.8117002,11.3188913 C13.5554984,10.8264958 14.6705989,9.76112308 16.3118915,8.99092046 C19.6109342,7.59876808 23.1706265,7.07654399 26.6373568,7.56448739 C28.3800627,7.73678127 30.0636108,8.31599145 31.7133545,8.95040691 C32.5188778,9.32393292 33.335521,9.68276721 34.1005679,10.145334 C34.4995488,10.3554702 34.8727316,10.590983 35.2521416,10.8478656 C35.7374126,11.1532755 36.2040023,11.497418 36.6536898,11.864266 C37.8110458,12.4180995 38.8078308,13.0315904 39.7027578,13.6811428 L39.8659975,13.8084711 C39.921152,13.8360737 39.9972119,13.7639507 40.0630416,13.7465878 L40.4678048,13.5622734 L41.277776,13.1927542 C41.8141985,12.9447757 42.3443938,12.6901191 42.9657721,12.4777569 C43.6694374,12.0427927 44.3375191,11.5797807 45.0687617,11.1746452 L46.8310385,10.2241351 L48.6458011,9.3684533 L50.5157182,8.62986015 C55.5410093,6.81342853 61.2125872,6.30010851 66.0470613,8.35427898 C62.3641608,6.56723081 57.9940523,6.27428669 53.7938555,6.84726402 C51.8794589,7.27421449 50.0259992,7.9616092 48.1983376,8.71088725 C46.383575,9.53184311 44.6786767,10.3723879 42.7496019,11.5949177 C42.2042835,11.8411154 41.7145645,12.1273814 41.2186183,12.4096407 L40.4722527,12.8343651 L40.096846,13.0462821 C40.0376883,13.0676519 39.9674107,13.1482338 39.9122562,13.1206312 L39.7596916,12.9741591 C38.9474963,12.2360112 38.0636892,11.5268015 37.0860303,10.8817011 C36.7003933,10.5549215 36.2934061,10.2517377 35.8797469,9.96947847 C32.6207358,7.66866508 28.8448732,6.12158177 24.896875,5.86469916 C20.961331,5.5548373 16.9666294,6.49288177 13.4238392,8.29284085 C9.7622888,9.89691025 6.85333113,13.1887474 5.6190257,17.0700344 C4.96384303,19.0035546 4.78592513,21.0644031 4.79660021,23.1078887 C4.93848973,25.1495935 5.2289407,27.2019831 5.93927792,29.1519759 C7.20516378,32.957133 9.30192623,36.1127378 11.6811334,38.6891323 C12.2384612,39.3622805 12.910546,39.9330318 13.5256972,40.5229269 C14.1319524,41.0981302 14.7871351,41.6857993 15.4783461,42.2886053 C16.8269638,43.4835324 18.1244301,44.6953772 19.400991,45.9196877 C21.949665,48.3749868 24.3942569,50.8877173 26.7690161,53.602125 C27.9454982,54.9733528 29.1202011,56.3739641 30.2566517,57.8974516 C31.3953263,59.436076 32.5104267,60.9982962 33.5939467,62.9972614 C33.9822525,63.6485946 34.2744827,64.7291043 34.215325,65.1110892 C34.1730695,65.270027 34.0774386,65.2958488 33.9631264,65.2085889 C33.8292431,65.0919454 33.6491013,64.8012273 33.4627323,64.4000987 C32.3916665,62.2947298 31.2872411,60.8242215 30.1507906,59.2855971 C29.01434,57.7808082 27.8543153,56.3655052 26.6671581,54.9902706 C24.298626,52.2398013 21.845583,49.6420369 19.2844548,47.108382 C18.0123418,45.8346538 16.6913014,44.5974324 15.3555828,43.3624369 C13.9731607,42.1336744 12.6859247,40.9538842 11.3991335,39.6676903 C8.89049109,37.0507822 6.67719241,33.8974035 5.20981453,30.1474516 C3.70240512,26.1913704 3.02809628,21.6965926 4.20057524,17.3905811 C5.19736028,13.0845697 8.33939039,9.15208424 12.3042908,7.19986545 C16.048573,5.14302376 20.4462587,3.98861023 24.8265974,4.2882324 C29.2029329,4.52151921 33.4476093,6.27873873 36.8805351,8.79146914 C37.1709861,8.99314648 37.450762,9.21174156 37.7203076,9.43879551 C38.2291528,9.83769814 38.7104207,10.2686554 39.1810136,10.7160853 C38.7144239,10.2005393 38.2500582,9.71259586 37.7901404,9.27941254 C36.9717181,8.44109373 35.6231004,7.39709075 34.3278581,6.56500479 C33.0068177,5.72668598 31.6114965,4.96494222 30.1249925,4.39419092 C26.4358648,3.26070196 22.4033556,3.0786136 18.620821,3.90179548 C17.6493893,4.03980867 16.7504591,4.37282113 15.8324028,4.66353923 L14.4544286,5.11141428 L13.1565175,5.7057614 L11.8568273,6.30856738 C11.4244868,6.49288177 10.9917015,6.71592889 10.554913,7.01287984 L9.25121963,7.84051376 C8.82065831,8.12054697 8.44969949,8.49229217 8.04893942,8.81907178 C6.43344489,10.1391011 5.1866852,11.8602591 4.14764466,13.657547 C3.22736433,15.5082593 2.46409653,17.473389 2.17364556,19.493724 C1.46953547,23.5237091 1.90409994,27.6240363 3.13395743,31.3762142 C4.08804217,34.2985322 5.51094057,36.9639675 7.13711018,39.4237186 C8.02136214,40.6035088 8.85045956,41.8198057 9.84902377,42.8785004 L11.2803733,44.4785629 L12.6369973,45.9219137 C16.2140367,49.8205637 21.3047126,53.7125356 24.2479194,58.2371421 C25.0387645,59.3492612 31.469607,64.9241036 31.2512128,65.34215 C31.0368217,65.7584156 23.9850457,61.3250758 23.2044309,60.2276484" id="Fill-16"></path>
                        <path d="M63.4991435,38.2534559 C64.2753104,37.3390072 64.8815656,36.3435314 65.5745558,35.3716515 C65.9290572,34.9006258 66.2257353,34.359258 66.5037321,33.7987463 C66.77906,33.2471388 67.0886372,32.6995381 67.3221544,32.1394717 C68.3247218,29.9112265 68.9269739,27.6104131 69.0457341,25.5054894 C69.047958,25.3038121 69.0012546,25.1720317 68.9016206,25.2548396 C68.8019865,25.3376476 68.7232579,25.5540166 68.7108036,25.7832966 C68.5706933,27.7929467 67.966662,29.9895824 67.0103533,32.1287868 C66.7750569,32.6657026 66.4846059,33.1919335 66.2172842,33.7203905 C65.9521866,34.2595323 65.6639596,34.7732975 65.3245812,35.2207274 C64.6671745,36.150313 64.0631433,37.0883574 63.35503,37.9627378 C63.1726642,38.1751 63.0685822,38.3830102 63.1237368,38.4529072 C63.155762,38.5334891 63.342131,38.4253045 63.4991435,38.2534559" id="Fill-18"></path>
                        <path d="M35.2402211,15.1025451 C34.4725053,14.3011782 33.6104931,13.4432704 32.8316575,12.8978957 C30.568097,11.0445122 28.0856975,9.90256434 25.6121939,9.421299 C23.1275704,8.99390332 20.5277451,9.28551183 17.855863,10.4043091 C14.8641735,11.7973518 13.2393383,12.7727934 12.0775344,14.8977513 C11.4227966,15.8527135 11.0909797,17.1277773 10.7520461,18.4077383 C10.5492197,19.772288 10.3948759,21.2062896 10.5514436,22.7524825 C10.793412,26.7797963 12.5201052,31.040397 14.9727035,34.1559334 C15.1639652,34.4377474 15.3596749,34.5299046 15.4010408,34.3504874 C15.4495234,34.1407964 15.3276497,33.792647 15.1221545,33.4827852 C13.8936314,31.8083736 13.0663132,29.9394079 12.3034902,28.0499628 C11.6945662,26.1476069 11.1923929,24.1811416 11.1323456,22.3095047 C11.0656264,20.4485527 11.2706768,18.6793126 11.7479415,17.1714073 C12.2665722,15.6888785 13.0387359,14.5108692 14.0066093,13.5817288 C14.4700854,13.0644019 15.0349747,12.7727934 15.6688072,12.3324868 C16.5423841,11.9407075 17.3928317,11.4082437 18.250396,11.0805737 C19.1101842,10.8548553 19.9535151,10.3789324 20.78795,10.3201655 L22.0302618,10.0717418 L23.2494442,10.0281118 C26.4466288,9.8976671 29.5677536,11.1776281 32.4833832,13.3715926 L33.0504965,13.7967622 L33.723471,14.3755272 C34.6610983,15.346962 34.8207796,15.3825783 35.2402211,15.1025451" id="Fill-20"></path>
                        <path d="M45.8342535,17.1841401 C46.1860861,16.6939707 48.8610817,14.5276088 49.5638574,14.075727 C51.6063549,12.5393285 53.8463413,11.5928252 56.0783214,11.1939226 C58.3200869,10.8395403 60.6663792,11.081286 63.076722,12.0086456 C65.7761813,13.1630591 67.2426696,13.9719945 68.2910508,15.7332208 C68.8817382,16.5247932 69.1810851,17.5817071 69.4866591,18.643073 C69.6699145,19.7738908 69.8091353,20.962585 69.6676906,22.2443268 C69.4492963,25.5824651 67.8916251,29.1138219 65.6783264,31.6968945 C65.5061909,31.9301813 65.3291626,32.0063112 65.2917998,31.8580583 C65.2482099,31.6839836 65.3580742,31.3950463 65.5435536,31.1386089 C66.6519822,29.7504634 67.3987925,28.2011541 68.08689,26.634927 C68.6362115,25.0584602 69.0894574,23.428569 69.1437223,21.8770337 C69.2037696,20.3344024 69.018735,18.867901 68.5881737,17.6177686 C68.1202496,16.3890061 67.423701,15.4126741 66.5501242,14.6424714 C66.1320171,14.2137401 65.6222823,13.9719945 65.0502763,13.6069273 C64.2621,13.2819285 63.494829,12.8407315 62.7208862,12.5691572 C61.9451641,12.3821716 61.1841203,11.987721 60.4310828,11.9387486 L59.3102,11.7330644 L58.2097778,11.6965577 C55.3252838,11.5883732 52.5092883,12.6497391 49.8783273,14.4683967 L49.3663686,14.820553 L48.7592237,15.3004827 C48.359798,15.6334952 47.7579908,16.0217129 47.1775336,16.6810598 C46.5970765,17.3408518 45.4824208,17.6743095 45.8342535,17.1841401" id="Fill-22"></path>
                        <path d="M47.5618363,2.51547527 C50.767472,1.45232853 54.2301992,0.69459161 57.8832984,0.599317991 C61.5239435,0.533427824 65.3892099,1.00890551 69.0445331,2.6810911 C72.7038595,4.25177021 76.0095741,7.13980745 78.1299107,10.5758906 C80.2520264,14.0244395 81.2719408,17.7957611 81.7047261,21.2189334 C81.7723349,21.5857813 81.8550667,21.6347537 81.9422465,21.3947889 C82.0120793,21.154824 82.0205304,20.6352711 81.9569247,20.2893478 C81.4160543,16.8639495 80.3436542,13.0948539 78.0769801,9.70996916 C76.967662,8.01418777 75.5558835,6.49070027 74.0017706,5.15553398 C72.4009543,3.88848388 70.6662548,2.77859074 68.832366,2.01684698 C65.1770428,0.423017274 61.3415776,-0.0671521422 57.7285099,0.00719689734 C54.109215,0.117607447 50.682961,0.855755397 47.532035,1.92780622 C46.9297829,2.14417528 46.4551869,2.4371194 46.4467358,2.60273522 C46.4760923,2.75544014 46.9364548,2.72338546 47.5618363,2.51547527" id="Fill-24"></path>
                        <path d="M63.2815944,41.2170887 C64.9927198,39.2288084 66.3177634,37.1149806 67.5961035,34.90766 C68.83886,32.6179767 69.8142949,30.2365815 70.5308593,27.8471725 C71.9808901,23.1084229 71.8981583,17.9957022 69.5362982,14.7341389 C67.7406618,11.3764116 63.7437362,9.43042568 59.4225552,9.45991635 C58.7993977,9.46648719 58.2990036,9.63432903 58.3052307,9.84446524 C58.3114579,10.0523754 58.8011769,10.2264501 59.3949779,10.2197721 C61.4792861,10.2918951 63.4128089,10.8417218 65.0412024,11.6715818 C64.9629186,11.7054172 64.9139911,11.7583965 64.8953098,11.8305195 C62.2002984,10.5848392 58.7335681,10.3622373 55.288188,11.0580909 C53.5619395,11.4084663 51.8339119,11.9369232 50.1423575,12.6412357 C49.3070329,13.0321247 48.4521374,13.3651371 47.640387,13.8317107 C47.640387,13.8317107 46.2979965,14.561845 46.0818262,14.6998582 C46.0818262,14.6998582 40.5392388,17.6738198 40.545466,17.7757715 C40.5370149,17.888408 39.9031823,18.6323436 40.5579202,18.6109739 L46.4060816,15.1241375 L47.0381349,14.7635224 L47.9882165,14.2648941 C48.8319922,13.814793 49.6966731,13.443493 50.5577958,13.0784259 C52.2835994,12.3465108 54.0498794,11.8581222 55.7948092,11.5313426 C59.2722145,10.8822354 62.7367208,11.1644946 65.2831708,12.5330512 C65.4441865,12.703119 65.6625807,12.842913 65.893874,12.9809262 C68.0142106,14.3156473 69.417538,16.4593037 69.924604,19.3348753 C70.4481274,22.1850702 70.0727207,25.5828658 68.9807495,28.9632985 C68.23216,31.3509266 67.1255106,33.8275955 65.7751138,35.9200535 L64.7614265,37.4840546 L64.2592533,38.2649421 L63.6463261,39.0035353 C62.8065536,39.9736344 62.0388379,40.9771238 61.1528067,41.9133875 C57.5993415,45.6802571 53.3733466,48.9462724 49.0503864,52.1846851 C48.1830366,52.8128677 47.3308099,53.460194 46.4848103,54.1159793 L43.8747547,56.0196708 C42.1551782,57.3250085 40.3275165,58.5132575 38.4745016,59.7019517 C35.3022254,61.6096501 21.7070739,70.3721519 18.3061732,72.7811498 C18.0984541,72.9231699 18.1069052,73.0166627 18.3106212,72.9975189 C18.4631858,73.0037517 18.783438,72.8831015 18.9551288,72.7468691 C22.3582534,70.3360904 43.3552344,57.2163787 49.3701938,52.2590341 C54.4146111,48.9378135 59.3887508,45.902859 63.2815944,41.2170887" id="Fill-26"></path>
                    </g>
                </g>
            </g>
        </g>
    </g>
</svg>