<?xml version="1.0" encoding="UTF-8"?>
<svg width="239px" height="50px" viewBox="0 0 239 50" version="1.1" xmlns="http://www.w3.org/2000/svg" xmlns:xlink="http://www.w3.org/1999/xlink">
    <title>Group 31</title>
    <defs>
        <polygon id="path-1" points="0 0 16 0 16 48 0 48"></polygon>
        <polygon id="path-3" points="0 0 27 0 27 43 0 43"></polygon>
    </defs>
    <g id="Homepage" stroke="none" stroke-width="1" fill="none" fill-rule="evenodd">
        <g transform="translate(-125.000000, -89.000000)" id="Group-31">
            <g transform="translate(125.000000, 89.000000)">
                <g id="Group-3">
                    <mask id="mask-2" fill="white">
                        <use xlink:href="#path-1"></use>
                    </mask>
                    <g id="Clip-2"></g>
                    <path d="M13.3729669,47.8804281 C13.1733034,47.8391964 12.9560666,47.819705 12.7152739,47.819705 C11.6403066,41.7159136 10.5657132,36.6076803 9.49111984,32.498004 C8.41802206,28.3883277 7.06337633,24.5181701 5.43279118,20.8875312 L4.1794728,23.2208707 C3.821275,23.9000693 3.61974201,24.5005529 3.58235184,25.0166988 C3.4612077,26.2139176 3.40250514,27.0929025 3.40250514,27.650655 C3.40250514,28.8474989 3.4612077,30.6826846 3.58235184,33.1554623 C3.70013087,35.5911314 3.75883343,37.4458084 3.75883343,38.7232416 L3.75883343,43.6313136 C3.75883343,45.7472497 3.08356702,46.8031561 1.73266031,46.8031561 C0.573939054,46.8031561 0,45.6861518 0,43.4510186 C0,41.6964222 0.117779024,39.001743 0.356328286,35.3711041 C0.636380632,32.0193414 0.775472051,29.3460277 0.775472051,27.3522874 L0.83604412,22.2043218 L0.83604412,15.9790843 C0.83604412,13.7851828 0.696952701,11.4908259 0.416900355,9.09638848 C0.137221911,6.62361077 0,4.74756827 0,3.47163446 C0,2.95174017 0.156664797,2.51393444 0.477472425,2.15484379 C0.793045429,1.79575313 1.19237241,1.61545814 1.67208824,1.61545814 C3.14413909,1.61545814 3.87997757,3.23249058 3.87997757,6.46280713 L3.6414283,18.7326124 L4.77472425,15.8006635 C6.08861469,12.448526 7.44139091,9.13574601 8.83492242,5.86419776 C9.62983735,4.06836966 10.3466068,2.65337257 10.9829875,1.61545814 C11.6601234,0.537811346 12.1981679,-7.49667335e-05 12.5956254,-7.49667335e-05 C13.034212,-7.49667335e-05 13.4212002,0.148359166 13.7614507,0.448600933 C14.0983361,0.748842701 14.2677136,1.11692936 14.2677136,1.55623442 C14.2677136,1.95468261 13.1927463,4.42783515 11.0435595,8.97681654 C8.93325855,13.3260116 7.69975696,16.218603 7.34305478,17.6553404 L7.34305478,18.7326124 C7.93868013,20.2495643 9.53187512,25.1062841 12.1181529,33.3057706 C14.7063002,41.5071312 16,45.8454561 16,46.3241187 C16,46.8031561 15.8093102,47.2016043 15.4316695,47.5213374 C15.0517854,47.8391964 14.604599,48 14.087493,48 C13.8504393,48 13.6118901,47.9591431 13.3729669,47.8804281" id="Fill-1" fill="#058D54" mask="url(#mask-2)"></path>
                </g>
                <path d="M18,45.1951743 C18,44.232676 18.5738846,43.7516152 19.7220018,43.7516152 L20.3324285,43.7516152 L20.8899561,43.8126424 C21.1850769,43.8126424 21.3893645,43.7120604 21.4986427,43.5127799 C21.6114011,43.3116159 21.6681283,42.9503494 21.6681283,42.4278503 C21.6681283,41.747509 21.6298462,40.6844286 21.556762,39.2404927 C21.4440036,38.2779944 21.3145403,36.5541617 21.1652398,34.0671112 C20.8335769,27.9327381 20.6658314,23.2999378 20.6658314,20.171724 C20.6658314,19.0491232 20.6842765,18.0274811 20.7222106,17.1045375 L20.7768497,14.037351 C20.7768497,12.7139628 20.7222106,11.6113277 20.6111923,10.7298224 C20.0171226,10.8895481 19.5907984,10.9686576 19.3336117,10.9686576 C18.4444212,10.9686576 18,10.4891036 18,9.52660526 C18,9.04516773 18.2770237,8.62325065 18.8328113,8.26236085 C19.3885989,7.90147106 20.0919468,7.64116329 20.9428552,7.48106082 C22.4261154,7.15972575 23.7416301,7 24.8897473,7 C25.3341686,7 25.7124661,7.17065039 26.0291641,7.51157447 C26.3430779,7.85287525 26.5021229,8.24277184 26.5021229,8.68427794 C26.5021229,9.12616074 26.381012,9.5051327 26.1387903,9.82646776 C25.9000487,10.1478028 25.5930953,10.3075286 25.2231503,10.3075286 C25.0007656,10.3075286 24.8149231,10.2898231 24.6673627,10.2483848 L24.2225934,10.2483848 C23.8512564,10.2483848 23.5822371,10.3380422 23.4183198,10.5177337 C23.2505742,10.6993087 23.1677455,11.0296849 23.1677455,11.5107457 C23.1677455,15.4002938 23.3897821,21.2543934 23.8345514,29.074928 C23.9076356,30.5188638 24.0551959,32.6446479 24.2775806,35.4515266 C24.4634231,37.295907 24.5559964,39.181349 24.5559964,41.1044621 L24.5559964,43.3922322 C24.778381,43.3511706 25.1500661,43.3293214 25.6675715,43.3293214 C27.2239159,43.3293214 28,44.0333955 28,45.4358931 L28,45.7967829 L26.6117491,46.818425 C26.5752071,46.818425 26.4558363,46.8293496 26.2515487,46.8489386 C26.0476091,46.8707879 25.6675715,46.8794523 25.112132,46.8794523 C23.9257326,46.9604453 23.1677455,47 22.8339946,47 C19.6106355,47 18,46.3983914 18,45.1951743" id="Fill-4" fill="#058D54"></path>
                <path d="M34.7862496,47.274343 C34.145546,47.6769387 33.4638103,47.8791834 32.7421717,47.8791834 C32.2614558,47.8791834 31.8503816,47.6678491 31.5093255,47.2436654 C31.1686458,46.8213755 31,46.3680292 31,45.8843841 C31,42.4973535 31.1400363,37.9820701 31.4197324,32.338534 C31.6602786,26.3302757 31.7803634,21.8365803 31.7803634,18.8521454 L31.7803634,18.4279618 C31.5401937,15.8896772 31.4197324,13.9941065 31.4197324,12.7446584 C31.4197324,8.91374994 32.1214195,7 33.5247938,7 C33.9249512,7 34.2746655,7.14997922 34.5761952,7.45296753 C34.8758427,7.7544409 35.0267958,8.1085585 35.0267958,8.51115422 C35.0267958,8.99479932 34.967318,9.76211722 34.8453509,10.8093206 C34.7252661,11.8167567 34.6676705,12.5840746 34.6676705,13.107487 C34.6676705,15.808249 34.6857397,18.247305 34.7252661,20.4246548 C34.7647924,22.5622373 34.7862496,24.981599 34.7862496,27.6804674 C34.5852298,28.2853078 34.4847199,29.1321602 34.4847199,30.2206457 L34.4847199,30.9466814 L34.3665172,35.7251859 C34.2855823,37.1352178 34.2441737,38.7474943 34.2441737,40.5620156 C34.2441737,43.3442058 34.9048287,44.7341647 36.2287738,44.7341647 C36.3097088,44.7341647 36.4388282,44.7250751 36.6183909,44.7053808 C36.7994593,44.6837929 37.0490401,44.6747032 37.3701448,44.6747032 C37.732658,44.634936 38.190411,44.6133481 38.7520619,44.6133481 C40.9177304,44.6133481 42,45.2181885 42,46.4274906 C42,46.83198 41.8185551,47.1732206 41.4579241,47.4568934 C41.097293,47.7382938 40.655727,47.9189506 40.1354848,48 C38.6925841,47.5163549 36.910886,47.274343 34.7862496,47.274343" id="Fill-6" fill="#058D54"></path>
                <path d="M53.6109722,44.5699392 C54.2193966,43.9845786 54.6860966,43.183699 55.0110722,42.1726216 C55.7791271,40.1090356 56.2462081,37.8858058 56.4096483,35.4976108 C56.6111865,33.4340248 56.7129081,31.6547567 56.7129081,30.1563858 C56.7129081,28.3353063 56.5711837,25.9471112 56.2877348,22.9937011 C56.0442889,19.8791268 55.9227564,17.5525087 55.9227564,16.0142268 L55.9227564,14.9218071 C55.8412268,13.3850456 55.3215706,12.0497394 54.3717885,10.9174088 C53.4185775,9.78317767 52.2508751,9.21796264 50.8740148,9.21796264 C49.4937257,9.21796264 48.5805177,10.0059188 48.1355335,11.5841116 C47.7305522,12.8380756 47.5271091,14.4576998 47.5271091,16.4399435 C47.5271091,17.2085143 47.54692,17.8550717 47.5888278,18.3826564 L47.5888278,20.0205256 L47.4669143,22.8123914 C47.3834798,23.6623045 47.3453818,24.5935599 47.3453818,25.6046373 C47.3453818,27.7879561 47.4071005,29.9553106 47.5271091,32.0987185 C47.6886444,35.1334709 48.0955306,38.086881 48.7439579,40.9589487 C49.3939091,43.9537902 50.3455961,45.4506407 51.6039717,45.4506407 C52.3343096,45.4506407 53.0025478,45.1568202 53.6109722,44.5699392 M48.9272091,46.9980452 C48.0357168,46.3309622 47.303855,45.4304952 46.7369574,44.2981646 C45.5601114,41.8305278 44.8301545,39.1378692 44.5467057,36.2262706 C44.1817273,33.4739357 44,30.8249891 44,28.2737294 C44,27.7879561 44.0201919,27.3858058 44.0601948,27.0596764 L44.0601948,25.9672567 C44.0601948,25.7661816 44.0384789,25.6646937 44,25.6646937 L44,24.571894 L44.0601948,20.3230886 C44.1021025,19.0292137 44.2636379,16.9656277 44.5467057,14.1334709 C44.7501488,12.1911381 45.2153249,10.3103823 45.9452818,8.48930278 C46.2302545,7.67968071 46.595233,7.06163119 47.0421221,6.63781494 C47.4871062,6.21361859 47.9919042,6 48.5622306,6 C50.1821559,6 51.6420697,6.29344049 52.942734,6.88032146 C54.2392076,7.46758254 55.3345239,8.28670721 56.2260161,9.3392159 C57.0378837,10.3502932 57.7278377,11.5932341 58.2947353,13.0718397 C58.8631569,14.5485447 59.2681382,16.1157146 59.5112032,17.7737294 C59.7546491,19.4731755 59.8761816,21.2741095 59.8761816,23.1769114 L59.8761816,23.6623045 C59.8761816,24.9162685 59.8963736,26.048599 59.9363764,27.0596764 L60,30.5205256 C60,42.1726216 57.2813296,48 51.8455128,48 C50.7905803,48 49.8190823,47.664748 48.9272091,46.9980452" id="Fill-8" fill="#058D54"></path>
                <g id="Group-12" transform="translate(64.000000, 7.000000)">
                    <mask id="mask-4" fill="white">
                        <use xlink:href="#path-3"></use>
                    </mask>
                    <g id="Clip-11"></g>
                    <path d="M23.0010557,39.255099 L23.0010557,35.389502 L23.0010557,31.5239051 C23.0010557,29.5116766 22.8577685,26.8738416 22.5715794,23.6122915 C22.2426352,19.9501869 22.0793187,17.4333883 22.0793187,16.0630304 L22.2002653,12.3199827 C22.2830792,11.2325472 22.325449,10.0047852 22.325449,8.63442726 C22.1602066,9.15942223 21.4842147,11.9375836 20.2943921,16.9700462 C19.1064953,21.8417573 17.8766138,26.3511161 16.6059032,30.4977442 C15.3756366,34.4843774 14.371471,36.4765593 13.5910952,36.4765593 C12.8126453,36.4765593 12.1863418,36.2458339 11.7164215,35.7824918 C11.2445754,35.3191497 11.0096152,34.6863568 11.0096152,33.8803306 C11.0096152,32.1097965 10.2785426,28.3451892 8.82448607,22.5861306 C7.36850364,16.8293415 6.04810477,12.1180034 4.85828209,8.45438576 L4.48927914,15.2785638 C4.16072014,21.0376224 3.93500435,25.8280123 3.81367248,29.6523813 C3.72931795,33.3576051 3.68887399,35.8944504 3.68887399,37.2629171 C3.68887399,37.5855545 3.70890338,37.8866323 3.75127324,38.1680417 L3.75127324,39.0134046 C3.75127324,39.6987727 3.60606017,40.2109075 3.31987104,40.5532133 C3.03329672,40.8958973 2.50097722,41.0672394 1.72252735,41.0672394 C1.31115454,41.0672394 0.921737022,40.9155657 0.552734069,40.6144879 C0.183731115,40.3118972 0,39.9798038 0,39.6174514 C0,35.5101601 0.306603706,29.3494123 0.921737022,21.1367209 C1.53879624,12.9240295 1.84539995,6.76290343 1.84539995,2.65561213 C1.59926958,2.2932597 1.47639699,1.91123887 1.47639699,1.50728021 C1.47639699,1.02578267 1.70943122,0.652839559 2.18320328,0.391098554 C2.65312353,0.129735787 3.21895374,0 3.87414583,0 C4.40685051,0 5.39098678,1.89119223 6.82693981,5.67584613 C8.26096695,9.46050003 9.6965348,13.749724 11.1324878,18.5404922 C12.5645891,23.3308821 13.488252,26.7925204 13.8992396,28.9272982 C14.2281838,27.8402409 14.4924176,26.8341266 14.70003,25.9074424 L15.0690329,24.4576544 C16.3801875,18.8215234 17.6909568,13.7300556 19.0040373,9.17909063 C19.7821019,6.400551 20.5405224,4.22605817 21.2804542,2.65561213 C22.0169194,0.964508039 22.694452,0.118766872 23.3095853,0.118766872 C23.8823487,0.118766872 24.4073498,0.270440489 24.8757293,0.571518293 C25.3475755,0.874487289 25.5844615,1.26747704 25.5844615,1.75048753 C25.5844615,4.65006346 25.7073341,8.99715793 25.9534645,14.7955533 C26.2415795,20.1918812 26.3848667,24.3786026 26.3848667,27.3568521 L26.3224674,30.5590188 L26.1995948,33.7596726 C26.1995948,34.2426831 26.2600682,34.9673879 26.3848667,35.9341654 L26.5685978,38.0470054 C26.6090418,38.4093578 26.6383155,38.6926584 26.6602708,38.8927465 C26.6806853,39.0947259 26.6914704,39.2153839 26.6914704,39.255099 C26.8952309,39.7797157 27,40.1602236 27,40.4038091 C27,41.0869078 26.7923877,41.6909546 26.3848667,42.2155713 C25.9734939,42.7367839 25.4816183,43.0000378 24.9084697,43.0000378 C23.6381443,43.0000378 23.0010557,41.750338 23.0010557,39.255099" id="Fill-10" fill="#058D54" mask="url(#mask-4)"></path>
                </g>
                <path d="M97.0353517,46.4639866 C96.6221745,46.1073888 96.3957608,45.6726224 96.3553695,45.1563372 L96.3553695,43.6108319 L96.3553695,42.4219244 C96.3164604,42.0653266 96.2968206,41.6502885 96.2968206,41.1745766 C96.2968206,40.3422669 96.2367894,39.0737018 96.11858,37.3703704 L96,33.5661642 C96,31.6264657 96.0585489,28.7327378 96.1786111,24.8894472 C96.3357296,21.4418388 96.4135478,18.5495999 96.4135478,16.2108692 C96.4135478,15.6573609 96.3553695,14.8250512 96.2367894,13.7143123 C96.11858,12.5663503 96.0585489,11.7340406 96.0585489,11.2196166 C96.0585489,8.40554625 96.8867561,7 98.5439117,7 C99.8475506,7 101.354258,7.25721199 103.071074,7.77200819 C104.788261,8.28643216 105.645001,8.90210311 105.645001,9.61380979 C105.645001,10.0113531 105.475283,10.3783733 105.143259,10.713754 C104.805677,11.0509957 104.402876,11.3190024 103.927814,11.5159129 C102.272882,10.9214591 100.773216,10.5276382 99.4325206,10.3270054 C99.4710591,10.9214591 99.4925517,11.774986 99.4925517,12.8838638 C99.4925517,14.4684534 99.4710591,15.8948446 99.4325206,17.1619207 C99.3139406,19.065885 99.2557622,20.4907873 99.2557622,21.4418388 L99.4325206,22.3928904 L100.378937,22.3325889 C100.693545,22.2935046 101.089306,22.2737763 101.562514,22.2737763 C103.456088,22.2737763 104.402876,22.8291457 104.402876,23.9383957 C104.402876,24.374651 104.224635,24.7401824 103.869636,25.0383398 C103.514637,25.3346361 103.060698,25.483901 102.509672,25.483901 C101.799303,25.483901 101.246424,25.4448167 100.852516,25.3647869 L99.3724894,25.3647869 C99.4517898,26.3958682 99.4925517,27.9022892 99.4925517,29.882561 C99.4925517,31.8628327 99.4710591,33.6458217 99.4325206,35.2304113 C99.3139406,37.6487996 99.2557622,39.4500279 99.2557622,40.6404243 C99.2557622,42.858552 99.2928185,43.9674297 99.3724894,43.9674297 L101.325724,43.9089894 C101.997184,43.8699051 102.806122,43.8486879 103.751056,43.8486879 C105.24924,43.8486879 106,44.3240275 106,45.2750791 C106,45.8304485 105.754317,46.2562814 105.259616,46.5525777 C104.766768,46.8507352 104.164604,47 103.456088,47 L98.4271845,47 C97.9132143,47 97.4503817,46.8205844 97.0353517,46.4639866" id="Fill-13" fill="#058D54"></path>
                <path d="M113.954968,46.212491 L113.893624,43.8529958 C113.851971,43.166673 113.834173,42.4007655 113.834173,41.5533786 L113.893624,39.495926 C113.772451,39.0532838 113.469139,34.6344412 112.987475,26.2431879 C112.501646,17.8538295 112.220297,12.468602 112.140777,10.0875052 C109.801375,10.0060257 108.310565,9.76613484 107.667968,9.36139008 C107.221899,9.03812483 107,8.67468829 107,8.27183841 C107,7.94857316 107.213189,7.65789972 107.635402,7.39413347 C108.057616,7.13188312 108.492703,7 108.936879,7 C110.064927,7 111.434942,7.08147952 113.046926,7.24405957 C114.579389,7.44643196 115.949404,7.54572327 117.158865,7.54572327 L117.642801,7.54572327 L118.126358,7.54572327 C119.375579,7.54572327 120,8.03005268 120,8.99833251 C120,9.48228294 119.797792,9.87603744 119.39527,10.1777011 C118.990854,10.4812597 118.528881,10.6313336 118.005563,10.6313336 C117.642801,10.6313336 117.117212,10.5718346 116.43334,10.4505628 L115.223879,10.2083981 L115.162535,10.5100618 L115.103085,10.8136203 C115.103085,14.4051616 115.443885,20.1318452 116.131922,27.9993557 C116.774519,35.380642 117.097521,41.1092204 117.097521,45.1847122 C117.097521,45.6686626 116.886225,46.0915981 116.464012,46.4546557 C116.039906,46.8177133 115.566951,47 115.043255,47 L113.954968,46.212491 Z" id="Fill-15" fill="#058D54"></path>
                <path d="M129.517545,20.3373042 C130.140299,18.3600029 130.451865,16.5309899 130.451865,14.8525176 C130.451865,13.5746111 130.291739,12.3755414 129.969221,11.2553084 C129.767931,10.6163552 129.434839,10.1279426 128.973721,9.78631665 C128.511094,9.44806937 127.938568,9.2780072 127.254634,9.2780072 L127.135673,9.57683609 L127.013312,10.1170557 L127.135673,17.1913417 C127.21498,19.2688782 127.254634,21.527364 127.254634,23.9630447 C128.138348,23.5245621 128.892903,22.3146054 129.517545,20.3373042 M132.259323,45.124335 C131.416774,43.0467985 130.792132,40.9080696 130.390685,38.7107762 L129.969221,36.6722826 C128.802644,30.9581185 128.05753,27.7014092 127.738788,26.9014037 L127.013312,26.9014037 C127.013312,28.061055 126.995563,29.1185939 126.95402,30.0777746 L126.95402,33.3757794 C126.95402,38.7302977 127.335452,42.9052677 128.099072,45.902942 L127.436664,47.5224744 L125.747789,47.5224744 L124.964532,46.6222336 L125.025712,42.6064388 C125.025712,39.0096051 124.84406,33.5548515 124.480378,26.2410519 C124.158238,18.4493513 124,12.9949731 124,9.87754205 C124,7.95918068 124.662408,7 125.989111,7 C128.160252,7 129.938631,7.56011647 131.325004,8.67847234 C132.712887,9.79682822 133.405885,11.3555438 133.405885,13.354619 L133.405885,17.5491105 C133.405885,18.1486453 133.305051,18.8394056 133.103383,19.6180125 C132.903603,20.396244 132.682297,21.0261874 132.440976,21.5059654 L131.294414,23.6642158 L130.331015,25.4624449 L130.632006,26.9014037 L131.476066,31.1570875 C132.03764,34.2351002 132.581463,36.7312225 133.103383,38.6495838 C133.625681,40.5683206 134.269961,42.3057328 135.03358,43.8644484 L135.397262,44.58374 C135.796821,45.3837455 136,46.0226988 136,46.5021014 C136,46.9030427 135.87764,47.2521769 135.636696,47.5510058 C135.397262,47.8517118 135.073234,48 134.671408,48 C133.787695,48 132.984799,47.0408193 132.259323,45.124335" id="Fill-17" fill="#058D54"></path>
                <path d="M148.610972,44.5699392 C149.219397,43.9845786 149.686097,43.183699 150.011072,42.1726216 C150.779127,40.1090356 151.247732,37.8858058 151.409648,35.4976108 C151.611187,33.4340248 151.714432,31.6547567 151.714432,30.1563858 C151.714432,28.3353063 151.571184,25.9471112 151.287735,22.9937011 C151.046194,19.8791268 150.922756,17.5525087 150.922756,16.0142268 L150.922756,14.9218071 C150.842751,13.3850456 150.323475,12.0497394 149.371788,10.9174088 C148.420101,9.78317767 147.252399,9.21796264 145.874015,9.21796264 C144.493726,9.21796264 143.582042,10.0059188 143.137057,11.5841116 C142.732076,12.8380756 142.528633,14.4576998 142.528633,16.4399435 C142.528633,17.2085143 142.548825,17.8550717 142.588828,18.3826564 L142.588828,20.0205256 L142.466914,22.8123914 C142.385385,23.6623045 142.347287,24.5935599 142.347287,25.6046373 C142.347287,27.7879561 142.407101,29.9553106 142.528633,32.0987185 C142.688644,35.1334709 143.095531,38.086881 143.743958,40.9589487 C144.393909,43.9537902 145.345596,45.4506407 146.603972,45.4506407 C147.33431,45.4506407 148.002548,45.1568202 148.610972,44.5699392 M143.927209,46.9980452 C143.035717,46.3309622 142.305379,45.4304952 141.736957,44.2981646 C140.560111,41.8305278 139.830155,39.1378692 139.548611,36.2262706 C139.183632,33.4739357 139,30.8249891 139,28.2737294 C139,27.7879561 139.020192,27.3858058 139.060195,27.0596764 L139.060195,25.9672567 C139.060195,25.7661816 139.038479,25.6646937 139,25.6646937 L139,24.571894 L139.060195,20.3230886 C139.102103,19.0292137 139.263638,16.9656277 139.548611,14.1334709 C139.750149,12.1911381 140.216849,10.3103823 140.945282,8.48930278 C141.230255,7.67968071 141.595233,7.06163119 142.042122,6.63781494 C142.487106,6.21361859 142.993809,6 143.564136,6 C145.182156,6 146.643975,6.29344049 147.942734,6.88032146 C149.239208,7.46758254 150.334524,8.28670721 151.226016,9.3392159 C152.037884,10.3502932 152.727838,11.5932341 153.294735,13.0718397 C153.863157,14.5485447 154.268138,16.1157146 154.511203,17.7737294 C154.754649,19.4731755 154.876182,21.2741095 154.876182,23.1769114 L154.876182,23.6623045 C154.876182,24.9162685 154.898278,26.048599 154.936376,27.0596764 L155,30.5205256 C155,42.1726216 152.28133,48 146.845513,48 C145.792485,48 144.819082,47.664748 143.927209,46.9980452" id="Fill-19" fill="#058D54"></path>
                <path d="M168.938972,48.3387483 C167.895461,44.0163647 166.473347,36.1944971 164.668487,24.8690102 C162.662837,12.7841552 161.439631,5.60173565 161,3.32062388 C161.159729,2.56087982 161.701827,2.18081984 162.623281,2.18081984 C163.304012,2.18081984 164.145979,4.74161968 165.149934,9.86321936 C166.193068,15.0257948 167.215106,20.8676665 168.218685,27.3903379 L169.842343,38.015101 C170.481258,33.2126615 170.986061,29.6109258 171.345074,27.2095181 C172.1068,21.6883103 172.668864,17.1170646 173.029761,13.4954049 C173.390657,9.87374525 173.570352,6.44230354 173.570352,3.20032793 C174.171595,2.39960808 174.893765,2 175.735732,2 L177,2.66125175 L176.097005,10.7643111 C175.895837,13.2465427 175.396308,17.7478664 174.592014,24.2690342 L174.053306,28.2309058 C173.611415,31.7521936 173.168017,35.0746171 172.728009,38.1944171 C172.126389,42.7171686 171.566208,45.8587722 171.045206,47.6184763 C170.802976,48.5394921 170.564136,49 170.323413,49 C169.761349,49 169.299868,48.7797081 168.938972,48.3387483" id="Fill-21" fill="#058D54"></path>
                <path d="M181.03369,46.4639866 C180.620066,46.1073888 180.393981,45.6726224 180.353582,45.1563372 L180.353582,43.6108319 L180.353582,42.4219244 C180.314666,42.0653266 180.295022,41.6502885 180.295022,41.1745766 C180.295022,40.3422669 180.236833,39.0737018 180.116749,37.3703704 L180,33.5661642 C180,31.6264657 180.056707,28.7327378 180.176791,24.8894472 C180.333939,21.4418388 180.413624,18.5495999 180.413624,16.2108692 C180.413624,15.6573609 180.353582,14.8250512 180.236833,13.7143123 C180.116749,12.5663503 180.056707,11.7340406 180.056707,11.2196166 C180.056707,8.40554625 180.88692,7 182.54253,7 C183.84641,7 185.353397,7.25721199 187.070531,7.77200819 C188.788036,8.28643216 189.644935,8.90210311 189.644935,9.61380979 C189.644935,10.0113531 189.477039,10.3783733 189.143101,10.713754 C188.805456,11.0509957 188.40258,11.3190024 187.92743,11.5159129 C186.272192,10.9214591 184.772247,10.5276382 183.431304,10.3270054 C183.469849,10.9214591 183.491346,11.774986 183.491346,12.8838638 C183.491346,14.4684534 183.469849,15.8948446 183.431304,17.1619207 C183.312702,19.065885 183.254512,20.4907873 183.254512,21.4418388 L183.431304,22.3928904 L184.379749,22.3325889 C184.692561,22.2935046 185.088396,22.2737763 185.561692,22.2737763 C187.455617,22.2737763 188.40258,22.8291457 188.40258,23.9383957 C188.40258,24.374651 188.224306,24.7401824 187.869241,25.0383398 C187.514177,25.3346361 187.061636,25.483901 186.508654,25.483901 C185.798525,25.483901 185.245543,25.4448167 184.851562,25.3647869 L183.371261,25.3647869 C183.450576,26.3958682 183.491346,27.9022892 183.491346,29.882561 C183.491346,31.8628327 183.469849,33.6458217 183.431304,35.2304113 C183.312702,37.6487996 183.254512,39.4500279 183.254512,40.6404243 C183.254512,42.858552 183.291576,43.9674297 183.371261,43.9674297 L185.324858,43.9089894 C185.996442,43.8699051 186.80553,43.8486879 187.750639,43.8486879 C189.249101,43.8486879 190,44.3240275 190,45.2750791 C190,45.8304485 189.754272,46.2562814 189.259479,46.5525777 C188.766539,46.8507352 188.164264,47 187.455617,47 L182.425781,47 C181.911716,47 181.448797,46.8205844 181.03369,46.4639866" id="Fill-23" fill="#058D54"></path>
                <path d="M199.516729,20.3373042 C200.139561,18.3600029 200.451166,16.5309899 200.451166,14.8525176 C200.451166,13.5746111 200.29102,12.3755414 199.968462,11.2553084 C199.768657,10.6163552 199.435523,10.1279426 198.972837,9.78631665 C198.510151,9.44806937 197.937553,9.2780072 197.253533,9.2780072 L197.134557,9.57683609 L197.012181,10.1170557 L197.134557,17.1913417 C197.215763,19.2688782 197.253533,21.527364 197.253533,23.9630447 C198.137358,23.5245621 198.892008,22.3146054 199.516729,20.3373042 M202.260741,45.124335 C201.416197,43.0467985 200.793365,40.9080696 200.389978,38.7107762 L199.968462,36.6722826 C198.801737,30.9581185 198.058418,27.7014092 197.737748,26.9014037 L197.012181,26.9014037 C197.012181,28.061055 196.994429,29.1185939 196.952882,30.0777746 L196.952882,33.3757794 C196.952882,38.7302977 197.334362,42.9052677 198.098077,45.902942 L197.435586,47.5224744 L195.746498,47.5224744 L194.963142,46.6222336 L195.02433,42.6064388 C195.02433,39.0096051 194.842655,33.5548515 194.480816,26.2410519 C194.156747,18.4493513 194,12.9949731 194,9.87754205 C194,7.95918068 194.662491,7 195.987851,7 C198.159265,7 199.937868,7.56011647 201.325926,8.67847234 C202.712474,9.79682822 203.405559,11.3555438 203.405559,13.354619 L203.405559,17.5491105 C203.405559,18.1486453 203.304712,18.8394056 203.104907,19.6180125 C202.903214,20.396244 202.683768,21.0261874 202.442416,21.5059654 L201.293821,23.6642158 L200.330301,25.4624449 L200.63133,26.9014037 L201.475497,31.1570875 C202.039029,34.2351002 202.581033,36.7312225 203.104907,38.6495838 C203.625382,40.5683206 204.269743,42.3057328 205.033458,43.8644484 L205.397186,44.58374 C205.796796,45.3837455 206,46.0226988 206,46.5021014 C206,46.9030427 205.877624,47.2521769 205.63665,47.5510058 C205.397186,47.8517118 205.073117,48 204.671241,48 C203.787416,48 202.98442,47.0408193 202.260741,45.124335" id="Fill-25" fill="#058D54"></path>
                <path d="M217.218976,43.3118064 C217.9292,42.891157 218.536055,42.321778 219.037968,41.6021671 C219.456163,40.9629303 219.841736,40.1535558 220.199796,39.1725414 C220.553925,38.1949071 220.816083,37.2443147 220.984698,36.326022 C221.361624,34.5247413 221.58998,32.6862782 221.674484,30.8080036 C221.713788,30.3283882 221.736191,29.6283074 221.736191,28.7100148 C221.736191,16.6358754 219.287155,10.33928 214.393407,9.81835083 C214.101378,11.6173781 213.955167,13.6962123 213.955167,16.0556046 C213.955167,18.5746183 214.121816,22.9719066 214.455508,29.2485963 C214.749502,34.8060506 214.895713,39.2243714 214.895713,42.5009296 L214.895713,43.9420293 C215.733283,43.9420293 216.505214,43.7305778 217.218976,43.3118064 M210.502306,39.1439973 L210.627686,29.6677433 C210.67092,26.8711761 210.691358,23.7309534 210.691358,20.2542112 C210.691358,18.9738596 210.565978,16.9956808 210.31286,14.3155434 C210.104942,11.3972883 210,9.61929353 210,8.97855439 C210,8.45912753 210.232287,7.99904227 210.691358,7.59980094 C211.152395,7.20055961 211.652736,7 212.197883,7 C213.662745,7 215.071795,7.30985334 216.434074,7.92918443 C217.793994,8.5488911 218.997091,9.41873392 220.042186,10.5379617 C222.258935,12.9762258 223.72419,15.6563633 224.435987,18.5746183 C224.81252,20.0536516 225,21.5127791 225,22.950123 C225,23.4714278 224.979169,23.9529211 224.936327,24.3915983 L224.874227,26.0099716 L224.874227,29.3079379 C224.874227,31.8663875 224.790116,33.8873824 224.623467,35.3664157 C224.372314,37.3660025 223.89084,39.1439973 223.180615,40.7015267 C222.341081,42.380744 221.128944,43.8811853 219.540274,45.2005972 C218.787208,45.8003981 217.824258,46.4001991 216.652998,47 L212.133817,47 C211.045488,47 210.502306,44.3825844 210.502306,39.1439973" id="Fill-27" fill="#058D54"></path>
                <path d="M230.035352,46.4639866 C229.622174,46.1073888 229.393908,45.6726224 229.353517,45.1563372 L229.353517,43.6108319 L229.353517,42.4219244 C229.31646,42.0653266 229.295338,41.6502885 229.295338,41.1745766 C229.295338,40.3422669 229.236789,39.0737018 229.116727,37.3703704 L229,33.5661642 C229,31.6264657 229.058549,28.7327378 229.176758,24.8894472 C229.33573,21.4418388 229.413548,18.5495999 229.413548,16.2108692 C229.413548,15.6573609 229.353517,14.8250512 229.236789,13.7143123 C229.116727,12.5663503 229.058549,11.7340406 229.058549,11.2196166 C229.058549,8.40554625 229.886756,7 231.543912,7 C232.845698,7 234.354258,7.25721199 236.069221,7.77200819 C237.786408,8.28643216 238.643148,8.90210311 238.643148,9.61380979 C238.643148,10.0113531 238.475283,10.3783733 238.141407,10.713754 C237.803824,11.0509957 237.401393,11.3190024 236.927814,11.5159129 C235.272882,10.9214591 233.771363,10.5276382 232.430668,10.3270054 C232.469577,10.9214591 232.490699,11.774986 232.490699,12.8838638 C232.490699,14.4684534 232.469577,15.8948446 232.430668,17.1619207 C232.312088,19.065885 232.253909,20.4907873 232.253909,21.4418388 L232.430668,22.3928904 L233.378937,22.3325889 C233.691692,22.2935046 234.087453,22.2737763 234.562514,22.2737763 C236.454606,22.2737763 237.401393,22.8291457 237.401393,23.9383957 C237.401393,24.374651 237.222782,24.7401824 236.869636,25.0383398 C236.514637,25.3346361 236.060698,25.483901 235.509672,25.483901 C234.797451,25.483901 234.246424,25.4448167 233.850663,25.3647869 L232.372489,25.3647869 C232.449937,26.3958682 232.490699,27.9022892 232.490699,29.882561 C232.490699,31.8628327 232.469577,33.6458217 232.430668,35.2304113 C232.312088,37.6487996 232.253909,39.4500279 232.253909,40.6404243 C232.253909,42.858552 232.290966,43.9674297 232.372489,43.9674297 L234.324242,43.9089894 C234.995331,43.8699051 235.804639,43.8486879 236.751056,43.8486879 C238.247388,43.8486879 239,44.3240275 239,45.2750791 C239,45.8304485 238.752464,46.2562814 238.259616,46.5525777 C237.765286,46.8507352 237.164604,47 236.454606,47 L231.425332,47 C230.913214,47 230.448529,46.8205844 230.035352,46.4639866" id="Fill-29" fill="#058D54"></path>
            </g>
        </g>
    </g>
</svg>